<svg xmlns="http://www.w3.org/2000/svg" xmlns:xlink="http://www.w3.org/1999/xlink" width="1920" zoomAndPan="magnify" viewBox="0 0 1440 809.999993" height="1080" preserveAspectRatio="xMidYMid meet" version="1.0"><defs><g/><clipPath id="adbddb6467"><path d="M 0 735.558594 L 1440 735.558594 L 1440 810 L 0 810 Z M 0 735.558594 " clip-rule="nonzero"/></clipPath></defs><g clip-path="url(#adbddb6467)"><path fill="#1f2937" d="M 0 735.558594 L 1440.003906 735.558594 L 1440.003906 810 L 0 810 Z M 0 735.558594 " fill-opacity="1" fill-rule="nonzero"/></g><g fill="#fef202" fill-opacity="1"><g transform="translate(590.285953, 777.167965)"><g><path d="M 4.96875 0.140625 C 1.84375 0.140625 0.28125 -1.53125 0.28125 -4.875 C 0.28125 -8.207031 1.84375 -9.875 4.96875 -9.875 C 8.09375 -9.875 9.65625 -8.207031 9.65625 -4.875 C 9.65625 -1.53125 8.09375 0.140625 4.96875 0.140625 Z M 4.96875 -0.46875 C 7.6875 -0.46875 9.046875 -1.9375 9.046875 -4.875 C 9.046875 -7.800781 7.6875 -9.265625 4.96875 -9.265625 C 2.25 -9.265625 0.890625 -7.800781 0.890625 -4.875 C 0.890625 -1.9375 2.25 -0.46875 4.96875 -0.46875 Z M 5.03125 -1.46875 C 3.976562 -1.46875 3.207031 -1.742188 2.71875 -2.296875 C 2.226562 -2.859375 1.984375 -3.703125 1.984375 -4.828125 C 1.984375 -7.109375 3.015625 -8.25 5.078125 -8.25 C 6.429688 -8.25 7.269531 -7.722656 7.59375 -6.671875 C 7.71875 -6.273438 7.691406 -5.96875 7.515625 -5.75 C 7.347656 -5.53125 7.113281 -5.421875 6.8125 -5.421875 C 6.5 -5.421875 6.28125 -5.5 6.15625 -5.65625 C 6.03125 -5.8125 5.90625 -6.035156 5.78125 -6.328125 C 5.675781 -6.554688 5.429688 -6.671875 5.046875 -6.671875 C 4.671875 -6.671875 4.398438 -6.535156 4.234375 -6.265625 C 4.078125 -5.992188 4 -5.515625 4 -4.828125 C 4 -4.316406 4.039062 -3.921875 4.125 -3.640625 C 4.21875 -3.367188 4.34375 -3.179688 4.5 -3.078125 C 4.65625 -2.972656 4.835938 -2.921875 5.046875 -2.921875 C 5.328125 -2.921875 5.539062 -2.976562 5.6875 -3.09375 C 5.863281 -3.257812 5.992188 -3.410156 6.078125 -3.546875 C 6.171875 -3.691406 6.269531 -3.804688 6.375 -3.890625 C 6.476562 -3.972656 6.628906 -4.015625 6.828125 -4.015625 C 7.109375 -4.015625 7.328125 -3.910156 7.484375 -3.703125 C 7.648438 -3.492188 7.671875 -3.207031 7.546875 -2.84375 C 7.191406 -1.925781 6.351562 -1.46875 5.03125 -1.46875 Z M 5.03125 -1.46875 "/></g></g></g><g fill="#fef202" fill-opacity="1"><g transform="translate(600.21669, 777.167965)"><g/></g></g><g fill="#fef202" fill-opacity="1"><g transform="translate(603.728272, 777.167965)"><g><path d="M 2.15625 0 C 1.363281 0 0.96875 -0.335938 0.96875 -1.015625 L 0.96875 -1.078125 C 0.96875 -1.410156 1.03125 -1.6875 1.15625 -1.90625 C 1.28125 -2.132812 1.472656 -2.335938 1.734375 -2.515625 C 2.109375 -2.753906 2.515625 -3.035156 2.953125 -3.359375 C 3.390625 -3.691406 3.804688 -4.054688 4.203125 -4.453125 C 4.597656 -4.847656 4.925781 -5.257812 5.1875 -5.6875 C 5.445312 -6.113281 5.578125 -6.554688 5.578125 -7.015625 C 5.578125 -7.367188 5.488281 -7.640625 5.3125 -7.828125 C 5.132812 -8.023438 4.835938 -8.125 4.421875 -8.125 C 4.023438 -8.125 3.734375 -8.023438 3.546875 -7.828125 C 3.359375 -7.628906 3.238281 -7.296875 3.1875 -6.828125 C 3.144531 -6.421875 3.035156 -6.113281 2.859375 -5.90625 C 2.679688 -5.695312 2.40625 -5.59375 2.03125 -5.59375 C 1.65625 -5.59375 1.359375 -5.691406 1.140625 -5.890625 C 0.921875 -6.085938 0.820312 -6.378906 0.84375 -6.765625 C 0.90625 -7.816406 1.238281 -8.617188 1.84375 -9.171875 C 2.457031 -9.734375 3.265625 -10.015625 4.265625 -10.015625 C 5.460938 -10.015625 6.359375 -9.753906 6.953125 -9.234375 C 7.554688 -8.722656 7.859375 -7.976562 7.859375 -7 C 7.859375 -6.457031 7.757812 -5.96875 7.5625 -5.53125 C 7.363281 -5.09375 7.101562 -4.695312 6.78125 -4.34375 C 6.457031 -3.988281 6.101562 -3.675781 5.71875 -3.40625 C 5.34375 -3.132812 4.96875 -2.90625 4.59375 -2.71875 C 4.21875 -2.539062 3.878906 -2.398438 3.578125 -2.296875 L 6.71875 -2.3125 C 7.507812 -2.3125 7.90625 -1.929688 7.90625 -1.171875 C 7.90625 -0.390625 7.507812 0 6.71875 0 Z M 2.15625 0 "/></g></g></g><g fill="#fef202" fill-opacity="1"><g transform="translate(612.366752, 777.167965)"><g><path d="M 4.234375 0.28125 C 1.660156 0.28125 0.375 -1.4375 0.375 -4.875 C 0.375 -8.300781 1.660156 -10.015625 4.234375 -10.015625 C 6.785156 -10.015625 8.0625 -8.300781 8.0625 -4.875 C 8.0625 -1.4375 6.785156 0.28125 4.234375 0.28125 Z M 4.234375 -1.609375 C 4.566406 -1.609375 4.828125 -1.707031 5.015625 -1.90625 C 5.203125 -2.101562 5.332031 -2.4375 5.40625 -2.90625 C 5.476562 -3.382812 5.515625 -4.039062 5.515625 -4.875 C 5.515625 -5.707031 5.476562 -6.359375 5.40625 -6.828125 C 5.332031 -7.296875 5.203125 -7.628906 5.015625 -7.828125 C 4.828125 -8.023438 4.566406 -8.125 4.234375 -8.125 C 3.890625 -8.125 3.625 -8.023438 3.4375 -7.828125 C 3.25 -7.628906 3.113281 -7.296875 3.03125 -6.828125 C 2.957031 -6.359375 2.921875 -5.707031 2.921875 -4.875 C 2.921875 -4.039062 2.957031 -3.382812 3.03125 -2.90625 C 3.113281 -2.4375 3.25 -2.101562 3.4375 -1.90625 C 3.625 -1.707031 3.890625 -1.609375 4.234375 -1.609375 Z M 4.234375 -1.609375 "/></g></g></g><g fill="#fef202" fill-opacity="1"><g transform="translate(620.794534, 777.167965)"><g><path d="M 2.15625 0 C 1.363281 0 0.96875 -0.335938 0.96875 -1.015625 L 0.96875 -1.078125 C 0.96875 -1.410156 1.03125 -1.6875 1.15625 -1.90625 C 1.28125 -2.132812 1.472656 -2.335938 1.734375 -2.515625 C 2.109375 -2.753906 2.515625 -3.035156 2.953125 -3.359375 C 3.390625 -3.691406 3.804688 -4.054688 4.203125 -4.453125 C 4.597656 -4.847656 4.925781 -5.257812 5.1875 -5.6875 C 5.445312 -6.113281 5.578125 -6.554688 5.578125 -7.015625 C 5.578125 -7.367188 5.488281 -7.640625 5.3125 -7.828125 C 5.132812 -8.023438 4.835938 -8.125 4.421875 -8.125 C 4.023438 -8.125 3.734375 -8.023438 3.546875 -7.828125 C 3.359375 -7.628906 3.238281 -7.296875 3.1875 -6.828125 C 3.144531 -6.421875 3.035156 -6.113281 2.859375 -5.90625 C 2.679688 -5.695312 2.40625 -5.59375 2.03125 -5.59375 C 1.65625 -5.59375 1.359375 -5.691406 1.140625 -5.890625 C 0.921875 -6.085938 0.820312 -6.378906 0.84375 -6.765625 C 0.90625 -7.816406 1.238281 -8.617188 1.84375 -9.171875 C 2.457031 -9.734375 3.265625 -10.015625 4.265625 -10.015625 C 5.460938 -10.015625 6.359375 -9.753906 6.953125 -9.234375 C 7.554688 -8.722656 7.859375 -7.976562 7.859375 -7 C 7.859375 -6.457031 7.757812 -5.96875 7.5625 -5.53125 C 7.363281 -5.09375 7.101562 -4.695312 6.78125 -4.34375 C 6.457031 -3.988281 6.101562 -3.675781 5.71875 -3.40625 C 5.34375 -3.132812 4.96875 -2.90625 4.59375 -2.71875 C 4.21875 -2.539062 3.878906 -2.398438 3.578125 -2.296875 L 6.71875 -2.3125 C 7.507812 -2.3125 7.90625 -1.929688 7.90625 -1.171875 C 7.90625 -0.390625 7.507812 0 6.71875 0 Z M 2.15625 0 "/></g></g></g><g fill="#fef202" fill-opacity="1"><g transform="translate(629.433014, 777.167965)"><g><path d="M 8.0625 -3.859375 C 8.320312 -3.859375 8.453125 -3.539062 8.453125 -2.90625 C 8.453125 -2.257812 8.320312 -1.9375 8.0625 -1.9375 L 7.671875 -1.9375 C 7.671875 -1.8125 7.671875 -1.6875 7.671875 -1.5625 C 7.679688 -1.445312 7.6875 -1.320312 7.6875 -1.1875 C 7.6875 -0.394531 7.285156 0 6.484375 0 L 5.375 0 C 5.238281 0 5.171875 -0.0664062 5.171875 -0.203125 C 5.171875 -0.492188 5.171875 -0.78125 5.171875 -1.0625 C 5.171875 -1.351562 5.175781 -1.644531 5.1875 -1.9375 L 1.9375 -1.921875 C 1.53125 -1.921875 1.226562 -2.03125 1.03125 -2.25 C 0.84375 -2.46875 0.769531 -2.78125 0.8125 -3.1875 L 1.453125 -8.5625 C 1.535156 -9.3125 1.953125 -9.6875 2.703125 -9.6875 L 2.8125 -9.6875 C 3.21875 -9.6875 3.515625 -9.578125 3.703125 -9.359375 C 3.898438 -9.148438 3.972656 -8.835938 3.921875 -8.421875 L 3.3125 -3.859375 L 5.203125 -3.859375 L 5.203125 -4.875 C 5.203125 -5.15625 5.195312 -5.503906 5.1875 -5.921875 C 5.1875 -6.335938 5.1875 -6.773438 5.1875 -7.234375 C 5.1875 -7.703125 5.179688 -8.140625 5.171875 -8.546875 C 5.171875 -9.335938 5.566406 -9.734375 6.359375 -9.734375 L 6.484375 -9.734375 C 7.285156 -9.734375 7.6875 -9.335938 7.6875 -8.546875 C 7.6875 -8.140625 7.6875 -7.703125 7.6875 -7.234375 C 7.6875 -6.773438 7.6875 -6.335938 7.6875 -5.921875 C 7.6875 -5.503906 7.679688 -5.15625 7.671875 -4.875 L 7.671875 -3.859375 Z M 8.0625 -3.859375 "/></g></g></g><g fill="#fef202" fill-opacity="1"><g transform="translate(638.071495, 777.167965)"><g/></g></g><g fill="#fef202" fill-opacity="1"><g transform="translate(641.583076, 777.167965)"><g><path d="M 4.734375 0.140625 C 3.335938 0.140625 2.3125 -0.273438 1.65625 -1.109375 C 1.007812 -1.953125 0.6875 -3.207031 0.6875 -4.875 C 0.6875 -8.207031 2.066406 -9.875 4.828125 -9.875 C 5.867188 -9.875 6.703125 -9.617188 7.328125 -9.109375 C 7.953125 -8.609375 8.304688 -7.878906 8.390625 -6.921875 C 8.421875 -6.523438 8.320312 -6.226562 8.09375 -6.03125 C 7.863281 -5.832031 7.554688 -5.734375 7.171875 -5.734375 L 7.09375 -5.734375 C 6.707031 -5.734375 6.425781 -5.835938 6.25 -6.046875 C 6.082031 -6.253906 5.96875 -6.5625 5.90625 -6.96875 C 5.851562 -7.332031 5.734375 -7.59375 5.546875 -7.75 C 5.367188 -7.90625 5.101562 -7.984375 4.75 -7.984375 C 4.257812 -7.984375 3.910156 -7.75 3.703125 -7.28125 C 3.492188 -6.820312 3.390625 -6.019531 3.390625 -4.875 C 3.390625 -4.050781 3.445312 -3.414062 3.5625 -2.96875 C 3.675781 -2.519531 3.835938 -2.210938 4.046875 -2.046875 C 4.253906 -1.878906 4.488281 -1.796875 4.75 -1.796875 C 5.050781 -1.796875 5.289062 -1.847656 5.46875 -1.953125 C 5.644531 -2.054688 5.773438 -2.234375 5.859375 -2.484375 C 5.984375 -2.859375 6.132812 -3.140625 6.3125 -3.328125 C 6.488281 -3.523438 6.757812 -3.625 7.125 -3.625 L 7.140625 -3.625 C 7.523438 -3.625 7.832031 -3.515625 8.0625 -3.296875 C 8.289062 -3.085938 8.363281 -2.773438 8.28125 -2.359375 C 8.144531 -1.503906 7.769531 -0.875 7.15625 -0.46875 C 6.539062 -0.0625 5.734375 0.140625 4.734375 0.140625 Z M 4.734375 0.140625 "/></g></g></g><g fill="#fef202" fill-opacity="1"><g transform="translate(650.502475, 777.167965)"><g><path d="M 1.921875 0 C 1.128906 0 0.734375 -0.394531 0.734375 -1.1875 C 0.742188 -1.875 0.75 -2.546875 0.75 -3.203125 C 0.757812 -3.867188 0.765625 -4.546875 0.765625 -5.234375 C 0.765625 -5.859375 0.757812 -6.484375 0.75 -7.109375 C 0.75 -7.734375 0.742188 -8.351562 0.734375 -8.96875 C 0.734375 -9.769531 1.128906 -10.171875 1.921875 -10.171875 L 2.015625 -10.171875 C 2.804688 -10.171875 3.203125 -9.769531 3.203125 -8.96875 C 3.203125 -8.351562 3.203125 -7.734375 3.203125 -7.109375 C 3.203125 -6.484375 3.195312 -5.859375 3.1875 -5.234375 C 3.175781 -4.546875 3.171875 -3.867188 3.171875 -3.203125 C 3.179688 -2.546875 3.191406 -1.875 3.203125 -1.1875 C 3.203125 -0.394531 2.804688 0 2.015625 0 Z M 1.921875 0 "/></g></g></g><g fill="#fef202" fill-opacity="1"><g transform="translate(654.44948, 777.167965)"><g><path d="M 2.9375 0.140625 C 2.476562 0.140625 2.054688 0.0664062 1.671875 -0.078125 C 1.296875 -0.234375 0.992188 -0.46875 0.765625 -0.78125 C 0.546875 -1.09375 0.4375 -1.492188 0.4375 -1.984375 C 0.4375 -2.859375 0.804688 -3.519531 1.546875 -3.96875 C 2.296875 -4.414062 3.460938 -4.613281 5.046875 -4.5625 L 5.046875 -5.046875 C 5.046875 -5.554688 4.972656 -5.90625 4.828125 -6.09375 C 4.679688 -6.28125 4.453125 -6.375 4.140625 -6.375 C 3.960938 -6.375 3.796875 -6.347656 3.640625 -6.296875 C 3.492188 -6.242188 3.378906 -6.15625 3.296875 -6.03125 C 3.171875 -5.820312 3.0625 -5.640625 2.96875 -5.484375 C 2.882812 -5.335938 2.785156 -5.222656 2.671875 -5.140625 C 2.554688 -5.066406 2.382812 -5.03125 2.15625 -5.03125 L 2.015625 -5.03125 C 1.617188 -5.03125 1.300781 -5.132812 1.0625 -5.34375 C 0.820312 -5.5625 0.757812 -5.863281 0.875 -6.25 C 1.03125 -6.800781 1.390625 -7.210938 1.953125 -7.484375 C 2.515625 -7.753906 3.304688 -7.890625 4.328125 -7.890625 C 6.410156 -7.890625 7.453125 -6.953125 7.453125 -5.078125 C 7.453125 -4.242188 7.453125 -3.507812 7.453125 -2.875 C 7.460938 -2.25 7.476562 -1.695312 7.5 -1.21875 C 7.519531 -0.820312 7.4375 -0.519531 7.25 -0.3125 C 7.0625 -0.101562 6.773438 0 6.390625 0 L 6.265625 0 C 5.554688 0 5.171875 -0.113281 5.109375 -0.34375 C 5.085938 -0.394531 5.070312 -0.445312 5.0625 -0.5 C 5.0625 -0.5625 5.054688 -0.617188 5.046875 -0.671875 C 4.765625 -0.398438 4.441406 -0.195312 4.078125 -0.0625 C 3.710938 0.0703125 3.332031 0.140625 2.9375 0.140625 Z M 3.6875 -1.453125 C 4 -1.453125 4.265625 -1.515625 4.484375 -1.640625 C 4.710938 -1.765625 4.910156 -1.941406 5.078125 -2.171875 L 5.078125 -3.4375 C 4.648438 -3.425781 4.253906 -3.394531 3.890625 -3.34375 C 3.523438 -3.289062 3.226562 -3.1875 3 -3.03125 C 2.78125 -2.882812 2.671875 -2.660156 2.671875 -2.359375 C 2.671875 -2.097656 2.753906 -1.878906 2.921875 -1.703125 C 3.097656 -1.535156 3.351562 -1.453125 3.6875 -1.453125 Z M 3.6875 -1.453125 "/></g></g></g><g fill="#fef202" fill-opacity="1"><g transform="translate(662.62442, 777.167965)"><g><path d="M 3.734375 0.171875 C 2.828125 0.171875 2.128906 0.046875 1.640625 -0.203125 C 1.148438 -0.460938 0.820312 -0.835938 0.65625 -1.328125 C 0.539062 -1.703125 0.582031 -2 0.78125 -2.21875 C 0.988281 -2.4375 1.257812 -2.546875 1.59375 -2.546875 L 1.625 -2.546875 C 1.851562 -2.546875 2.019531 -2.503906 2.125 -2.421875 C 2.238281 -2.347656 2.34375 -2.242188 2.4375 -2.109375 C 2.53125 -1.972656 2.640625 -1.816406 2.765625 -1.640625 C 2.898438 -1.472656 3.191406 -1.390625 3.640625 -1.390625 C 4.078125 -1.390625 4.382812 -1.457031 4.5625 -1.59375 C 4.738281 -1.738281 4.828125 -1.914062 4.828125 -2.125 C 4.828125 -2.382812 4.75 -2.578125 4.59375 -2.703125 C 4.445312 -2.835938 4.25 -2.9375 4 -3 C 3.75 -3.070312 3.472656 -3.128906 3.171875 -3.171875 C 2.867188 -3.222656 2.566406 -3.285156 2.265625 -3.359375 C 1.960938 -3.429688 1.6875 -3.546875 1.4375 -3.703125 C 1.1875 -3.859375 0.984375 -4.078125 0.828125 -4.359375 C 0.679688 -4.648438 0.609375 -5.03125 0.609375 -5.5 C 0.609375 -7.09375 1.707031 -7.890625 3.90625 -7.890625 C 5.582031 -7.890625 6.578125 -7.398438 6.890625 -6.421875 C 6.992188 -6.046875 6.941406 -5.75 6.734375 -5.53125 C 6.535156 -5.320312 6.269531 -5.21875 5.9375 -5.21875 L 5.890625 -5.21875 C 5.671875 -5.21875 5.503906 -5.253906 5.390625 -5.328125 C 5.273438 -5.398438 5.171875 -5.5 5.078125 -5.625 C 4.984375 -5.75 4.867188 -5.890625 4.734375 -6.046875 C 4.585938 -6.203125 4.3125 -6.28125 3.90625 -6.28125 C 3.53125 -6.28125 3.269531 -6.21875 3.125 -6.09375 C 2.988281 -5.96875 2.921875 -5.800781 2.921875 -5.59375 C 2.921875 -5.3125 3.023438 -5.101562 3.234375 -4.96875 C 3.441406 -4.84375 3.703125 -4.753906 4.015625 -4.703125 C 4.335938 -4.648438 4.679688 -4.59375 5.046875 -4.53125 C 5.410156 -4.476562 5.75 -4.382812 6.0625 -4.25 C 6.382812 -4.125 6.644531 -3.914062 6.84375 -3.625 C 7.050781 -3.34375 7.15625 -2.945312 7.15625 -2.4375 C 7.15625 -1.570312 6.863281 -0.921875 6.28125 -0.484375 C 5.707031 -0.046875 4.859375 0.171875 3.734375 0.171875 Z M 3.734375 0.171875 "/></g></g></g><g fill="#fef202" fill-opacity="1"><g transform="translate(670.321795, 777.167965)"><g><path d="M 7.734375 -1.203125 C 7.734375 -0.398438 7.335938 0 6.546875 0 L 6.5 0 C 5.707031 0 5.3125 -0.398438 5.3125 -1.203125 C 5.320312 -1.847656 5.328125 -2.460938 5.328125 -3.046875 C 5.335938 -3.640625 5.34375 -4.175781 5.34375 -4.65625 C 5.34375 -5.125 5.257812 -5.445312 5.09375 -5.625 C 4.9375 -5.800781 4.695312 -5.882812 4.375 -5.875 C 3.820312 -5.851562 3.429688 -5.570312 3.203125 -5.03125 C 3.191406 -4.375 3.1875 -3.726562 3.1875 -3.09375 C 3.195312 -2.46875 3.207031 -1.832031 3.21875 -1.1875 C 3.21875 -0.394531 2.816406 0 2.015625 0 L 1.921875 0 C 1.128906 0 0.734375 -0.394531 0.734375 -1.1875 C 0.742188 -1.863281 0.75 -2.535156 0.75 -3.203125 C 0.757812 -3.867188 0.765625 -4.546875 0.765625 -5.234375 C 0.765625 -5.867188 0.757812 -6.488281 0.75 -7.09375 C 0.75 -7.707031 0.742188 -8.332031 0.734375 -8.96875 C 0.734375 -9.769531 1.128906 -10.171875 1.921875 -10.171875 L 2.015625 -10.171875 C 2.804688 -10.171875 3.203125 -9.851562 3.203125 -9.21875 C 3.203125 -9.039062 3.203125 -8.867188 3.203125 -8.703125 C 3.203125 -8.535156 3.203125 -8.394531 3.203125 -8.28125 C 3.203125 -7.96875 3.195312 -7.660156 3.1875 -7.359375 C 3.175781 -7.054688 3.148438 -6.757812 3.109375 -6.46875 L 3.125 -6.453125 C 3.394531 -6.941406 3.734375 -7.300781 4.140625 -7.53125 C 4.546875 -7.769531 5.019531 -7.890625 5.5625 -7.890625 C 6.300781 -7.890625 6.851562 -7.632812 7.21875 -7.125 C 7.582031 -6.625 7.75 -5.796875 7.71875 -4.640625 C 7.71875 -4.148438 7.71875 -3.613281 7.71875 -3.03125 C 7.71875 -2.445312 7.722656 -1.835938 7.734375 -1.203125 Z M 7.734375 -1.203125 "/></g></g></g><g fill="#fef202" fill-opacity="1"><g transform="translate(678.875991, 777.167965)"><g/></g></g><g fill="#fef202" fill-opacity="1"><g transform="translate(682.387572, 777.167965)"><g><path d="M 2.25 0 C 1.445312 0 1.046875 -0.394531 1.046875 -1.1875 C 1.054688 -1.832031 1.0625 -2.738281 1.0625 -3.90625 C 1.070312 -5.070312 1.078125 -6.601562 1.078125 -8.5 C 1.078125 -9.320312 1.476562 -9.734375 2.28125 -9.734375 L 4.796875 -9.734375 C 5.691406 -9.734375 6.398438 -9.644531 6.921875 -9.46875 C 7.453125 -9.300781 7.828125 -9.050781 8.046875 -8.71875 C 8.273438 -8.394531 8.390625 -8 8.390625 -7.53125 C 8.390625 -6.90625 8.234375 -6.378906 7.921875 -5.953125 C 7.617188 -5.535156 7.222656 -5.242188 6.734375 -5.078125 L 6.734375 -5.03125 C 7.390625 -4.96875 7.875 -4.742188 8.1875 -4.359375 C 8.5 -3.972656 8.65625 -3.492188 8.65625 -2.921875 C 8.65625 -2.378906 8.519531 -1.882812 8.25 -1.4375 C 7.988281 -1 7.59375 -0.648438 7.0625 -0.390625 C 6.539062 -0.128906 5.878906 0 5.078125 0 Z M 3.546875 -5.8125 L 3.984375 -5.8125 C 4.710938 -5.8125 5.210938 -5.9375 5.484375 -6.1875 C 5.765625 -6.445312 5.90625 -6.75 5.90625 -7.09375 C 5.90625 -7.425781 5.773438 -7.664062 5.515625 -7.8125 C 5.253906 -7.96875 4.875 -8.046875 4.375 -8.046875 L 3.5625 -8.046875 C 3.550781 -7.753906 3.546875 -7.4375 3.546875 -7.09375 C 3.546875 -6.75 3.546875 -6.320312 3.546875 -5.8125 Z M 3.5625 -1.671875 L 4.375 -1.671875 C 4.957031 -1.671875 5.410156 -1.796875 5.734375 -2.046875 C 6.054688 -2.304688 6.21875 -2.671875 6.21875 -3.140625 C 6.21875 -3.554688 6.082031 -3.890625 5.8125 -4.140625 C 5.539062 -4.390625 5.128906 -4.515625 4.578125 -4.515625 L 3.546875 -4.515625 L 3.546875 -3.4375 C 3.546875 -3.144531 3.546875 -2.851562 3.546875 -2.5625 C 3.546875 -2.269531 3.550781 -1.972656 3.5625 -1.671875 Z M 3.5625 -1.671875 "/></g></g></g><g fill="#fef202" fill-opacity="1"><g transform="translate(691.672174, 777.167965)"><g><path d="M 7.6875 -3.59375 C 7.6875 -3.289062 7.6875 -2.992188 7.6875 -2.703125 C 7.695312 -2.421875 7.703125 -2.128906 7.703125 -1.828125 C 7.710938 -0.546875 7.53125 0.488281 7.15625 1.28125 C 6.78125 2.070312 6.238281 2.644531 5.53125 3 C 4.832031 3.363281 4.007812 3.546875 3.0625 3.546875 C 2.90625 3.546875 2.742188 3.535156 2.578125 3.515625 C 2.421875 3.503906 2.269531 3.488281 2.125 3.46875 C 1.769531 3.40625 1.519531 3.257812 1.375 3.03125 C 1.226562 2.8125 1.164062 2.539062 1.1875 2.21875 C 1.207031 1.90625 1.328125 1.679688 1.546875 1.546875 C 1.773438 1.410156 2.09375 1.351562 2.5 1.375 C 3.21875 1.414062 3.800781 1.351562 4.25 1.1875 C 4.707031 1.03125 5.039062 0.734375 5.25 0.296875 C 5.457031 -0.140625 5.5625 -0.757812 5.5625 -1.5625 L 5.5 -1.59375 C 5.3125 -1.039062 5.007812 -0.609375 4.59375 -0.296875 C 4.175781 0.00390625 3.703125 0.15625 3.171875 0.15625 C 2.421875 0.15625 1.835938 -0.0546875 1.421875 -0.484375 C 1.003906 -0.921875 0.804688 -1.671875 0.828125 -2.734375 C 0.847656 -3.390625 0.851562 -4.03125 0.84375 -4.65625 C 0.832031 -5.289062 0.820312 -5.929688 0.8125 -6.578125 C 0.8125 -7.367188 1.210938 -7.765625 2.015625 -7.765625 L 2.09375 -7.765625 C 2.882812 -7.765625 3.28125 -7.367188 3.28125 -6.578125 C 3.269531 -6.003906 3.265625 -5.441406 3.265625 -4.890625 C 3.265625 -4.335938 3.265625 -3.769531 3.265625 -3.1875 C 3.265625 -2.78125 3.351562 -2.476562 3.53125 -2.28125 C 3.707031 -2.082031 3.929688 -1.988281 4.203125 -2 C 4.523438 -2.007812 4.78125 -2.144531 4.96875 -2.40625 C 5.15625 -2.675781 5.25 -3.070312 5.25 -3.59375 C 5.269531 -4.101562 5.273438 -4.601562 5.265625 -5.09375 C 5.265625 -5.582031 5.257812 -6.078125 5.25 -6.578125 C 5.238281 -6.960938 5.335938 -7.253906 5.546875 -7.453125 C 5.753906 -7.660156 6.050781 -7.765625 6.4375 -7.765625 L 6.515625 -7.765625 C 7.316406 -7.765625 7.71875 -7.363281 7.71875 -6.5625 C 7.707031 -6.070312 7.695312 -5.582031 7.6875 -5.09375 C 7.6875 -4.601562 7.6875 -4.101562 7.6875 -3.59375 Z M 7.6875 -3.59375 "/></g></g></g><g fill="#fef202" fill-opacity="1"><g transform="translate(700.19828, 777.167965)"><g><path d="M 4.453125 -1.703125 C 4.867188 -1.722656 5.1875 -1.703125 5.40625 -1.640625 C 5.632812 -1.578125 5.757812 -1.398438 5.78125 -1.109375 C 5.8125 -0.804688 5.765625 -0.546875 5.640625 -0.328125 C 5.515625 -0.117188 5.296875 0.015625 4.984375 0.078125 C 4.703125 0.140625 4.394531 0.171875 4.0625 0.171875 C 3.476562 0.171875 2.972656 0.0820312 2.546875 -0.09375 C 2.117188 -0.269531 1.789062 -0.5625 1.5625 -0.96875 C 1.332031 -1.375 1.222656 -1.914062 1.234375 -2.59375 C 1.242188 -3.007812 1.25 -3.441406 1.25 -3.890625 C 1.25 -4.335938 1.25 -4.785156 1.25 -5.234375 L 1.25 -5.96875 L 1.234375 -5.96875 C 0.441406 -5.96875 0.046875 -6.269531 0.046875 -6.875 C 0.046875 -7.46875 0.242188 -7.765625 0.640625 -7.765625 L 1.234375 -7.765625 C 1.234375 -7.890625 1.226562 -8.003906 1.21875 -8.109375 C 1.21875 -8.222656 1.21875 -8.34375 1.21875 -8.46875 C 1.21875 -9.164062 1.546875 -9.613281 2.203125 -9.8125 C 2.597656 -9.945312 2.914062 -9.9375 3.15625 -9.78125 C 3.394531 -9.632812 3.515625 -9.375 3.515625 -9 L 3.515625 -7.765625 L 4.5 -7.765625 C 5.289062 -7.765625 5.6875 -7.472656 5.6875 -6.890625 C 5.6875 -6.296875 5.328125 -6 4.609375 -6 L 3.515625 -5.984375 C 3.515625 -5.859375 3.507812 -5.734375 3.5 -5.609375 C 3.5 -5.492188 3.5 -5.367188 3.5 -5.234375 C 3.488281 -4.835938 3.484375 -4.4375 3.484375 -4.03125 C 3.484375 -3.625 3.484375 -3.238281 3.484375 -2.875 C 3.484375 -2.082031 3.804688 -1.691406 4.453125 -1.703125 Z M 4.453125 -1.703125 "/></g></g></g><g fill="#fef202" fill-opacity="1"><g transform="translate(706.238194, 777.167965)"><g><path d="M 4.125 0.140625 C 2.875 0.140625 1.957031 -0.203125 1.375 -0.890625 C 0.789062 -1.578125 0.5 -2.613281 0.5 -4 C 0.5 -6.59375 1.707031 -7.890625 4.125 -7.890625 C 5 -7.890625 5.703125 -7.707031 6.234375 -7.34375 C 6.765625 -6.976562 7.132812 -6.460938 7.34375 -5.796875 C 7.550781 -5.140625 7.609375 -4.378906 7.515625 -3.515625 C 7.492188 -3.359375 7.421875 -3.28125 7.296875 -3.28125 L 2.828125 -3.28125 C 2.835938 -2.8125 2.898438 -2.441406 3.015625 -2.171875 C 3.140625 -1.910156 3.296875 -1.726562 3.484375 -1.625 C 3.679688 -1.53125 3.898438 -1.484375 4.140625 -1.484375 C 4.503906 -1.484375 4.796875 -1.546875 5.015625 -1.671875 C 5.191406 -1.796875 5.328125 -1.910156 5.421875 -2.015625 C 5.523438 -2.128906 5.628906 -2.222656 5.734375 -2.296875 C 5.847656 -2.378906 6.003906 -2.421875 6.203125 -2.421875 C 6.566406 -2.421875 6.859375 -2.328125 7.078125 -2.140625 C 7.296875 -1.960938 7.351562 -1.710938 7.25 -1.390625 C 6.914062 -0.367188 5.875 0.140625 4.125 0.140625 Z M 2.84375 -4.609375 L 5.140625 -4.609375 C 5.160156 -5.171875 5.082031 -5.59375 4.90625 -5.875 C 4.726562 -6.15625 4.429688 -6.296875 4.015625 -6.296875 C 3.648438 -6.296875 3.359375 -6.15625 3.140625 -5.875 C 2.929688 -5.601562 2.832031 -5.179688 2.84375 -4.609375 Z M 2.84375 -4.609375 "/></g></g></g><g fill="#fef202" fill-opacity="1"><g transform="translate(714.356953, 777.167965)"><g><path d="M 3.734375 0.171875 C 2.828125 0.171875 2.128906 0.046875 1.640625 -0.203125 C 1.148438 -0.460938 0.820312 -0.835938 0.65625 -1.328125 C 0.539062 -1.703125 0.582031 -2 0.78125 -2.21875 C 0.988281 -2.4375 1.257812 -2.546875 1.59375 -2.546875 L 1.625 -2.546875 C 1.851562 -2.546875 2.019531 -2.503906 2.125 -2.421875 C 2.238281 -2.347656 2.34375 -2.242188 2.4375 -2.109375 C 2.53125 -1.972656 2.640625 -1.816406 2.765625 -1.640625 C 2.898438 -1.472656 3.191406 -1.390625 3.640625 -1.390625 C 4.078125 -1.390625 4.382812 -1.457031 4.5625 -1.59375 C 4.738281 -1.738281 4.828125 -1.914062 4.828125 -2.125 C 4.828125 -2.382812 4.75 -2.578125 4.59375 -2.703125 C 4.445312 -2.835938 4.25 -2.9375 4 -3 C 3.75 -3.070312 3.472656 -3.128906 3.171875 -3.171875 C 2.867188 -3.222656 2.566406 -3.285156 2.265625 -3.359375 C 1.960938 -3.429688 1.6875 -3.546875 1.4375 -3.703125 C 1.1875 -3.859375 0.984375 -4.078125 0.828125 -4.359375 C 0.679688 -4.648438 0.609375 -5.03125 0.609375 -5.5 C 0.609375 -7.09375 1.707031 -7.890625 3.90625 -7.890625 C 5.582031 -7.890625 6.578125 -7.398438 6.890625 -6.421875 C 6.992188 -6.046875 6.941406 -5.75 6.734375 -5.53125 C 6.535156 -5.320312 6.269531 -5.21875 5.9375 -5.21875 L 5.890625 -5.21875 C 5.671875 -5.21875 5.503906 -5.253906 5.390625 -5.328125 C 5.273438 -5.398438 5.171875 -5.5 5.078125 -5.625 C 4.984375 -5.75 4.867188 -5.890625 4.734375 -6.046875 C 4.585938 -6.203125 4.3125 -6.28125 3.90625 -6.28125 C 3.53125 -6.28125 3.269531 -6.21875 3.125 -6.09375 C 2.988281 -5.96875 2.921875 -5.800781 2.921875 -5.59375 C 2.921875 -5.3125 3.023438 -5.101562 3.234375 -4.96875 C 3.441406 -4.84375 3.703125 -4.753906 4.015625 -4.703125 C 4.335938 -4.648438 4.679688 -4.59375 5.046875 -4.53125 C 5.410156 -4.476562 5.75 -4.382812 6.0625 -4.25 C 6.382812 -4.125 6.644531 -3.914062 6.84375 -3.625 C 7.050781 -3.34375 7.15625 -2.945312 7.15625 -2.4375 C 7.15625 -1.570312 6.863281 -0.921875 6.28125 -0.484375 C 5.707031 -0.046875 4.859375 0.171875 3.734375 0.171875 Z M 3.734375 0.171875 "/></g></g></g><g fill="#fef202" fill-opacity="1"><g transform="translate(722.054328, 777.167965)"><g><path d="M 1.796875 0.140625 C 1.273438 0.140625 0.914062 0.0390625 0.71875 -0.15625 C 0.519531 -0.351562 0.421875 -0.710938 0.421875 -1.234375 C 0.421875 -1.753906 0.519531 -2.113281 0.71875 -2.3125 C 0.914062 -2.507812 1.273438 -2.609375 1.796875 -2.609375 C 2.316406 -2.609375 2.675781 -2.507812 2.875 -2.3125 C 3.070312 -2.113281 3.171875 -1.753906 3.171875 -1.234375 C 3.171875 -0.710938 3.070312 -0.351562 2.875 -0.15625 C 2.675781 0.0390625 2.316406 0.140625 1.796875 0.140625 Z M 1.796875 0.140625 "/></g></g></g><g fill="#fef202" fill-opacity="1"><g transform="translate(725.650181, 777.167965)"><g/></g></g><g fill="#fef202" fill-opacity="1"><g transform="translate(729.161762, 777.167965)"><g><path d="M 4.484375 -9.875 C 5.085938 -9.875 5.617188 -9.726562 6.078125 -9.4375 C 6.535156 -9.15625 6.921875 -8.6875 7.234375 -8.03125 C 7.546875 -7.375 7.78125 -6.492188 7.9375 -5.390625 C 8.101562 -4.285156 8.203125 -2.910156 8.234375 -1.265625 C 8.242188 -0.859375 8.144531 -0.546875 7.9375 -0.328125 C 7.726562 -0.109375 7.429688 0 7.046875 0 L 6.84375 0 C 6.039062 0 5.640625 -0.363281 5.640625 -1.09375 C 5.640625 -1.28125 5.640625 -1.460938 5.640625 -1.640625 C 5.640625 -1.816406 5.632812 -1.992188 5.625 -2.171875 L 3.140625 -2.171875 C 3.140625 -2.023438 3.132812 -1.867188 3.125 -1.703125 C 3.125 -1.535156 3.125 -1.363281 3.125 -1.1875 C 3.125 -0.394531 2.734375 0 1.953125 0 C 1.578125 0 1.285156 -0.101562 1.078125 -0.3125 C 0.867188 -0.519531 0.769531 -0.816406 0.78125 -1.203125 C 0.789062 -1.585938 0.800781 -1.953125 0.8125 -2.296875 C 0.820312 -2.648438 0.835938 -2.984375 0.859375 -3.296875 C 0.972656 -4.953125 1.179688 -6.257812 1.484375 -7.21875 C 1.785156 -8.1875 2.1875 -8.867188 2.6875 -9.265625 C 3.1875 -9.671875 3.785156 -9.875 4.484375 -9.875 Z M 3.171875 -3.84375 L 5.578125 -3.84375 C 5.523438 -4.894531 5.441406 -5.710938 5.328125 -6.296875 C 5.210938 -6.878906 5.066406 -7.289062 4.890625 -7.53125 C 4.722656 -7.769531 4.519531 -7.890625 4.28125 -7.890625 C 4.050781 -7.890625 3.859375 -7.769531 3.703125 -7.53125 C 3.546875 -7.289062 3.425781 -6.878906 3.34375 -6.296875 C 3.269531 -5.710938 3.210938 -4.894531 3.171875 -3.84375 Z M 3.171875 -3.84375 "/></g></g></g><g fill="#fef202" fill-opacity="1"><g transform="translate(738.179485, 777.167965)"><g><path d="M 1.921875 0 C 1.128906 0 0.734375 -0.394531 0.734375 -1.1875 C 0.742188 -1.875 0.75 -2.546875 0.75 -3.203125 C 0.757812 -3.867188 0.765625 -4.546875 0.765625 -5.234375 C 0.765625 -5.859375 0.757812 -6.484375 0.75 -7.109375 C 0.75 -7.734375 0.742188 -8.351562 0.734375 -8.96875 C 0.734375 -9.769531 1.128906 -10.171875 1.921875 -10.171875 L 2.015625 -10.171875 C 2.804688 -10.171875 3.203125 -9.769531 3.203125 -8.96875 C 3.203125 -8.351562 3.203125 -7.734375 3.203125 -7.109375 C 3.203125 -6.484375 3.195312 -5.859375 3.1875 -5.234375 C 3.175781 -4.546875 3.171875 -3.867188 3.171875 -3.203125 C 3.179688 -2.546875 3.191406 -1.875 3.203125 -1.1875 C 3.203125 -0.394531 2.804688 0 2.015625 0 Z M 1.921875 0 "/></g></g></g><g fill="#fef202" fill-opacity="1"><g transform="translate(742.126489, 777.167965)"><g><path d="M 1.921875 0 C 1.128906 0 0.734375 -0.394531 0.734375 -1.1875 C 0.742188 -1.875 0.75 -2.546875 0.75 -3.203125 C 0.757812 -3.867188 0.765625 -4.546875 0.765625 -5.234375 C 0.765625 -5.859375 0.757812 -6.484375 0.75 -7.109375 C 0.75 -7.734375 0.742188 -8.351562 0.734375 -8.96875 C 0.734375 -9.769531 1.128906 -10.171875 1.921875 -10.171875 L 2.015625 -10.171875 C 2.804688 -10.171875 3.203125 -9.769531 3.203125 -8.96875 C 3.203125 -8.351562 3.203125 -7.734375 3.203125 -7.109375 C 3.203125 -6.484375 3.195312 -5.859375 3.1875 -5.234375 C 3.175781 -4.546875 3.171875 -3.867188 3.171875 -3.203125 C 3.179688 -2.546875 3.191406 -1.875 3.203125 -1.1875 C 3.203125 -0.394531 2.804688 0 2.015625 0 Z M 1.921875 0 "/></g></g></g><g fill="#fef202" fill-opacity="1"><g transform="translate(746.073493, 777.167965)"><g/></g></g><g fill="#fef202" fill-opacity="1"><g transform="translate(749.585075, 777.167965)"><g><path d="M 5.28125 -7.875 C 5.414062 -7.851562 5.550781 -7.785156 5.6875 -7.671875 C 5.832031 -7.554688 5.953125 -7.363281 6.046875 -7.09375 C 6.085938 -6.9375 6.109375 -6.769531 6.109375 -6.59375 C 6.109375 -6.425781 6.085938 -6.265625 6.046875 -6.109375 C 5.953125 -5.742188 5.8125 -5.503906 5.625 -5.390625 C 5.4375 -5.273438 5.253906 -5.25 5.078125 -5.3125 C 4.890625 -5.363281 4.703125 -5.390625 4.515625 -5.390625 C 3.898438 -5.390625 3.460938 -5.003906 3.203125 -4.234375 L 3.203125 -3.890625 C 3.203125 -3.742188 3.195312 -3.585938 3.1875 -3.421875 C 3.1875 -3.265625 3.1875 -3.113281 3.1875 -2.96875 C 3.1875 -2.675781 3.1875 -2.382812 3.1875 -2.09375 C 3.195312 -1.8125 3.207031 -1.519531 3.21875 -1.21875 C 3.25 -0.40625 2.859375 0 2.046875 0 L 2.015625 0 C 1.210938 0 0.8125 -0.394531 0.8125 -1.1875 C 0.820312 -1.644531 0.828125 -2.09375 0.828125 -2.53125 C 0.835938 -2.976562 0.84375 -3.429688 0.84375 -3.890625 C 0.84375 -4.359375 0.835938 -4.8125 0.828125 -5.25 C 0.828125 -5.6875 0.820312 -6.132812 0.8125 -6.59375 C 0.8125 -7.382812 1.191406 -7.78125 1.953125 -7.78125 C 2.710938 -7.78125 3.09375 -7.484375 3.09375 -6.890625 L 3.09375 -5.96875 L 3.125 -5.9375 C 3.238281 -6.519531 3.453125 -6.992188 3.765625 -7.359375 C 4.078125 -7.722656 4.46875 -7.90625 4.9375 -7.90625 C 5.007812 -7.90625 5.070312 -7.898438 5.125 -7.890625 C 5.1875 -7.890625 5.238281 -7.882812 5.28125 -7.875 Z M 5.28125 -7.875 "/></g></g></g><g fill="#fef202" fill-opacity="1"><g transform="translate(755.709261, 777.167965)"><g><path d="M 2 -8.75 C 1.476562 -8.75 1.101562 -8.84375 0.875 -9.03125 C 0.644531 -9.21875 0.53125 -9.519531 0.53125 -9.9375 C 0.53125 -10.363281 0.644531 -10.671875 0.875 -10.859375 C 1.101562 -11.046875 1.476562 -11.140625 2 -11.140625 C 2.519531 -11.140625 2.890625 -11.046875 3.109375 -10.859375 C 3.335938 -10.671875 3.453125 -10.363281 3.453125 -9.9375 C 3.453125 -9.519531 3.335938 -9.21875 3.109375 -9.03125 C 2.890625 -8.84375 2.519531 -8.75 2 -8.75 Z M 2.03125 0 C 1.238281 0 0.84375 -0.394531 0.84375 -1.1875 L 0.84375 -2.390625 C 0.832031 -3.429688 0.828125 -4.28125 0.828125 -4.9375 C 0.828125 -5.59375 0.820312 -6.144531 0.8125 -6.59375 C 0.8125 -7.375 1.210938 -7.765625 2.015625 -7.765625 C 2.816406 -7.765625 3.21875 -7.367188 3.21875 -6.578125 C 3.21875 -6.085938 3.21875 -5.570312 3.21875 -5.03125 C 3.21875 -4.5 3.210938 -4.019531 3.203125 -3.59375 C 3.191406 -3.1875 3.1875 -2.785156 3.1875 -2.390625 C 3.195312 -1.992188 3.203125 -1.59375 3.203125 -1.1875 C 3.222656 -0.394531 2.832031 0 2.03125 0 Z M 2.03125 0 "/></g></g></g><g fill="#fef202" fill-opacity="1"><g transform="translate(759.698407, 777.167965)"><g><path d="M 4.859375 -1.59375 C 5.835938 -1.59375 6.597656 -1.4375 7.140625 -1.125 C 7.691406 -0.8125 7.96875 -0.273438 7.96875 0.484375 C 7.96875 1.015625 7.835938 1.507812 7.578125 1.96875 C 7.316406 2.4375 6.890625 2.8125 6.296875 3.09375 C 5.710938 3.375 4.921875 3.515625 3.921875 3.515625 C 2.847656 3.515625 1.988281 3.3125 1.34375 2.90625 C 0.707031 2.5 0.390625 1.945312 0.390625 1.25 C 0.390625 0.789062 0.515625 0.445312 0.765625 0.21875 C 1.023438 -0.0078125 1.3125 -0.128906 1.625 -0.140625 C 1.382812 -0.253906 1.1875 -0.429688 1.03125 -0.671875 C 0.875 -0.910156 0.796875 -1.171875 0.796875 -1.453125 C 0.796875 -1.734375 0.875 -1.992188 1.03125 -2.234375 C 1.195312 -2.472656 1.40625 -2.648438 1.65625 -2.765625 C 0.863281 -3.222656 0.46875 -3.992188 0.46875 -5.078125 C 0.46875 -5.796875 0.609375 -6.363281 0.890625 -6.78125 C 1.179688 -7.207031 1.644531 -7.515625 2.28125 -7.703125 C 2.925781 -7.898438 3.78125 -8 4.84375 -8 C 5.125 -8 5.425781 -7.988281 5.75 -7.96875 C 6.070312 -7.957031 6.390625 -7.941406 6.703125 -7.921875 C 7.097656 -7.898438 7.394531 -7.820312 7.59375 -7.6875 C 7.789062 -7.550781 7.875 -7.382812 7.84375 -7.1875 C 7.757812 -6.800781 7.550781 -6.613281 7.21875 -6.625 C 7.15625 -6.632812 7.082031 -6.640625 7 -6.640625 C 6.914062 -6.640625 6.820312 -6.640625 6.71875 -6.640625 C 6.90625 -6.429688 7.039062 -6.191406 7.125 -5.921875 C 7.21875 -5.648438 7.265625 -5.28125 7.265625 -4.8125 C 7.265625 -3.132812 6.164062 -2.296875 3.96875 -2.296875 C 3.695312 -2.296875 3.441406 -2.304688 3.203125 -2.328125 C 2.960938 -2.347656 2.742188 -2.382812 2.546875 -2.4375 C 2.492188 -2.363281 2.46875 -2.300781 2.46875 -2.25 C 2.46875 -2.09375 2.523438 -1.960938 2.640625 -1.859375 C 2.765625 -1.765625 3 -1.695312 3.34375 -1.65625 C 3.6875 -1.613281 4.191406 -1.59375 4.859375 -1.59375 Z M 3.96875 -6.46875 C 3.519531 -6.46875 3.203125 -6.375 3.015625 -6.1875 C 2.828125 -6 2.734375 -5.65625 2.734375 -5.15625 C 2.734375 -4.570312 2.84375 -4.179688 3.0625 -3.984375 C 3.289062 -3.785156 3.59375 -3.6875 3.96875 -3.6875 C 4.320312 -3.6875 4.601562 -3.785156 4.8125 -3.984375 C 5.03125 -4.179688 5.140625 -4.570312 5.140625 -5.15625 C 5.140625 -5.65625 5.046875 -6 4.859375 -6.1875 C 4.679688 -6.375 4.382812 -6.46875 3.96875 -6.46875 Z M 4.0625 1.859375 C 4.863281 1.859375 5.410156 1.796875 5.703125 1.671875 C 6.003906 1.546875 6.15625 1.335938 6.15625 1.046875 C 6.15625 0.722656 6 0.53125 5.6875 0.46875 C 5.375 0.40625 4.882812 0.375 4.21875 0.375 C 3.925781 0.375 3.617188 0.367188 3.296875 0.359375 C 2.984375 0.359375 2.6875 0.34375 2.40625 0.3125 C 2.207031 0.425781 2.109375 0.601562 2.109375 0.84375 C 2.109375 1.519531 2.757812 1.859375 4.0625 1.859375 Z M 4.0625 1.859375 "/></g></g></g><g fill="#fef202" fill-opacity="1"><g transform="translate(767.91549, 777.167965)"><g><path d="M 7.734375 -1.203125 C 7.734375 -0.398438 7.335938 0 6.546875 0 L 6.5 0 C 5.707031 0 5.3125 -0.398438 5.3125 -1.203125 C 5.320312 -1.847656 5.328125 -2.460938 5.328125 -3.046875 C 5.335938 -3.640625 5.34375 -4.175781 5.34375 -4.65625 C 5.34375 -5.125 5.257812 -5.445312 5.09375 -5.625 C 4.9375 -5.800781 4.695312 -5.882812 4.375 -5.875 C 3.820312 -5.851562 3.429688 -5.570312 3.203125 -5.03125 C 3.191406 -4.375 3.1875 -3.726562 3.1875 -3.09375 C 3.195312 -2.46875 3.207031 -1.832031 3.21875 -1.1875 C 3.21875 -0.394531 2.816406 0 2.015625 0 L 1.921875 0 C 1.128906 0 0.734375 -0.394531 0.734375 -1.1875 C 0.742188 -1.863281 0.75 -2.535156 0.75 -3.203125 C 0.757812 -3.867188 0.765625 -4.546875 0.765625 -5.234375 C 0.765625 -5.867188 0.757812 -6.488281 0.75 -7.09375 C 0.75 -7.707031 0.742188 -8.332031 0.734375 -8.96875 C 0.734375 -9.769531 1.128906 -10.171875 1.921875 -10.171875 L 2.015625 -10.171875 C 2.804688 -10.171875 3.203125 -9.851562 3.203125 -9.21875 C 3.203125 -9.039062 3.203125 -8.867188 3.203125 -8.703125 C 3.203125 -8.535156 3.203125 -8.394531 3.203125 -8.28125 C 3.203125 -7.96875 3.195312 -7.660156 3.1875 -7.359375 C 3.175781 -7.054688 3.148438 -6.757812 3.109375 -6.46875 L 3.125 -6.453125 C 3.394531 -6.941406 3.734375 -7.300781 4.140625 -7.53125 C 4.546875 -7.769531 5.019531 -7.890625 5.5625 -7.890625 C 6.300781 -7.890625 6.851562 -7.632812 7.21875 -7.125 C 7.582031 -6.625 7.75 -5.796875 7.71875 -4.640625 C 7.71875 -4.148438 7.71875 -3.613281 7.71875 -3.03125 C 7.71875 -2.445312 7.722656 -1.835938 7.734375 -1.203125 Z M 7.734375 -1.203125 "/></g></g></g><g fill="#fef202" fill-opacity="1"><g transform="translate(776.469686, 777.167965)"><g><path d="M 4.453125 -1.703125 C 4.867188 -1.722656 5.1875 -1.703125 5.40625 -1.640625 C 5.632812 -1.578125 5.757812 -1.398438 5.78125 -1.109375 C 5.8125 -0.804688 5.765625 -0.546875 5.640625 -0.328125 C 5.515625 -0.117188 5.296875 0.015625 4.984375 0.078125 C 4.703125 0.140625 4.394531 0.171875 4.0625 0.171875 C 3.476562 0.171875 2.972656 0.0820312 2.546875 -0.09375 C 2.117188 -0.269531 1.789062 -0.5625 1.5625 -0.96875 C 1.332031 -1.375 1.222656 -1.914062 1.234375 -2.59375 C 1.242188 -3.007812 1.25 -3.441406 1.25 -3.890625 C 1.25 -4.335938 1.25 -4.785156 1.25 -5.234375 L 1.25 -5.96875 L 1.234375 -5.96875 C 0.441406 -5.96875 0.046875 -6.269531 0.046875 -6.875 C 0.046875 -7.46875 0.242188 -7.765625 0.640625 -7.765625 L 1.234375 -7.765625 C 1.234375 -7.890625 1.226562 -8.003906 1.21875 -8.109375 C 1.21875 -8.222656 1.21875 -8.34375 1.21875 -8.46875 C 1.21875 -9.164062 1.546875 -9.613281 2.203125 -9.8125 C 2.597656 -9.945312 2.914062 -9.9375 3.15625 -9.78125 C 3.394531 -9.632812 3.515625 -9.375 3.515625 -9 L 3.515625 -7.765625 L 4.5 -7.765625 C 5.289062 -7.765625 5.6875 -7.472656 5.6875 -6.890625 C 5.6875 -6.296875 5.328125 -6 4.609375 -6 L 3.515625 -5.984375 C 3.515625 -5.859375 3.507812 -5.734375 3.5 -5.609375 C 3.5 -5.492188 3.5 -5.367188 3.5 -5.234375 C 3.488281 -4.835938 3.484375 -4.4375 3.484375 -4.03125 C 3.484375 -3.625 3.484375 -3.238281 3.484375 -2.875 C 3.484375 -2.082031 3.804688 -1.691406 4.453125 -1.703125 Z M 4.453125 -1.703125 "/></g></g></g><g fill="#fef202" fill-opacity="1"><g transform="translate(782.5096, 777.167965)"><g><path d="M 3.734375 0.171875 C 2.828125 0.171875 2.128906 0.046875 1.640625 -0.203125 C 1.148438 -0.460938 0.820312 -0.835938 0.65625 -1.328125 C 0.539062 -1.703125 0.582031 -2 0.78125 -2.21875 C 0.988281 -2.4375 1.257812 -2.546875 1.59375 -2.546875 L 1.625 -2.546875 C 1.851562 -2.546875 2.019531 -2.503906 2.125 -2.421875 C 2.238281 -2.347656 2.34375 -2.242188 2.4375 -2.109375 C 2.53125 -1.972656 2.640625 -1.816406 2.765625 -1.640625 C 2.898438 -1.472656 3.191406 -1.390625 3.640625 -1.390625 C 4.078125 -1.390625 4.382812 -1.457031 4.5625 -1.59375 C 4.738281 -1.738281 4.828125 -1.914062 4.828125 -2.125 C 4.828125 -2.382812 4.75 -2.578125 4.59375 -2.703125 C 4.445312 -2.835938 4.25 -2.9375 4 -3 C 3.75 -3.070312 3.472656 -3.128906 3.171875 -3.171875 C 2.867188 -3.222656 2.566406 -3.285156 2.265625 -3.359375 C 1.960938 -3.429688 1.6875 -3.546875 1.4375 -3.703125 C 1.1875 -3.859375 0.984375 -4.078125 0.828125 -4.359375 C 0.679688 -4.648438 0.609375 -5.03125 0.609375 -5.5 C 0.609375 -7.09375 1.707031 -7.890625 3.90625 -7.890625 C 5.582031 -7.890625 6.578125 -7.398438 6.890625 -6.421875 C 6.992188 -6.046875 6.941406 -5.75 6.734375 -5.53125 C 6.535156 -5.320312 6.269531 -5.21875 5.9375 -5.21875 L 5.890625 -5.21875 C 5.671875 -5.21875 5.503906 -5.253906 5.390625 -5.328125 C 5.273438 -5.398438 5.171875 -5.5 5.078125 -5.625 C 4.984375 -5.75 4.867188 -5.890625 4.734375 -6.046875 C 4.585938 -6.203125 4.3125 -6.28125 3.90625 -6.28125 C 3.53125 -6.28125 3.269531 -6.21875 3.125 -6.09375 C 2.988281 -5.96875 2.921875 -5.800781 2.921875 -5.59375 C 2.921875 -5.3125 3.023438 -5.101562 3.234375 -4.96875 C 3.441406 -4.84375 3.703125 -4.753906 4.015625 -4.703125 C 4.335938 -4.648438 4.679688 -4.59375 5.046875 -4.53125 C 5.410156 -4.476562 5.75 -4.382812 6.0625 -4.25 C 6.382812 -4.125 6.644531 -3.914062 6.84375 -3.625 C 7.050781 -3.34375 7.15625 -2.945312 7.15625 -2.4375 C 7.15625 -1.570312 6.863281 -0.921875 6.28125 -0.484375 C 5.707031 -0.046875 4.859375 0.171875 3.734375 0.171875 Z M 3.734375 0.171875 "/></g></g></g><g fill="#fef202" fill-opacity="1"><g transform="translate(790.206975, 777.167965)"><g/></g></g><g fill="#fef202" fill-opacity="1"><g transform="translate(793.718556, 777.167965)"><g><path d="M 5.28125 -7.875 C 5.414062 -7.851562 5.550781 -7.785156 5.6875 -7.671875 C 5.832031 -7.554688 5.953125 -7.363281 6.046875 -7.09375 C 6.085938 -6.9375 6.109375 -6.769531 6.109375 -6.59375 C 6.109375 -6.425781 6.085938 -6.265625 6.046875 -6.109375 C 5.953125 -5.742188 5.8125 -5.503906 5.625 -5.390625 C 5.4375 -5.273438 5.253906 -5.25 5.078125 -5.3125 C 4.890625 -5.363281 4.703125 -5.390625 4.515625 -5.390625 C 3.898438 -5.390625 3.460938 -5.003906 3.203125 -4.234375 L 3.203125 -3.890625 C 3.203125 -3.742188 3.195312 -3.585938 3.1875 -3.421875 C 3.1875 -3.265625 3.1875 -3.113281 3.1875 -2.96875 C 3.1875 -2.675781 3.1875 -2.382812 3.1875 -2.09375 C 3.195312 -1.8125 3.207031 -1.519531 3.21875 -1.21875 C 3.25 -0.40625 2.859375 0 2.046875 0 L 2.015625 0 C 1.210938 0 0.8125 -0.394531 0.8125 -1.1875 C 0.820312 -1.644531 0.828125 -2.09375 0.828125 -2.53125 C 0.835938 -2.976562 0.84375 -3.429688 0.84375 -3.890625 C 0.84375 -4.359375 0.835938 -4.8125 0.828125 -5.25 C 0.828125 -5.6875 0.820312 -6.132812 0.8125 -6.59375 C 0.8125 -7.382812 1.191406 -7.78125 1.953125 -7.78125 C 2.710938 -7.78125 3.09375 -7.484375 3.09375 -6.890625 L 3.09375 -5.96875 L 3.125 -5.9375 C 3.238281 -6.519531 3.453125 -6.992188 3.765625 -7.359375 C 4.078125 -7.722656 4.46875 -7.90625 4.9375 -7.90625 C 5.007812 -7.90625 5.070312 -7.898438 5.125 -7.890625 C 5.1875 -7.890625 5.238281 -7.882812 5.28125 -7.875 Z M 5.28125 -7.875 "/></g></g></g><g fill="#fef202" fill-opacity="1"><g transform="translate(799.842742, 777.167965)"><g><path d="M 4.125 0.140625 C 2.875 0.140625 1.957031 -0.203125 1.375 -0.890625 C 0.789062 -1.578125 0.5 -2.613281 0.5 -4 C 0.5 -6.59375 1.707031 -7.890625 4.125 -7.890625 C 5 -7.890625 5.703125 -7.707031 6.234375 -7.34375 C 6.765625 -6.976562 7.132812 -6.460938 7.34375 -5.796875 C 7.550781 -5.140625 7.609375 -4.378906 7.515625 -3.515625 C 7.492188 -3.359375 7.421875 -3.28125 7.296875 -3.28125 L 2.828125 -3.28125 C 2.835938 -2.8125 2.898438 -2.441406 3.015625 -2.171875 C 3.140625 -1.910156 3.296875 -1.726562 3.484375 -1.625 C 3.679688 -1.53125 3.898438 -1.484375 4.140625 -1.484375 C 4.503906 -1.484375 4.796875 -1.546875 5.015625 -1.671875 C 5.191406 -1.796875 5.328125 -1.910156 5.421875 -2.015625 C 5.523438 -2.128906 5.628906 -2.222656 5.734375 -2.296875 C 5.847656 -2.378906 6.003906 -2.421875 6.203125 -2.421875 C 6.566406 -2.421875 6.859375 -2.328125 7.078125 -2.140625 C 7.296875 -1.960938 7.351562 -1.710938 7.25 -1.390625 C 6.914062 -0.367188 5.875 0.140625 4.125 0.140625 Z M 2.84375 -4.609375 L 5.140625 -4.609375 C 5.160156 -5.171875 5.082031 -5.59375 4.90625 -5.875 C 4.726562 -6.15625 4.429688 -6.296875 4.015625 -6.296875 C 3.648438 -6.296875 3.359375 -6.15625 3.140625 -5.875 C 2.929688 -5.601562 2.832031 -5.179688 2.84375 -4.609375 Z M 2.84375 -4.609375 "/></g></g></g><g fill="#fef202" fill-opacity="1"><g transform="translate(807.961502, 777.167965)"><g><path d="M 3.734375 0.171875 C 2.828125 0.171875 2.128906 0.046875 1.640625 -0.203125 C 1.148438 -0.460938 0.820312 -0.835938 0.65625 -1.328125 C 0.539062 -1.703125 0.582031 -2 0.78125 -2.21875 C 0.988281 -2.4375 1.257812 -2.546875 1.59375 -2.546875 L 1.625 -2.546875 C 1.851562 -2.546875 2.019531 -2.503906 2.125 -2.421875 C 2.238281 -2.347656 2.34375 -2.242188 2.4375 -2.109375 C 2.53125 -1.972656 2.640625 -1.816406 2.765625 -1.640625 C 2.898438 -1.472656 3.191406 -1.390625 3.640625 -1.390625 C 4.078125 -1.390625 4.382812 -1.457031 4.5625 -1.59375 C 4.738281 -1.738281 4.828125 -1.914062 4.828125 -2.125 C 4.828125 -2.382812 4.75 -2.578125 4.59375 -2.703125 C 4.445312 -2.835938 4.25 -2.9375 4 -3 C 3.75 -3.070312 3.472656 -3.128906 3.171875 -3.171875 C 2.867188 -3.222656 2.566406 -3.285156 2.265625 -3.359375 C 1.960938 -3.429688 1.6875 -3.546875 1.4375 -3.703125 C 1.1875 -3.859375 0.984375 -4.078125 0.828125 -4.359375 C 0.679688 -4.648438 0.609375 -5.03125 0.609375 -5.5 C 0.609375 -7.09375 1.707031 -7.890625 3.90625 -7.890625 C 5.582031 -7.890625 6.578125 -7.398438 6.890625 -6.421875 C 6.992188 -6.046875 6.941406 -5.75 6.734375 -5.53125 C 6.535156 -5.320312 6.269531 -5.21875 5.9375 -5.21875 L 5.890625 -5.21875 C 5.671875 -5.21875 5.503906 -5.253906 5.390625 -5.328125 C 5.273438 -5.398438 5.171875 -5.5 5.078125 -5.625 C 4.984375 -5.75 4.867188 -5.890625 4.734375 -6.046875 C 4.585938 -6.203125 4.3125 -6.28125 3.90625 -6.28125 C 3.53125 -6.28125 3.269531 -6.21875 3.125 -6.09375 C 2.988281 -5.96875 2.921875 -5.800781 2.921875 -5.59375 C 2.921875 -5.3125 3.023438 -5.101562 3.234375 -4.96875 C 3.441406 -4.84375 3.703125 -4.753906 4.015625 -4.703125 C 4.335938 -4.648438 4.679688 -4.59375 5.046875 -4.53125 C 5.410156 -4.476562 5.75 -4.382812 6.0625 -4.25 C 6.382812 -4.125 6.644531 -3.914062 6.84375 -3.625 C 7.050781 -3.34375 7.15625 -2.945312 7.15625 -2.4375 C 7.15625 -1.570312 6.863281 -0.921875 6.28125 -0.484375 C 5.707031 -0.046875 4.859375 0.171875 3.734375 0.171875 Z M 3.734375 0.171875 "/></g></g></g><g fill="#fef202" fill-opacity="1"><g transform="translate(815.65889, 777.167965)"><g><path d="M 4.125 0.140625 C 2.875 0.140625 1.957031 -0.203125 1.375 -0.890625 C 0.789062 -1.578125 0.5 -2.613281 0.5 -4 C 0.5 -6.59375 1.707031 -7.890625 4.125 -7.890625 C 5 -7.890625 5.703125 -7.707031 6.234375 -7.34375 C 6.765625 -6.976562 7.132812 -6.460938 7.34375 -5.796875 C 7.550781 -5.140625 7.609375 -4.378906 7.515625 -3.515625 C 7.492188 -3.359375 7.421875 -3.28125 7.296875 -3.28125 L 2.828125 -3.28125 C 2.835938 -2.8125 2.898438 -2.441406 3.015625 -2.171875 C 3.140625 -1.910156 3.296875 -1.726562 3.484375 -1.625 C 3.679688 -1.53125 3.898438 -1.484375 4.140625 -1.484375 C 4.503906 -1.484375 4.796875 -1.546875 5.015625 -1.671875 C 5.191406 -1.796875 5.328125 -1.910156 5.421875 -2.015625 C 5.523438 -2.128906 5.628906 -2.222656 5.734375 -2.296875 C 5.847656 -2.378906 6.003906 -2.421875 6.203125 -2.421875 C 6.566406 -2.421875 6.859375 -2.328125 7.078125 -2.140625 C 7.296875 -1.960938 7.351562 -1.710938 7.25 -1.390625 C 6.914062 -0.367188 5.875 0.140625 4.125 0.140625 Z M 2.84375 -4.609375 L 5.140625 -4.609375 C 5.160156 -5.171875 5.082031 -5.59375 4.90625 -5.875 C 4.726562 -6.15625 4.429688 -6.296875 4.015625 -6.296875 C 3.648438 -6.296875 3.359375 -6.15625 3.140625 -5.875 C 2.929688 -5.601562 2.832031 -5.179688 2.84375 -4.609375 Z M 2.84375 -4.609375 "/></g></g></g><g fill="#fef202" fill-opacity="1"><g transform="translate(823.777649, 777.167965)"><g><path d="M 5.28125 -7.875 C 5.414062 -7.851562 5.550781 -7.785156 5.6875 -7.671875 C 5.832031 -7.554688 5.953125 -7.363281 6.046875 -7.09375 C 6.085938 -6.9375 6.109375 -6.769531 6.109375 -6.59375 C 6.109375 -6.425781 6.085938 -6.265625 6.046875 -6.109375 C 5.953125 -5.742188 5.8125 -5.503906 5.625 -5.390625 C 5.4375 -5.273438 5.253906 -5.25 5.078125 -5.3125 C 4.890625 -5.363281 4.703125 -5.390625 4.515625 -5.390625 C 3.898438 -5.390625 3.460938 -5.003906 3.203125 -4.234375 L 3.203125 -3.890625 C 3.203125 -3.742188 3.195312 -3.585938 3.1875 -3.421875 C 3.1875 -3.265625 3.1875 -3.113281 3.1875 -2.96875 C 3.1875 -2.675781 3.1875 -2.382812 3.1875 -2.09375 C 3.195312 -1.8125 3.207031 -1.519531 3.21875 -1.21875 C 3.25 -0.40625 2.859375 0 2.046875 0 L 2.015625 0 C 1.210938 0 0.8125 -0.394531 0.8125 -1.1875 C 0.820312 -1.644531 0.828125 -2.09375 0.828125 -2.53125 C 0.835938 -2.976562 0.84375 -3.429688 0.84375 -3.890625 C 0.84375 -4.359375 0.835938 -4.8125 0.828125 -5.25 C 0.828125 -5.6875 0.820312 -6.132812 0.8125 -6.59375 C 0.8125 -7.382812 1.191406 -7.78125 1.953125 -7.78125 C 2.710938 -7.78125 3.09375 -7.484375 3.09375 -6.890625 L 3.09375 -5.96875 L 3.125 -5.9375 C 3.238281 -6.519531 3.453125 -6.992188 3.765625 -7.359375 C 4.078125 -7.722656 4.46875 -7.90625 4.9375 -7.90625 C 5.007812 -7.90625 5.070312 -7.898438 5.125 -7.890625 C 5.1875 -7.890625 5.238281 -7.882812 5.28125 -7.875 Z M 5.28125 -7.875 "/></g></g></g><g fill="#fef202" fill-opacity="1"><g transform="translate(829.901835, 777.167965)"><g><path d="M 4.03125 0.140625 C 3.5 0.140625 3.03125 0.03125 2.625 -0.1875 C 2.21875 -0.40625 1.875 -0.765625 1.59375 -1.265625 C 1.3125 -1.773438 1.09375 -2.457031 0.9375 -3.3125 C 0.78125 -4.164062 0.679688 -5.222656 0.640625 -6.484375 C 0.628906 -6.898438 0.726562 -7.21875 0.9375 -7.4375 C 1.15625 -7.65625 1.457031 -7.765625 1.84375 -7.765625 L 1.96875 -7.765625 C 2.757812 -7.765625 3.15625 -7.332031 3.15625 -6.46875 C 3.175781 -5.25 3.222656 -4.296875 3.296875 -3.609375 C 3.367188 -2.929688 3.476562 -2.457031 3.625 -2.1875 C 3.769531 -1.925781 3.960938 -1.796875 4.203125 -1.796875 C 4.390625 -1.796875 4.554688 -1.851562 4.703125 -1.96875 C 4.847656 -2.082031 4.960938 -2.296875 5.046875 -2.609375 C 5.140625 -2.929688 5.203125 -3.398438 5.234375 -4.015625 C 5.273438 -4.628906 5.285156 -5.4375 5.265625 -6.4375 C 5.242188 -7.320312 5.601562 -7.765625 6.34375 -7.765625 C 6.707031 -7.765625 6.984375 -7.507812 7.171875 -7 C 7.367188 -6.5 7.425781 -5.769531 7.34375 -4.8125 C 7.226562 -3.570312 7.03125 -2.585938 6.75 -1.859375 C 6.46875 -1.128906 6.097656 -0.613281 5.640625 -0.3125 C 5.179688 -0.0078125 4.644531 0.140625 4.03125 0.140625 Z M 4.03125 0.140625 "/></g></g></g><g fill="#fef202" fill-opacity="1"><g transform="translate(837.992518, 777.167965)"><g><path d="M 4.125 0.140625 C 2.875 0.140625 1.957031 -0.203125 1.375 -0.890625 C 0.789062 -1.578125 0.5 -2.613281 0.5 -4 C 0.5 -6.59375 1.707031 -7.890625 4.125 -7.890625 C 5 -7.890625 5.703125 -7.707031 6.234375 -7.34375 C 6.765625 -6.976562 7.132812 -6.460938 7.34375 -5.796875 C 7.550781 -5.140625 7.609375 -4.378906 7.515625 -3.515625 C 7.492188 -3.359375 7.421875 -3.28125 7.296875 -3.28125 L 2.828125 -3.28125 C 2.835938 -2.8125 2.898438 -2.441406 3.015625 -2.171875 C 3.140625 -1.910156 3.296875 -1.726562 3.484375 -1.625 C 3.679688 -1.53125 3.898438 -1.484375 4.140625 -1.484375 C 4.503906 -1.484375 4.796875 -1.546875 5.015625 -1.671875 C 5.191406 -1.796875 5.328125 -1.910156 5.421875 -2.015625 C 5.523438 -2.128906 5.628906 -2.222656 5.734375 -2.296875 C 5.847656 -2.378906 6.003906 -2.421875 6.203125 -2.421875 C 6.566406 -2.421875 6.859375 -2.328125 7.078125 -2.140625 C 7.296875 -1.960938 7.351562 -1.710938 7.25 -1.390625 C 6.914062 -0.367188 5.875 0.140625 4.125 0.140625 Z M 2.84375 -4.609375 L 5.140625 -4.609375 C 5.160156 -5.171875 5.082031 -5.59375 4.90625 -5.875 C 4.726562 -6.15625 4.429688 -6.296875 4.015625 -6.296875 C 3.648438 -6.296875 3.359375 -6.15625 3.140625 -5.875 C 2.929688 -5.601562 2.832031 -5.179688 2.84375 -4.609375 Z M 2.84375 -4.609375 "/></g></g></g><g fill="#fef202" fill-opacity="1"><g transform="translate(846.111277, 777.167965)"><g><path d="M 1.796875 0.140625 C 1.273438 0.140625 0.914062 0.0390625 0.71875 -0.15625 C 0.519531 -0.351562 0.421875 -0.710938 0.421875 -1.234375 C 0.421875 -1.753906 0.519531 -2.113281 0.71875 -2.3125 C 0.914062 -2.507812 1.273438 -2.609375 1.796875 -2.609375 C 2.316406 -2.609375 2.675781 -2.507812 2.875 -2.3125 C 3.070312 -2.113281 3.171875 -1.753906 3.171875 -1.234375 C 3.171875 -0.710938 3.070312 -0.351562 2.875 -0.15625 C 2.675781 0.0390625 2.316406 0.140625 1.796875 0.140625 Z M 1.796875 0.140625 "/></g></g></g></svg>