<svg xmlns="http://www.w3.org/2000/svg" xmlns:xlink="http://www.w3.org/1999/xlink" width="1920" zoomAndPan="magnify" viewBox="0 0 1440 299.999988" height="400" preserveAspectRatio="xMidYMid meet" version="1.0"><defs><g/><clipPath id="533ffef72c"><path d="M 120 28 L 232 28 L 232 272 L 120 272 Z M 120 28 " clip-rule="nonzero"/></clipPath><clipPath id="e04f712677"><path d="M 177.511719 285.761719 L 96.082031 257.335938 L 180.867188 14.460938 L 262.300781 42.886719 Z M 177.511719 285.761719 " clip-rule="nonzero"/></clipPath><clipPath id="e795eb5f2f"><path d="M 177.511719 285.761719 L 96.082031 257.335938 L 180.867188 14.460938 L 262.300781 42.886719 Z M 177.511719 285.761719 " clip-rule="nonzero"/></clipPath></defs><path fill="#5ce1e6" d="M 89.035156 220.558594 C 84.882812 220.558594 82.117188 219.171875 79.347656 216.40625 L 24.007812 161.0625 C 18.472656 155.53125 18.472656 147.226562 24.007812 141.695312 L 79.347656 86.351562 C 84.882812 80.816406 93.183594 80.816406 98.71875 86.351562 C 104.253906 91.886719 104.253906 100.1875 98.71875 105.722656 L 53.0625 151.378906 L 98.71875 197.035156 C 104.253906 202.570312 104.253906 210.871094 98.71875 216.40625 C 95.953125 219.171875 93.183594 220.558594 89.035156 220.558594 Z M 89.035156 220.558594 " fill-opacity="1" fill-rule="nonzero"/><path fill="#ff66c4" d="M 259.683594 224.078125 C 255.535156 224.078125 252.765625 222.695312 250 219.929688 C 244.464844 214.394531 244.464844 206.09375 250 200.558594 L 295.65625 154.902344 L 250 109.246094 C 244.464844 103.710938 244.464844 95.410156 250 89.875 C 255.535156 84.339844 263.835938 84.339844 269.371094 89.875 L 324.710938 145.21875 C 330.246094 150.75 330.246094 159.054688 324.710938 164.585938 L 269.371094 219.929688 C 266.601562 222.695312 263.835938 224.078125 259.683594 224.078125 Z M 259.683594 224.078125 " fill-opacity="1" fill-rule="nonzero"/><g clip-path="url(#533ffef72c)"><g clip-path="url(#e04f712677)"><g clip-path="url(#e795eb5f2f)"><path fill="#ffd632" d="M 221.851562 79.171875 L 185.222656 184.085938 L 183.59375 188.757812 L 151.414062 177.523438 L 153.046875 172.851562 L 166.585938 134.066406 L 161.027344 122.542969 L 144.503906 169.867188 L 141.222656 179.269531 L 139.890625 183.085938 L 144.082031 184.546875 L 148.433594 186.066406 L 180.609375 197.300781 L 184.910156 198.800781 L 189.207031 200.300781 L 190.539062 196.484375 L 193.820312 187.085938 L 231.234375 79.914062 L 227.867188 62.105469 L 223.832031 40.871094 L 221.429688 28.582031 L 212.03125 36.691406 L 195.65625 50.800781 L 181.9375 62.644531 L 167.871094 102.933594 L 168.886719 105.035156 L 173.429688 114.457031 L 184.796875 138.011719 L 189.015625 125.925781 L 177.652344 102.371094 L 189.671875 67.9375 L 206.046875 53.828125 L 215.449219 45.71875 L 217.757812 57.914062 Z M 146.585938 227.609375 L 153.75 207.085938 L 137.257812 201.328125 L 133.070312 199.867188 L 122.21875 196.078125 L 120.6875 185.960938 L 136.910156 191.625 L 145.453125 194.605469 L 158.933594 199.3125 L 161.566406 200.234375 L 164.199219 201.152344 L 177.628906 205.839844 L 186.171875 208.824219 L 202.394531 214.484375 L 194.898438 221.453125 L 184.425781 217.796875 L 179.859375 216.199219 L 163.367188 210.445312 L 156.203125 230.964844 L 153.859375 237.679688 L 148.777344 252.238281 C 148.550781 252.882812 148.273438 253.507812 148.101562 254.171875 C 150.671875 256.996094 151.601562 261.058594 150.269531 264.871094 C 148.339844 270.40625 142.25 273.34375 136.664062 271.394531 C 131.078125 269.441406 128.140625 263.355469 130.089844 257.769531 C 131.421875 253.953125 134.734375 251.375 138.449219 250.742188 C 138.675781 250.097656 138.898438 249.453125 139.125 248.808594 L 144.207031 234.25 L 146.53125 227.589844 Z M 146.585938 227.609375 " fill-opacity="1" fill-rule="evenodd"/></g></g></g><g fill="#5ce1e6" fill-opacity="1"><g transform="translate(360.745516, 221.374136)"><g><path d="M 121.4375 -3.46875 C 121.4375 -1.15625 114.550781 0 100.78125 0 C 87.019531 0 80.140625 -1.15625 80.140625 -3.46875 L 80.140625 -50.5 L 51.515625 -50.5 L 51.515625 -3.46875 C 51.515625 -1.15625 44.628906 0 30.859375 0 C 17.097656 0 10.21875 -1.15625 10.21875 -3.46875 L 10.21875 -139.03125 C 10.21875 -141.894531 17.097656 -143.328125 30.859375 -143.328125 C 44.628906 -143.328125 51.515625 -141.894531 51.515625 -139.03125 L 51.515625 -90.984375 L 80.140625 -90.984375 L 80.140625 -138.625 C 80.140625 -140.53125 83.550781 -141.890625 90.375 -142.703125 C 93.914062 -142.984375 97.390625 -143.125 100.796875 -143.125 L 111.21875 -142.703125 C 118.03125 -141.890625 121.4375 -140.53125 121.4375 -138.625 Z M 121.4375 -3.46875 "/></g></g></g><g fill="#5ce1e6" fill-opacity="1"><g transform="translate(492.416702, 221.374136)"><g><path d="M 22.078125 -74.21875 C 18.265625 -81.03125 16.359375 -86.582031 16.359375 -90.875 C 16.359375 -95.164062 17.515625 -97.925781 19.828125 -99.15625 C 27.597656 -102.5625 38.265625 -104.265625 51.828125 -104.265625 C 65.390625 -104.265625 74.960938 -101.09375 80.546875 -94.75 C 86.140625 -88.414062 88.9375 -79.050781 88.9375 -66.65625 L 88.9375 -34.34375 L 95.890625 -34.34375 C 98.203125 -34.34375 100.003906 -32.976562 101.296875 -30.25 C 102.597656 -27.53125 103.25 -23.785156 103.25 -19.015625 C 103.25 -14.242188 102.054688 -9.539062 99.671875 -4.90625 C 97.285156 -0.269531 94.046875 2.046875 89.953125 2.046875 C 82.597656 2.046875 76.671875 0.0664062 72.171875 -3.890625 C 70.128906 -5.523438 68.5625 -7.5 67.46875 -9.8125 C 61.195312 -1.90625 51.453125 2.046875 38.234375 2.046875 C 28.285156 2.046875 19.898438 -1.492188 13.078125 -8.578125 C 6.265625 -15.671875 2.859375 -24.054688 2.859375 -33.734375 C 2.859375 -55.953125 16.148438 -67.0625 42.734375 -67.0625 L 53.96875 -67.0625 L 53.96875 -69.109375 C 53.96875 -72.648438 53.390625 -74.929688 52.234375 -75.953125 C 51.078125 -76.972656 48.382812 -77.484375 44.15625 -77.484375 C 38.976562 -77.484375 31.617188 -76.394531 22.078125 -74.21875 Z M 38.4375 -36.59375 C 38.4375 -33.59375 39.253906 -31.304688 40.890625 -29.734375 C 42.523438 -28.171875 44.601562 -27.390625 47.125 -27.390625 C 49.644531 -27.390625 51.925781 -28.414062 53.96875 -30.46875 L 53.96875 -46.203125 L 48.25 -46.203125 C 41.707031 -46.203125 38.4375 -43 38.4375 -36.59375 Z M 38.4375 -36.59375 "/></g></g></g><g fill="#5ce1e6" fill-opacity="1"><g transform="translate(598.121673, 221.374136)"><g><path d="M 42.734375 -50.703125 C 42.734375 -37.347656 47.773438 -30.671875 57.859375 -30.671875 C 64.398438 -30.671875 69.851562 -31.960938 74.21875 -34.546875 C 76.257812 -34.546875 77.925781 -31.035156 79.21875 -24.015625 C 80.519531 -17.003906 81.171875 -12.234375 81.171875 -9.703125 C 81.171875 -7.179688 80.828125 -5.515625 80.140625 -4.703125 C 72.921875 -0.203125 63.039062 2.046875 50.5 2.046875 C 37.957031 2.046875 27.289062 -2.617188 18.5 -11.953125 C 9.707031 -21.296875 5.3125 -34.039062 5.3125 -50.1875 C 5.3125 -66.34375 9.640625 -79.394531 18.296875 -89.34375 C 26.953125 -99.289062 38.46875 -104.265625 52.84375 -104.265625 C 67.226562 -104.265625 77.210938 -100.789062 82.796875 -93.84375 C 84.023438 -92.34375 84.640625 -90.125 84.640625 -87.1875 C 84.640625 -84.257812 84.097656 -80.6875 83.015625 -76.46875 C 80.554688 -67.738281 77.351562 -62.695312 73.40625 -61.34375 C 72.851562 -61.195312 72.066406 -61.125 71.046875 -61.125 C 70.023438 -61.125 68.765625 -61.941406 67.265625 -63.578125 C 61.953125 -68.898438 57.691406 -71.5625 54.484375 -71.5625 C 51.285156 -71.5625 48.523438 -69.925781 46.203125 -66.65625 C 43.890625 -63.382812 42.734375 -58.066406 42.734375 -50.703125 Z M 42.734375 -50.703125 "/></g></g></g><g fill="#5ce1e6" fill-opacity="1"><g transform="translate(684.812018, 221.374136)"><g><path d="M 9.203125 -141.484375 C 9.203125 -143.660156 15.40625 -144.75 27.8125 -144.75 C 39.394531 -144.34375 45.1875 -143.457031 45.1875 -142.09375 L 45.1875 -63.578125 L 65.421875 -101 C 66.378906 -103.039062 72.171875 -104.0625 82.796875 -104.0625 C 93.429688 -104.0625 100.25 -103.378906 103.25 -102.015625 L 76.671875 -58.671875 L 107.34375 -1.234375 C 107.613281 -0.679688 105.054688 -0.238281 99.671875 0.09375 C 94.285156 0.4375 89.820312 0.609375 86.28125 0.609375 C 73.195312 0.609375 66.175781 -0.00390625 65.21875 -1.234375 L 44.984375 -46.609375 L 44.984375 -1.4375 C 44.984375 0.34375 39.019531 1.234375 27.09375 1.234375 C 15.164062 1.234375 9.203125 0.410156 9.203125 -1.234375 Z M 9.203125 -141.484375 "/></g></g></g><g fill="#a6e6f2" fill-opacity="1"><g transform="translate(793.383184, 221.374136)"><g/></g></g><g fill="#ff66c4" fill-opacity="1"><g transform="translate(831.833416, 221.374136)"><g><path d="M 106.3125 0.40625 C 94.457031 0.40625 88.050781 -1.5 87.09375 -5.3125 L 80.34375 -31.6875 L 47.84375 -31.6875 L 41.90625 -6.34375 C 41.09375 -2.113281 34.550781 0 22.28125 0 C 15.738281 0 10.898438 -0.375 7.765625 -1.125 C 4.628906 -1.875 3.0625 -2.453125 3.0625 -2.859375 L 39.25 -141.28125 C 39.25 -142.363281 48.585938 -142.90625 67.265625 -142.90625 C 85.941406 -142.90625 95.28125 -142.363281 95.28125 -141.28125 L 130.640625 -2.65625 C 130.640625 -1.707031 127.503906 -0.957031 121.234375 -0.40625 C 114.960938 0.132812 109.988281 0.40625 106.3125 0.40625 Z M 52.953125 -57.65625 L 74.421875 -57.65625 L 65.21875 -99.984375 L 64 -99.984375 Z M 52.953125 -57.65625 "/></g></g></g><g fill="#ff66c4" fill-opacity="1"><g transform="translate(965.753653, 221.374136)"><g><path d="M 56.21875 -1.234375 C 56.21875 0.410156 50.492188 1.234375 39.046875 1.234375 C 25.421875 0.679688 18.609375 -0.207031 18.609375 -1.4375 L 18.609375 -73.8125 L 8.171875 -73.8125 C 5.453125 -73.8125 4.09375 -78.515625 4.09375 -87.921875 C 4.09375 -90.367188 4.328125 -93.363281 4.796875 -96.90625 C 5.273438 -100.457031 6.265625 -102.234375 7.765625 -102.234375 L 18.609375 -102.234375 L 18.609375 -120.21875 C 18.609375 -122.945312 24.363281 -124.3125 35.875 -124.3125 C 47.394531 -124.3125 53.15625 -123.21875 53.15625 -121.03125 L 53.15625 -107.953125 L 53.359375 -102.234375 L 70.734375 -102.234375 C 73.054688 -102.234375 74.21875 -97.460938 74.21875 -87.921875 C 74.21875 -78.378906 73.054688 -73.609375 70.734375 -73.609375 L 56.21875 -73.609375 Z M 56.21875 -1.234375 "/></g></g></g><g fill="#ff66c4" fill-opacity="1"><g transform="translate(1040.99433, 221.374136)"><g><path d="M 56.21875 -1.234375 C 56.21875 0.410156 50.492188 1.234375 39.046875 1.234375 C 25.421875 0.679688 18.609375 -0.207031 18.609375 -1.4375 L 18.609375 -73.8125 L 8.171875 -73.8125 C 5.453125 -73.8125 4.09375 -78.515625 4.09375 -87.921875 C 4.09375 -90.367188 4.328125 -93.363281 4.796875 -96.90625 C 5.273438 -100.457031 6.265625 -102.234375 7.765625 -102.234375 L 18.609375 -102.234375 L 18.609375 -120.21875 C 18.609375 -122.945312 24.363281 -124.3125 35.875 -124.3125 C 47.394531 -124.3125 53.15625 -123.21875 53.15625 -121.03125 L 53.15625 -107.953125 L 53.359375 -102.234375 L 70.734375 -102.234375 C 73.054688 -102.234375 74.21875 -97.460938 74.21875 -87.921875 C 74.21875 -78.378906 73.054688 -73.609375 70.734375 -73.609375 L 56.21875 -73.609375 Z M 56.21875 -1.234375 "/></g></g></g><g fill="#ff66c4" fill-opacity="1"><g transform="translate(1116.235007, 221.374136)"><g><path d="M 22.078125 -74.21875 C 18.265625 -81.03125 16.359375 -86.582031 16.359375 -90.875 C 16.359375 -95.164062 17.515625 -97.925781 19.828125 -99.15625 C 27.597656 -102.5625 38.265625 -104.265625 51.828125 -104.265625 C 65.390625 -104.265625 74.960938 -101.09375 80.546875 -94.75 C 86.140625 -88.414062 88.9375 -79.050781 88.9375 -66.65625 L 88.9375 -34.34375 L 95.890625 -34.34375 C 98.203125 -34.34375 100.003906 -32.976562 101.296875 -30.25 C 102.597656 -27.53125 103.25 -23.785156 103.25 -19.015625 C 103.25 -14.242188 102.054688 -9.539062 99.671875 -4.90625 C 97.285156 -0.269531 94.046875 2.046875 89.953125 2.046875 C 82.597656 2.046875 76.671875 0.0664062 72.171875 -3.890625 C 70.128906 -5.523438 68.5625 -7.5 67.46875 -9.8125 C 61.195312 -1.90625 51.453125 2.046875 38.234375 2.046875 C 28.285156 2.046875 19.898438 -1.492188 13.078125 -8.578125 C 6.265625 -15.671875 2.859375 -24.054688 2.859375 -33.734375 C 2.859375 -55.953125 16.148438 -67.0625 42.734375 -67.0625 L 53.96875 -67.0625 L 53.96875 -69.109375 C 53.96875 -72.648438 53.390625 -74.929688 52.234375 -75.953125 C 51.078125 -76.972656 48.382812 -77.484375 44.15625 -77.484375 C 38.976562 -77.484375 31.617188 -76.394531 22.078125 -74.21875 Z M 38.4375 -36.59375 C 38.4375 -33.59375 39.253906 -31.304688 40.890625 -29.734375 C 42.523438 -28.171875 44.601562 -27.390625 47.125 -27.390625 C 49.644531 -27.390625 51.925781 -28.414062 53.96875 -30.46875 L 53.96875 -46.203125 L 48.25 -46.203125 C 41.707031 -46.203125 38.4375 -43 38.4375 -36.59375 Z M 38.4375 -36.59375 "/></g></g></g><g fill="#ff66c4" fill-opacity="1"><g transform="translate(1221.939979, 221.374136)"><g><path d="M 42.734375 -50.703125 C 42.734375 -37.347656 47.773438 -30.671875 57.859375 -30.671875 C 64.398438 -30.671875 69.851562 -31.960938 74.21875 -34.546875 C 76.257812 -34.546875 77.925781 -31.035156 79.21875 -24.015625 C 80.519531 -17.003906 81.171875 -12.234375 81.171875 -9.703125 C 81.171875 -7.179688 80.828125 -5.515625 80.140625 -4.703125 C 72.921875 -0.203125 63.039062 2.046875 50.5 2.046875 C 37.957031 2.046875 27.289062 -2.617188 18.5 -11.953125 C 9.707031 -21.296875 5.3125 -34.039062 5.3125 -50.1875 C 5.3125 -66.34375 9.640625 -79.394531 18.296875 -89.34375 C 26.953125 -99.289062 38.46875 -104.265625 52.84375 -104.265625 C 67.226562 -104.265625 77.210938 -100.789062 82.796875 -93.84375 C 84.023438 -92.34375 84.640625 -90.125 84.640625 -87.1875 C 84.640625 -84.257812 84.097656 -80.6875 83.015625 -76.46875 C 80.554688 -67.738281 77.351562 -62.695312 73.40625 -61.34375 C 72.851562 -61.195312 72.066406 -61.125 71.046875 -61.125 C 70.023438 -61.125 68.765625 -61.941406 67.265625 -63.578125 C 61.953125 -68.898438 57.691406 -71.5625 54.484375 -71.5625 C 51.285156 -71.5625 48.523438 -69.925781 46.203125 -66.65625 C 43.890625 -63.382812 42.734375 -58.066406 42.734375 -50.703125 Z M 42.734375 -50.703125 "/></g></g></g><g fill="#ff66c4" fill-opacity="1"><g transform="translate(1308.630348, 221.374136)"><g><path d="M 9.203125 -141.484375 C 9.203125 -143.660156 15.40625 -144.75 27.8125 -144.75 C 39.394531 -144.34375 45.1875 -143.457031 45.1875 -142.09375 L 45.1875 -63.578125 L 65.421875 -101 C 66.378906 -103.039062 72.171875 -104.0625 82.796875 -104.0625 C 93.429688 -104.0625 100.25 -103.378906 103.25 -102.015625 L 76.671875 -58.671875 L 107.34375 -1.234375 C 107.613281 -0.679688 105.054688 -0.238281 99.671875 0.09375 C 94.285156 0.4375 89.820312 0.609375 86.28125 0.609375 C 73.195312 0.609375 66.175781 -0.00390625 65.21875 -1.234375 L 44.984375 -46.609375 L 44.984375 -1.4375 C 44.984375 0.34375 39.019531 1.234375 27.09375 1.234375 C 15.164062 1.234375 9.203125 0.410156 9.203125 -1.234375 Z M 9.203125 -141.484375 "/></g></g></g></svg>