<svg xmlns="http://www.w3.org/2000/svg" xmlns:xlink="http://www.w3.org/1999/xlink" width="1920" zoomAndPan="magnify" viewBox="0 0 1440 809.999993" height="1080" preserveAspectRatio="xMidYMid meet" version="1.0"><defs><g/><clipPath id="aa38f610a8"><path d="M 833 238 L 1060.921875 238 L 1060.921875 572 L 833 572 Z M 833 238 " clip-rule="nonzero"/></clipPath></defs><g clip-path="url(#aa38f610a8)"><path fill="#000000" d="M 1060.917969 407.769531 L 902.417969 247.753906 C 871.800781 216.84375 808.929688 274.015625 845.808594 309.984375 L 946.085938 407.769531 L 842.574219 503.945312 C 811.054688 533.230469 869.441406 593.328125 900.800781 562.941406 Z M 1060.917969 407.769531 " fill-opacity="1" fill-rule="nonzero"/></g><g fill="#3d2597" fill-opacity="1"><g transform="translate(379.344479, 443.280398)"><g><path d="M 17.234375 0.953125 C 15.492188 0.953125 14.164062 0.472656 13.25 -0.484375 C 12.34375 -1.441406 11.890625 -2.832031 11.890625 -4.65625 L 11.890625 -91.625 C 11.890625 -93.445312 12.34375 -94.859375 13.25 -95.859375 C 14.164062 -96.859375 15.351562 -97.359375 16.8125 -97.359375 C 18.28125 -97.359375 19.351562 -97.109375 20.03125 -96.609375 C 20.71875 -96.109375 21.515625 -95.222656 22.421875 -93.953125 L 82.046875 -14.5 L 78.765625 -14.5 L 78.765625 -91.890625 C 78.765625 -93.628906 79.21875 -94.972656 80.125 -95.921875 C 81.039062 -96.878906 82.363281 -97.359375 84.09375 -97.359375 C 85.738281 -97.359375 86.992188 -96.878906 87.859375 -95.921875 C 88.722656 -94.972656 89.15625 -93.628906 89.15625 -91.890625 L 89.15625 -4.515625 C 89.15625 -2.785156 88.769531 -1.441406 88 -0.484375 C 87.226562 0.472656 86.109375 0.953125 84.640625 0.953125 C 83.273438 0.953125 82.179688 0.675781 81.359375 0.125 C 80.546875 -0.414062 79.679688 -1.28125 78.765625 -2.46875 L 19.28125 -81.90625 L 22.421875 -81.90625 L 22.421875 -4.65625 C 22.421875 -2.832031 21.960938 -1.441406 21.046875 -0.484375 C 20.140625 0.472656 18.867188 0.953125 17.234375 0.953125 Z M 17.234375 0.953125 "/></g></g></g><g fill="#3d2597" fill-opacity="1"><g transform="translate(480.537539, 443.280398)"><g><path d="M 18.046875 0 C 16.046875 0 14.519531 -0.519531 13.46875 -1.5625 C 12.414062 -2.613281 11.890625 -4.144531 11.890625 -6.15625 L 11.890625 -90.25 C 11.890625 -92.257812 12.414062 -93.785156 13.46875 -94.828125 C 14.519531 -95.878906 16.046875 -96.40625 18.046875 -96.40625 L 68.921875 -96.40625 C 70.472656 -96.40625 71.65625 -95.992188 72.46875 -95.171875 C 73.289062 -94.359375 73.703125 -93.222656 73.703125 -91.765625 C 73.703125 -90.210938 73.289062 -89.023438 72.46875 -88.203125 C 71.65625 -87.378906 70.472656 -86.96875 68.921875 -86.96875 L 22.84375 -86.96875 L 22.84375 -53.609375 L 66.046875 -53.609375 C 67.597656 -53.609375 68.785156 -53.21875 69.609375 -52.4375 C 70.429688 -51.664062 70.84375 -50.503906 70.84375 -48.953125 C 70.84375 -47.398438 70.429688 -46.210938 69.609375 -45.390625 C 68.785156 -44.578125 67.597656 -44.171875 66.046875 -44.171875 L 22.84375 -44.171875 L 22.84375 -9.4375 L 68.921875 -9.4375 C 70.472656 -9.4375 71.65625 -9.023438 72.46875 -8.203125 C 73.289062 -7.378906 73.703125 -6.238281 73.703125 -4.78125 C 73.703125 -3.238281 73.289062 -2.054688 72.46875 -1.234375 C 71.65625 -0.410156 70.472656 0 68.921875 0 Z M 18.046875 0 "/></g></g></g><g fill="#3d2597" fill-opacity="1"><g transform="translate(560.261246, 443.280398)"><g><path d="M 10.671875 0.953125 C 9.117188 0.953125 7.863281 0.546875 6.90625 -0.265625 C 5.945312 -1.085938 5.398438 -2.09375 5.265625 -3.28125 C 5.128906 -4.46875 5.5625 -5.65625 6.5625 -6.84375 L 39.65625 -51.421875 L 39.65625 -47.171875 L 8.484375 -89.296875 C 7.472656 -90.660156 7.015625 -91.9375 7.109375 -93.125 C 7.203125 -94.3125 7.726562 -95.3125 8.6875 -96.125 C 9.644531 -96.945312 10.804688 -97.359375 12.171875 -97.359375 C 13.441406 -97.359375 14.53125 -97.082031 15.4375 -96.53125 C 16.351562 -95.988281 17.316406 -95.035156 18.328125 -93.671875 L 46.359375 -55.25 L 42.796875 -55.25 L 70.703125 -93.671875 C 71.609375 -95.035156 72.515625 -95.988281 73.421875 -96.53125 C 74.335938 -97.082031 75.4375 -97.359375 76.71875 -97.359375 C 78.175781 -97.359375 79.382812 -96.972656 80.34375 -96.203125 C 81.300781 -95.429688 81.820312 -94.425781 81.90625 -93.1875 C 82 -91.957031 81.546875 -90.660156 80.546875 -89.296875 L 49.359375 -47.171875 L 49.359375 -51.421875 L 82.453125 -6.84375 C 83.367188 -5.65625 83.757812 -4.46875 83.625 -3.28125 C 83.488281 -2.09375 82.960938 -1.085938 82.046875 -0.265625 C 81.140625 0.546875 79.910156 0.953125 78.359375 0.953125 C 77.171875 0.953125 76.097656 0.65625 75.140625 0.0625 C 74.179688 -0.53125 73.203125 -1.460938 72.203125 -2.734375 L 42.25 -43.625 L 46.625 -43.625 L 16.6875 -2.734375 C 15.769531 -1.460938 14.8125 -0.53125 13.8125 0.0625 C 12.8125 0.65625 11.765625 0.953125 10.671875 0.953125 Z M 10.671875 0.953125 "/></g></g></g><g fill="#3d2597" fill-opacity="1"><g transform="translate(649.14705, 443.280398)"><g><path d="M 41.15625 0.953125 C 39.425781 0.953125 38.0625 0.429688 37.0625 -0.609375 C 36.0625 -1.660156 35.5625 -3.097656 35.5625 -4.921875 L 35.5625 -86.703125 L 4.78125 -86.703125 C 3.144531 -86.703125 1.867188 -87.15625 0.953125 -88.0625 C 0.046875 -88.976562 -0.40625 -90.164062 -0.40625 -91.625 C -0.40625 -93.175781 0.046875 -94.359375 0.953125 -95.171875 C 1.867188 -95.992188 3.144531 -96.40625 4.78125 -96.40625 L 77.671875 -96.40625 C 79.316406 -96.40625 80.59375 -95.992188 81.5 -95.171875 C 82.414062 -94.359375 82.875 -93.175781 82.875 -91.625 C 82.875 -90.070312 82.414062 -88.863281 81.5 -88 C 80.59375 -87.132812 79.316406 -86.703125 77.671875 -86.703125 L 46.90625 -86.703125 L 46.90625 -4.921875 C 46.90625 -3.097656 46.425781 -1.660156 45.46875 -0.609375 C 44.507812 0.429688 43.070312 0.953125 41.15625 0.953125 Z M 41.15625 0.953125 "/></g></g></g></svg>