<svg xmlns="http://www.w3.org/2000/svg" xmlns:xlink="http://www.w3.org/1999/xlink" width="1920" zoomAndPan="magnify" viewBox="0 0 1440 809.999993" height="1080" preserveAspectRatio="xMidYMid meet" version="1.0"><defs><filter x="0%" y="0%" width="100%" height="100%" id="73fc13bbb8"><feColorMatrix values="0 0 0 0 1 0 0 0 0 1 0 0 0 0 1 0 0 0 1 0" color-interpolation-filters="sRGB"/></filter><mask id="50a3138ead"><g filter="url(#73fc13bbb8)"><rect x="-144" width="1728" fill="#000000" y="-80.999999" height="971.999992" fill-opacity="0.8"/></g></mask><clipPath id="434095c822"><path d="M 0 6 L 1440 6 L 1440 344 L 0 344 Z M 0 6 " clip-rule="nonzero"/></clipPath><clipPath id="0d585ce1ff"><path d="M 0 0.707031 L 1440 0.707031 L 1440 344 L 0 344 Z M 0 0.707031 " clip-rule="nonzero"/></clipPath><clipPath id="a15f4624ea"><rect x="0" width="1440" y="0" height="344"/></clipPath></defs><g mask="url(#50a3138ead)"><g transform="matrix(1, 0, 0, 1, 0, 466)"><g clip-path="url(#a15f4624ea)"><g clip-path="url(#434095c822)"><path fill="#ffffff" d="M -11.023438 6.042969 L 1442.210938 6.042969 L 1442.210938 795.621094 L -11.023438 795.621094 Z M -11.023438 6.042969 " fill-opacity="1" fill-rule="nonzero"/></g><g clip-path="url(#0d585ce1ff)"><path fill="#070404" d="M 1442.210938 800.957031 L -11.023438 800.957031 C -14.007812 800.957031 -16.355469 798.609375 -16.355469 795.621094 L -16.355469 6.042969 C -16.355469 3.054688 -14.007812 0.707031 -11.023438 0.707031 L 1442.210938 0.707031 C 1445.195312 0.707031 1447.542969 3.054688 1447.542969 6.042969 L 1447.542969 795.621094 C 1447.542969 798.609375 1445.195312 800.957031 1442.210938 800.957031 Z M -5.6875 790.285156 L 1436.875 790.285156 L 1436.875 11.375 L -5.6875 11.375 Z M -5.6875 790.285156 " fill-opacity="1" fill-rule="nonzero"/></g></g></g></g></svg>