<svg xmlns="http://www.w3.org/2000/svg" xmlns:xlink="http://www.w3.org/1999/xlink" width="1920" zoomAndPan="magnify" viewBox="0 0 1440 809.999993" height="1080" preserveAspectRatio="xMidYMid meet" version="1.0"><defs><g/><clipPath id="e04eb84930"><path d="M 213.085938 282.632812 L 1226.902344 282.632812 L 1226.902344 526.65625 L 213.085938 526.65625 Z M 213.085938 282.632812 " clip-rule="nonzero"/></clipPath><clipPath id="9f6254a647"><path d="M 214 282.632812 L 1226.902344 282.632812 L 1226.902344 526.65625 L 214 526.65625 Z M 214 282.632812 " clip-rule="nonzero"/></clipPath></defs><g clip-path="url(#e04eb84930)"><path fill="#000000" d="M 226.261719 514.179688 C 214.988281 502.910156 213.085938 482.886719 213.085938 442.269531 L 213.085938 382.101562 C 213.085938 341.484375 214.988281 321.460938 226.261719 310.191406 C 228.773438 307.679688 231.71875 305.632812 235.226562 303.96875 L 235.261719 303.953125 L 265.652344 289.585938 L 265.683594 289.570312 C 277.933594 283.78125 297.054688 282.632812 328.59375 282.632812 L 1141.820312 282.632812 C 1182.4375 282.632812 1202.457031 284.535156 1213.730469 295.808594 C 1215.457031 297.53125 1216.960938 299.460938 1218.273438 301.640625 C 1225.539062 313.6875 1226.902344 333.316406 1226.902344 367.710938 L 1226.902344 427.871094 C 1226.902344 468.484375 1225 488.507812 1213.730469 499.777344 C 1211.226562 502.277344 1208.292969 504.320312 1204.796875 505.980469 C 1204.785156 505.984375 1204.777344 505.992188 1204.765625 505.996094 L 1174.507812 520.371094 L 1174.472656 520.386719 L 1174.441406 520.402344 C 1162.191406 526.207031 1143.0625 527.355469 1111.492188 527.355469 L 298.179688 527.355469 C 257.558594 527.355469 237.535156 525.453125 226.261719 514.179688 Z M 226.261719 514.179688 " fill-opacity="1" fill-rule="nonzero"/></g><path fill="#ff3131" d="M 328.59375 284.214844 C 251.152344 284.214844 245.09375 290.273438 245.09375 367.710938 L 245.09375 427.871094 C 245.09375 505.308594 251.152344 511.371094 328.59375 511.371094 L 1141.820312 511.371094 C 1219.261719 511.371094 1225.324219 505.308594 1225.324219 427.871094 L 1225.324219 367.710938 C 1225.324219 290.273438 1219.261719 284.214844 1141.820312 284.214844 Z M 328.59375 284.214844 " fill-opacity="1" fill-rule="nonzero"/><g clip-path="url(#9f6254a647)"><path stroke-linecap="butt" transform="matrix(-0.218307, 0, 0, 0.218307, 1226.903608, 282.634225)" fill="none" stroke-linejoin="miter" d="M 4114.898325 7.240359 C 4469.635067 7.240359 4497.387737 34.993029 4497.387737 389.711878 L 4497.387737 665.288199 C 4497.387737 1020.007048 4469.635067 1047.777612 4114.898325 1047.777612 L 389.742035 1047.777612 C 35.005292 1047.777612 7.234729 1020.007048 7.234729 665.288199 L 7.234729 389.711878 C 7.234729 34.993029 35.005292 7.240359 389.742035 7.240359 Z M 4114.898325 7.240359 " stroke="#000000" stroke-width="10" stroke-opacity="1" stroke-miterlimit="10"/></g><g fill="#000000" fill-opacity="1"><g transform="translate(299.60211, 431.235405)"><g><path d="M 47.09375 -45.1875 C 47.09375 -39.144531 44.484375 -34.554688 39.265625 -31.421875 C 42.109375 -30.378906 44.488281 -28.582031 46.40625 -26.03125 C 48.320312 -23.476562 49.28125 -19.863281 49.28125 -15.1875 C 49.28125 -10.519531 47.550781 -6.820312 44.09375 -4.09375 C 40.644531 -1.363281 35.695312 0 29.25 0 L 8.703125 0 C 7.710938 0 6.898438 -0.332031 6.265625 -1 C 5.628906 -1.664062 5.3125 -2.550781 5.3125 -3.65625 L 5.3125 -59.375 C 5.3125 -60.007812 5.410156 -60.425781 5.609375 -60.625 C 5.816406 -60.832031 6.238281 -60.9375 6.875 -60.9375 L 26.734375 -60.9375 C 40.304688 -60.9375 47.09375 -55.6875 47.09375 -45.1875 Z M 22.03125 -46.84375 L 22.03125 -35.4375 L 22.46875 -35.4375 C 28.03125 -35.4375 30.8125 -37.289062 30.8125 -41 C 30.8125 -43.03125 30.273438 -44.507812 29.203125 -45.4375 C 28.128906 -46.375 26.347656 -46.84375 23.859375 -46.84375 Z M 22.03125 -25.15625 L 22.03125 -13.84375 L 23.59375 -13.84375 C 26.09375 -13.84375 27.921875 -14.304688 29.078125 -15.234375 C 30.234375 -16.160156 30.8125 -17.640625 30.8125 -19.671875 C 30.8125 -21.703125 30.273438 -23.125 29.203125 -23.9375 C 28.128906 -24.75 26.347656 -25.15625 23.859375 -25.15625 Z M 22.03125 -25.15625 "/></g></g></g><g fill="#000000" fill-opacity="1"><g transform="translate(351.310834, 431.235405)"><g><path d="M 18.203125 0.265625 C 18.203125 0.671875 15.457031 0.875 9.96875 0.875 C 4.476562 0.875 1.734375 0.695312 1.734375 0.34375 L 1.734375 -15.328125 C 1.734375 -15.847656 4.476562 -16.109375 9.96875 -16.109375 C 15.457031 -16.109375 18.203125 -15.960938 18.203125 -15.671875 Z M 18.203125 0.265625 "/></g></g></g><g fill="#000000" fill-opacity="1"><g transform="translate(371.245673, 431.235405)"><g/></g></g><g fill="#000000" fill-opacity="1"><g transform="translate(387.611401, 431.235405)"><g><path d="M 22.640625 15.84375 C 22.640625 16.25 20.15625 16.453125 15.1875 16.453125 C 10.226562 16.453125 7.75 16.25 7.75 15.84375 L 7.75 -28.984375 L 4.78125 -28.984375 C 3.394531 -28.984375 2.441406 -30.265625 1.921875 -32.828125 C 1.742188 -33.640625 1.65625 -34.679688 1.65625 -35.953125 C 1.65625 -37.234375 2.0625 -38.742188 2.875 -40.484375 C 4.03125 -43.035156 5.882812 -44.3125 8.4375 -44.3125 C 10.125 -44.3125 11.675781 -43.921875 13.09375 -43.140625 C 14.519531 -42.359375 15.507812 -41.632812 16.0625 -40.96875 C 16.613281 -40.300781 16.890625 -39.90625 16.890625 -39.78125 C 20.773438 -42.800781 24.984375 -44.3125 29.515625 -44.3125 C 34.046875 -44.3125 37.9375 -42.554688 41.1875 -39.046875 C 44.4375 -35.535156 46.0625 -30.109375 46.0625 -22.765625 C 46.0625 -15.421875 44.4375 -9.734375 41.1875 -5.703125 C 37.9375 -1.671875 33.8125 0.34375 28.8125 0.34375 C 26.550781 0.34375 24.492188 0.226562 22.640625 0 Z M 26.203125 -29.078125 C 25.210938 -29.078125 24.253906 -28.757812 23.328125 -28.125 L 23.328125 -12.71875 C 24.316406 -12.59375 25.113281 -12.53125 25.71875 -12.53125 C 26.332031 -12.53125 26.8125 -12.53125 27.15625 -12.53125 C 29.539062 -12.769531 30.734375 -15.816406 30.734375 -21.671875 C 30.734375 -26.609375 29.222656 -29.078125 26.203125 -29.078125 Z M 26.203125 -29.078125 "/></g></g></g><g fill="#000000" fill-opacity="1"><g transform="translate(435.9251, 431.235405)"><g><path d="M 22.984375 -0.09375 C 22.984375 0.3125 20.34375 0.515625 15.0625 0.515625 C 9.78125 0.398438 7.140625 0.171875 7.140625 -0.171875 L 7.140625 -29.078125 L 4.78125 -29.078125 C 3.851562 -29.078125 3.113281 -29.640625 2.5625 -30.765625 C 2.007812 -31.898438 1.734375 -33.3125 1.734375 -35 C 1.734375 -41.269531 3.59375 -44.40625 7.3125 -44.40625 C 9.925781 -44.40625 12.101562 -43.601562 13.84375 -42 C 15.582031 -40.40625 16.453125 -38.59375 16.453125 -36.5625 C 17.671875 -38.945312 19.3125 -40.847656 21.375 -42.265625 C 23.4375 -43.691406 25.539062 -44.40625 27.6875 -44.40625 C 31.050781 -44.40625 33.082031 -43.535156 33.78125 -41.796875 C 33.957031 -41.328125 34.046875 -40.640625 34.046875 -39.734375 C 34.046875 -38.835938 33.769531 -37.226562 33.21875 -34.90625 C 32.664062 -32.582031 32.097656 -30.898438 31.515625 -29.859375 C 30.929688 -28.816406 30.582031 -28.296875 30.46875 -28.296875 C 30.351562 -28.296875 29.816406 -28.507812 28.859375 -28.9375 C 27.898438 -29.375 27.046875 -29.59375 26.296875 -29.59375 C 24.085938 -29.59375 22.984375 -27.851562 22.984375 -24.375 Z M 22.984375 -0.09375 "/></g></g></g><g fill="#000000" fill-opacity="1"><g transform="translate(470.397583, 431.235405)"><g><path d="M 19.84375 -0.515625 C 19.84375 -0.0546875 17.1875 0.171875 11.875 0.171875 C 6.570312 0.171875 3.921875 -0.03125 3.921875 -0.4375 L 3.921875 -43.1875 C 3.921875 -43.59375 6.570312 -43.796875 11.875 -43.796875 C 17.1875 -43.796875 19.84375 -43.617188 19.84375 -43.265625 Z M 19.84375 -48.40625 C 19.84375 -48 17.1875 -47.796875 11.875 -47.796875 C 6.570312 -47.796875 3.921875 -47.96875 3.921875 -48.3125 L 3.921875 -60.859375 C 3.921875 -61.441406 6.570312 -61.734375 11.875 -61.734375 C 17.1875 -61.734375 19.84375 -61.554688 19.84375 -61.203125 Z M 19.84375 -48.40625 "/></g></g></g><g fill="#000000" fill-opacity="1"><g transform="translate(494.162704, 431.235405)"><g><path d="M 22.109375 -0.515625 C 22.109375 -0.109375 20.019531 0.09375 15.84375 0.09375 C 10.039062 -0.0820312 7.140625 -0.40625 7.140625 -0.875 L 7.140625 -29.078125 L 4.875 -29.078125 C 3.363281 -29.078125 2.378906 -30.351562 1.921875 -32.90625 C 1.796875 -33.664062 1.734375 -34.421875 1.734375 -35.171875 C 1.734375 -36.972656 2.082031 -38.773438 2.78125 -40.578125 C 3.832031 -43.128906 5.457031 -44.40625 7.65625 -44.40625 C 9.863281 -44.40625 11.835938 -43.878906 13.578125 -42.828125 C 15.316406 -41.785156 16.476562 -40.742188 17.0625 -39.703125 C 20.71875 -42.835938 25.070312 -44.40625 30.125 -44.40625 C 35.175781 -44.40625 38.832031 -43.039062 41.09375 -40.3125 C 43.351562 -37.582031 44.484375 -33.113281 44.484375 -26.90625 L 44.484375 -0.78125 C 44.484375 -0.0820312 42 0.265625 37.03125 0.265625 C 32.070312 0.265625 29.59375 -0.0820312 29.59375 -0.78125 L 29.59375 -25.9375 C 29.59375 -28.84375 28.578125 -30.296875 26.546875 -30.296875 C 25.972656 -30.296875 25.160156 -30.046875 24.109375 -29.546875 C 23.066406 -29.054688 22.398438 -28.695312 22.109375 -28.46875 Z M 22.109375 -0.515625 "/></g></g></g><g fill="#000000" fill-opacity="1"><g transform="translate(542.128203, 431.235405)"><g><path d="M 23.9375 -0.515625 C 23.9375 0.171875 21.5 0.515625 16.625 0.515625 C 10.820312 0.285156 7.921875 -0.0859375 7.921875 -0.609375 L 7.921875 -31.421875 L 3.484375 -31.421875 C 2.316406 -31.421875 1.734375 -33.425781 1.734375 -37.4375 C 1.734375 -38.476562 1.832031 -39.753906 2.03125 -41.265625 C 2.238281 -42.773438 2.664062 -43.53125 3.3125 -43.53125 L 7.921875 -43.53125 L 7.921875 -51.1875 C 7.921875 -52.351562 10.375 -52.9375 15.28125 -52.9375 C 20.1875 -52.9375 22.640625 -52.472656 22.640625 -51.546875 L 22.640625 -45.96875 L 22.71875 -43.53125 L 30.125 -43.53125 C 31.113281 -43.53125 31.609375 -41.5 31.609375 -37.4375 C 31.609375 -33.375 31.113281 -31.34375 30.125 -31.34375 L 23.9375 -31.34375 Z M 23.9375 -0.515625 "/></g></g></g><g fill="#000000" fill-opacity="1"><g transform="translate(574.163231, 431.235405)"><g><path d="M 16.546875 -58.859375 C 17.179688 -60.015625 18.164062 -60.59375 19.5 -60.59375 C 21.53125 -60.59375 23.210938 -60.332031 24.546875 -59.8125 C 25.878906 -59.289062 26.878906 -58.898438 27.546875 -58.640625 C 28.222656 -58.378906 28.9375 -58.015625 29.6875 -57.546875 C 26.90625 -51.390625 24.832031 -46.078125 23.46875 -41.609375 C 22.101562 -37.140625 21.421875 -32.296875 21.421875 -27.078125 C 21.472656 -17.035156 24.316406 -7.195312 29.953125 2.4375 C 29.367188 3.019531 28.25 3.6875 26.59375 4.4375 C 24.9375 5.195312 23.660156 5.707031 22.765625 5.96875 C 21.867188 6.226562 21.128906 6.359375 20.546875 6.359375 C 18.453125 6.359375 17 5.515625 16.1875 3.828125 C 10.90625 -6.847656 8.265625 -17.4375 8.265625 -27.9375 C 8.265625 -38.445312 11.023438 -48.753906 16.546875 -58.859375 Z M 16.546875 -58.859375 "/></g></g></g><g fill="#000000" fill-opacity="1"><g transform="translate(611.595455, 431.235405)"><g><path d="M 7.75 -40.828125 L 7.75 -59.203125 C 7.75 -60.304688 8.503906 -61.0625 10.015625 -61.46875 C 10.765625 -61.644531 11.53125 -61.734375 12.3125 -61.734375 C 13.101562 -61.734375 14.109375 -61.570312 15.328125 -61.25 C 16.546875 -60.925781 17.300781 -60.242188 17.59375 -59.203125 L 22.8125 -40.828125 C 22.8125 -39.785156 21.5625 -39.03125 19.0625 -38.5625 C 17.84375 -38.332031 16.59375 -38.21875 15.3125 -38.21875 C 14.039062 -38.21875 12.769531 -38.332031 11.5 -38.5625 C 9 -39.03125 7.75 -39.785156 7.75 -40.828125 Z M 27.765625 -40.828125 L 27.765625 -59.203125 C 27.765625 -60.304688 28.519531 -61.0625 30.03125 -61.46875 C 30.789062 -61.644531 31.5625 -61.734375 32.34375 -61.734375 C 33.125 -61.734375 34.125 -61.570312 35.34375 -61.25 C 36.5625 -60.925781 37.316406 -60.242188 37.609375 -59.203125 L 42.828125 -40.828125 C 42.828125 -39.785156 41.582031 -39.03125 39.09375 -38.5625 C 37.875 -38.332031 36.625 -38.21875 35.34375 -38.21875 C 34.070312 -38.21875 32.796875 -38.332031 31.515625 -38.5625 C 29.015625 -39.03125 27.765625 -39.785156 27.765625 -40.828125 Z M 27.765625 -40.828125 "/></g></g></g><g fill="#000000" fill-opacity="1"><g transform="translate(660.692611, 431.235405)"><g><path d="M 23.9375 -0.515625 C 23.9375 0.171875 21.5 0.515625 16.625 0.515625 C 10.820312 0.285156 7.921875 -0.0859375 7.921875 -0.609375 L 7.921875 -31.421875 L 3.484375 -31.421875 C 2.316406 -31.421875 1.734375 -33.425781 1.734375 -37.4375 C 1.734375 -38.476562 1.832031 -39.753906 2.03125 -41.265625 C 2.238281 -42.773438 2.664062 -43.53125 3.3125 -43.53125 L 7.921875 -43.53125 L 7.921875 -51.1875 C 7.921875 -52.351562 10.375 -52.9375 15.28125 -52.9375 C 20.1875 -52.9375 22.640625 -52.472656 22.640625 -51.546875 L 22.640625 -45.96875 L 22.71875 -43.53125 L 30.125 -43.53125 C 31.113281 -43.53125 31.609375 -41.5 31.609375 -37.4375 C 31.609375 -33.375 31.113281 -31.34375 30.125 -31.34375 L 23.9375 -31.34375 Z M 23.9375 -0.515625 "/></g></g></g><g fill="#000000" fill-opacity="1"><g transform="translate(692.727639, 431.235405)"><g><path d="M 36.828125 -2.34375 C 33.171875 -0.195312 28.46875 0.875 22.71875 0.875 C 16.976562 0.875 12.132812 -1.082031 8.1875 -5 C 4.238281 -8.925781 2.265625 -14.351562 2.265625 -21.28125 C 2.265625 -28.21875 4.164062 -33.804688 7.96875 -38.046875 C 11.769531 -42.285156 16.570312 -44.40625 22.375 -44.40625 C 28.175781 -44.40625 32.660156 -42.921875 35.828125 -39.953125 C 38.992188 -36.992188 40.578125 -33.398438 40.578125 -29.171875 C 40.578125 -19.765625 35.175781 -15.0625 24.375 -15.0625 L 18.375 -15.0625 C 18.375 -13.320312 18.851562 -12.117188 19.8125 -11.453125 C 20.769531 -10.785156 22.175781 -10.453125 24.03125 -10.453125 C 28.09375 -10.453125 31.953125 -11.378906 35.609375 -13.234375 C 35.671875 -13.296875 35.929688 -12.890625 36.390625 -12.015625 C 37.785156 -9.515625 38.484375 -7.410156 38.484375 -5.703125 C 38.484375 -3.992188 37.929688 -2.875 36.828125 -2.34375 Z M 25.9375 -27.515625 C 25.9375 -29.953125 24.75 -31.171875 22.375 -31.171875 C 21.269531 -31.171875 20.328125 -30.835938 19.546875 -30.171875 C 18.765625 -29.503906 18.375 -28.53125 18.375 -27.25 L 18.375 -24.546875 L 23.078125 -24.546875 C 24.984375 -24.546875 25.9375 -25.535156 25.9375 -27.515625 Z M 25.9375 -27.515625 "/></g></g></g><g fill="#000000" fill-opacity="1"><g transform="translate(735.034773, 431.235405)"><g><path d="M 30.03125 -43.265625 C 30.269531 -43.734375 31.722656 -43.96875 34.390625 -43.96875 C 43.097656 -43.96875 47.332031 -43.648438 47.09375 -43.015625 L 36.484375 -20.984375 C 43.617188 -7.628906 47.1875 -0.953125 47.1875 -0.953125 C 47.1875 -0.609375 45.441406 -0.316406 41.953125 -0.078125 C 38.472656 0.148438 36.007812 0.265625 34.5625 0.265625 C 30.90625 0.265625 28.960938 -0.113281 28.734375 -0.875 L 24.03125 -15.40625 L 18.625 -0.265625 C 18.507812 0.140625 16.851562 0.34375 13.65625 0.34375 C 10.46875 0.34375 7.625 0.226562 5.125 0 C 2.632812 -0.226562 1.503906 -0.519531 1.734375 -0.875 L 11.578125 -20.890625 C 4.734375 -35.234375 1.3125 -42.429688 1.3125 -42.484375 C 1.3125 -42.835938 2.191406 -43.15625 3.953125 -43.4375 C 5.722656 -43.726562 7.726562 -43.875 9.96875 -43.875 C 12.207031 -43.875 14.34375 -43.769531 16.375 -43.5625 C 18.40625 -43.363281 19.535156 -43.09375 19.765625 -42.75 L 24.375 -28.640625 Z M 30.03125 -43.265625 "/></g></g></g><g fill="#000000" fill-opacity="1"><g transform="translate(783.522611, 431.235405)"><g><path d="M 23.9375 -0.515625 C 23.9375 0.171875 21.5 0.515625 16.625 0.515625 C 10.820312 0.285156 7.921875 -0.0859375 7.921875 -0.609375 L 7.921875 -31.421875 L 3.484375 -31.421875 C 2.316406 -31.421875 1.734375 -33.425781 1.734375 -37.4375 C 1.734375 -38.476562 1.832031 -39.753906 2.03125 -41.265625 C 2.238281 -42.773438 2.664062 -43.53125 3.3125 -43.53125 L 7.921875 -43.53125 L 7.921875 -51.1875 C 7.921875 -52.351562 10.375 -52.9375 15.28125 -52.9375 C 20.1875 -52.9375 22.640625 -52.472656 22.640625 -51.546875 L 22.640625 -45.96875 L 22.71875 -43.53125 L 30.125 -43.53125 C 31.113281 -43.53125 31.609375 -41.5 31.609375 -37.4375 C 31.609375 -33.375 31.113281 -31.34375 30.125 -31.34375 L 23.9375 -31.34375 Z M 23.9375 -0.515625 "/></g></g></g><g fill="#000000" fill-opacity="1"><g transform="translate(815.557667, 431.235405)"><g><path d="M 15.9375 -40.828125 C 15.644531 -39.785156 14.890625 -39.101562 13.671875 -38.78125 C 12.453125 -38.46875 11.445312 -38.3125 10.65625 -38.3125 C 9.875 -38.3125 9.109375 -38.394531 8.359375 -38.5625 C 6.847656 -38.96875 6.09375 -39.722656 6.09375 -40.828125 L 6.09375 -59.203125 C 6.09375 -60.242188 7.34375 -61 9.84375 -61.46875 C 11.0625 -61.695312 12.304688 -61.8125 13.578125 -61.8125 C 14.859375 -61.8125 16.132812 -61.695312 17.40625 -61.46875 C 19.90625 -61 21.15625 -60.242188 21.15625 -59.203125 Z M 35.609375 -40.828125 C 35.316406 -39.785156 34.5625 -39.101562 33.34375 -38.78125 C 32.125 -38.46875 31.125 -38.3125 30.34375 -38.3125 C 29.5625 -38.3125 28.789062 -38.394531 28.03125 -38.5625 C 26.519531 -38.96875 25.765625 -39.722656 25.765625 -40.828125 L 25.765625 -59.203125 C 25.765625 -60.242188 27.015625 -61 29.515625 -61.46875 C 30.734375 -61.695312 31.976562 -61.8125 33.25 -61.8125 C 34.53125 -61.8125 35.8125 -61.695312 37.09375 -61.46875 C 39.582031 -61 40.828125 -60.242188 40.828125 -59.203125 Z M 35.609375 -40.828125 "/></g></g></g><g fill="#000000" fill-opacity="1"><g transform="translate(861.695055, 431.235405)"><g><path d="M 21.671875 -58.859375 C 27.191406 -48.753906 29.953125 -38.445312 29.953125 -27.9375 C 29.953125 -17.4375 27.3125 -6.847656 22.03125 3.828125 C 21.15625 5.515625 19.703125 6.359375 17.671875 6.359375 C 16.453125 6.359375 14.941406 5.953125 13.140625 5.140625 C 10.472656 3.921875 8.847656 3.019531 8.265625 2.4375 C 13.898438 -7.195312 16.742188 -17.035156 16.796875 -27.078125 C 16.796875 -32.296875 16.113281 -37.140625 14.75 -41.609375 C 13.394531 -46.078125 11.320312 -51.390625 8.53125 -57.546875 C 8.53125 -57.660156 9.488281 -58.125 11.40625 -58.9375 C 14.132812 -60.101562 16.3125 -60.6875 17.9375 -60.6875 C 19.5625 -60.6875 20.804688 -60.078125 21.671875 -58.859375 Z M 21.671875 -58.859375 "/></g></g></g></svg>