<svg xmlns="http://www.w3.org/2000/svg" xmlns:xlink="http://www.w3.org/1999/xlink" width="1920" zoomAndPan="magnify" viewBox="0 0 1440 809.999993" height="1080" preserveAspectRatio="xMidYMid meet" version="1.0"><defs><g/><clipPath id="3bb70515cf"><path d="M 216 323 L 297 323 L 297 499 L 216 499 Z M 216 323 " clip-rule="nonzero"/></clipPath><clipPath id="eb59afff11"><path d="M 257.410156 508.433594 L 199.046875 488.058594 L 260.171875 312.96875 L 318.535156 333.34375 Z M 257.410156 508.433594 " clip-rule="nonzero"/></clipPath><clipPath id="d5c78426cb"><path d="M 257.410156 508.433594 L 199.046875 488.058594 L 260.171875 312.96875 L 318.535156 333.34375 Z M 257.410156 508.433594 " clip-rule="nonzero"/></clipPath></defs><path fill="#3d2597" d="M 194.367188 461.472656 C 191.375 461.472656 189.382812 460.472656 187.386719 458.480469 L 147.492188 418.585938 C 143.503906 414.597656 143.503906 408.613281 147.492188 404.621094 L 187.386719 364.730469 C 191.375 360.738281 197.359375 360.738281 201.347656 364.730469 C 205.339844 368.71875 205.339844 374.703125 201.347656 378.691406 L 168.4375 411.605469 L 201.347656 444.515625 C 205.339844 448.503906 205.339844 454.488281 201.347656 458.480469 C 199.355469 460.472656 197.359375 461.472656 194.367188 461.472656 Z M 194.367188 461.472656 " fill-opacity="1" fill-rule="nonzero"/><path fill="#ff5757" d="M 316.636719 464.011719 C 313.644531 464.011719 311.648438 463.011719 309.652344 461.019531 C 305.664062 457.027344 305.664062 451.046875 309.652344 447.054688 L 342.566406 414.144531 L 309.652344 381.230469 C 305.664062 377.242188 305.664062 371.257812 309.652344 367.269531 C 313.644531 363.28125 319.628906 363.28125 323.617188 367.269531 L 363.507812 407.164062 C 367.5 411.152344 367.5 417.136719 363.507812 421.125 L 323.617188 461.019531 C 321.621094 463.011719 319.628906 464.011719 316.636719 464.011719 Z M 316.636719 464.011719 " fill-opacity="1" fill-rule="nonzero"/><g clip-path="url(#3bb70515cf)"><g clip-path="url(#eb59afff11)"><g clip-path="url(#d5c78426cb)"><path fill="#fdbe0e" d="M 289.363281 359.542969 L 262.96875 435.15625 L 261.792969 438.523438 L 238.601562 430.425781 L 239.777344 427.058594 L 249.539062 399.105469 L 245.53125 390.800781 L 233.625 424.910156 L 231.257812 431.683594 L 230.296875 434.433594 L 233.320312 435.488281 L 236.453125 436.582031 L 259.644531 444.679688 L 262.742188 445.761719 L 265.839844 446.839844 L 266.796875 444.09375 L 269.164062 437.316406 L 296.128906 360.082031 L 293.703125 347.246094 L 290.792969 331.941406 L 289.0625 323.085938 L 282.289062 328.929688 L 270.484375 339.097656 L 260.601562 347.636719 L 250.464844 376.671875 L 251.195312 378.1875 L 254.46875 384.976562 L 262.660156 401.949219 L 265.703125 393.238281 L 257.511719 376.265625 L 266.175781 351.449219 L 277.976562 341.28125 L 284.75 335.4375 L 286.417969 344.226562 Z M 235.125 466.523438 L 240.285156 451.734375 L 228.402344 447.582031 L 225.382812 446.53125 L 217.5625 443.800781 L 216.457031 436.507812 L 228.148438 440.589844 L 234.304688 442.738281 L 244.023438 446.132812 L 245.921875 446.792969 L 247.816406 447.457031 L 257.496094 450.835938 L 263.652344 452.984375 L 275.34375 457.066406 L 269.941406 462.085938 L 262.394531 459.449219 L 259.101562 458.300781 L 247.214844 454.152344 L 242.054688 468.941406 L 240.363281 473.78125 L 236.703125 484.273438 C 236.539062 484.738281 236.339844 485.1875 236.214844 485.664062 C 238.066406 487.703125 238.738281 490.628906 237.777344 493.378906 C 236.386719 497.367188 232 499.484375 227.972656 498.078125 C 223.945312 496.671875 221.832031 492.285156 223.234375 488.257812 C 224.195312 485.507812 226.582031 483.648438 229.261719 483.195312 C 229.421875 482.730469 229.585938 482.265625 229.746094 481.800781 L 233.410156 471.308594 L 235.085938 466.507812 Z M 235.125 466.523438 " fill-opacity="1" fill-rule="evenodd"/></g></g></g><g fill="#3d2597" fill-opacity="1"><g transform="translate(389.500943, 468.248347)"><g><path d="M 93.25 -2.671875 C 93.25 -0.890625 87.960938 0 77.390625 0 C 66.816406 0 61.53125 -0.890625 61.53125 -2.671875 L 61.53125 -38.78125 L 39.5625 -38.78125 L 39.5625 -2.671875 C 39.5625 -0.890625 34.273438 0 23.703125 0 C 13.128906 0 7.84375 -0.890625 7.84375 -2.671875 L 7.84375 -106.75 C 7.84375 -108.945312 13.128906 -110.046875 23.703125 -110.046875 C 34.273438 -110.046875 39.5625 -108.945312 39.5625 -106.75 L 39.5625 -69.859375 L 61.53125 -69.859375 L 61.53125 -106.4375 C 61.53125 -107.90625 64.148438 -108.953125 69.390625 -109.578125 C 72.109375 -109.785156 74.773438 -109.890625 77.390625 -109.890625 L 85.40625 -109.578125 C 90.632812 -108.953125 93.25 -107.90625 93.25 -106.4375 Z M 93.25 -2.671875 "/></g></g></g><g fill="#3d2597" fill-opacity="1"><g transform="translate(490.598569, 468.248347)"><g><path d="M 16.953125 -56.984375 C 14.023438 -62.210938 12.5625 -66.472656 12.5625 -69.765625 C 12.5625 -73.066406 13.453125 -75.191406 15.234375 -76.140625 C 21.191406 -78.753906 29.378906 -80.0625 39.796875 -80.0625 C 50.210938 -80.0625 57.5625 -77.628906 61.84375 -72.765625 C 66.132812 -67.898438 68.28125 -60.703125 68.28125 -51.171875 L 68.28125 -26.375 L 73.625 -26.375 C 75.40625 -26.375 76.789062 -25.328125 77.78125 -23.234375 C 78.78125 -21.140625 79.28125 -18.257812 79.28125 -14.59375 C 79.28125 -10.9375 78.363281 -7.328125 76.53125 -3.765625 C 74.695312 -0.210938 72.210938 1.5625 69.078125 1.5625 C 63.421875 1.5625 58.867188 0.046875 55.421875 -2.984375 C 53.847656 -4.234375 52.644531 -5.75 51.8125 -7.53125 C 46.988281 -1.46875 39.503906 1.5625 29.359375 1.5625 C 21.710938 1.5625 15.273438 -1.15625 10.046875 -6.59375 C 4.816406 -12.03125 2.203125 -18.46875 2.203125 -25.90625 C 2.203125 -42.957031 12.40625 -51.484375 32.8125 -51.484375 L 41.4375 -51.484375 L 41.4375 -53.0625 C 41.4375 -55.78125 40.992188 -57.53125 40.109375 -58.3125 C 39.222656 -59.101562 37.15625 -59.5 33.90625 -59.5 C 29.925781 -59.5 24.273438 -58.660156 16.953125 -56.984375 Z M 29.515625 -28.09375 C 29.515625 -25.789062 30.140625 -24.035156 31.390625 -22.828125 C 32.648438 -21.628906 34.25 -21.03125 36.1875 -21.03125 C 38.125 -21.03125 39.875 -21.816406 41.4375 -23.390625 L 41.4375 -35.484375 L 37.046875 -35.484375 C 32.023438 -35.484375 29.515625 -33.019531 29.515625 -28.09375 Z M 29.515625 -28.09375 "/></g></g></g><g fill="#3d2597" fill-opacity="1"><g transform="translate(571.759247, 468.248347)"><g><path d="M 32.8125 -38.9375 C 32.8125 -28.675781 36.679688 -23.546875 44.421875 -23.546875 C 49.453125 -23.546875 53.640625 -24.539062 56.984375 -26.53125 C 58.554688 -26.53125 59.835938 -23.832031 60.828125 -18.4375 C 61.828125 -13.050781 62.328125 -9.390625 62.328125 -7.453125 C 62.328125 -5.515625 62.0625 -4.234375 61.53125 -3.609375 C 55.988281 -0.160156 48.398438 1.5625 38.765625 1.5625 C 29.140625 1.5625 20.953125 -2.019531 14.203125 -9.1875 C 7.453125 -16.351562 4.078125 -26.132812 4.078125 -38.53125 C 4.078125 -50.9375 7.398438 -60.957031 14.046875 -68.59375 C 20.691406 -76.238281 29.535156 -80.0625 40.578125 -80.0625 C 51.617188 -80.0625 59.285156 -77.394531 63.578125 -72.0625 C 64.515625 -70.90625 64.984375 -69.203125 64.984375 -66.953125 C 64.984375 -64.703125 64.566406 -61.957031 63.734375 -58.71875 C 61.847656 -52.019531 59.390625 -48.144531 56.359375 -47.09375 C 55.941406 -46.988281 55.335938 -46.9375 54.546875 -46.9375 C 53.765625 -46.9375 52.796875 -47.566406 51.640625 -48.828125 C 47.566406 -52.898438 44.296875 -54.9375 41.828125 -54.9375 C 39.367188 -54.9375 37.25 -53.679688 35.46875 -51.171875 C 33.695312 -48.660156 32.8125 -44.582031 32.8125 -38.9375 Z M 32.8125 -38.9375 "/></g></g></g><g fill="#3d2597" fill-opacity="1"><g transform="translate(638.320394, 468.248347)"><g><path d="M 7.0625 -108.640625 C 7.0625 -110.304688 11.820312 -111.140625 21.34375 -111.140625 C 30.238281 -110.828125 34.6875 -110.148438 34.6875 -109.109375 L 34.6875 -48.828125 L 50.234375 -77.546875 C 50.960938 -79.117188 55.410156 -79.90625 63.578125 -79.90625 C 71.742188 -79.90625 76.976562 -79.378906 79.28125 -78.328125 L 58.875 -45.046875 L 82.421875 -0.9375 C 82.628906 -0.519531 80.664062 -0.179688 76.53125 0.078125 C 72.394531 0.335938 68.96875 0.46875 66.25 0.46875 C 56.195312 0.46875 50.804688 0 50.078125 -0.9375 L 34.53125 -35.796875 L 34.53125 -1.09375 C 34.53125 0.257812 29.953125 0.9375 20.796875 0.9375 C 11.640625 0.9375 7.0625 0.3125 7.0625 -0.9375 Z M 7.0625 -108.640625 "/></g></g></g><g fill="#a6e6f2" fill-opacity="1"><g transform="translate(721.683578, 468.248347)"><g/></g></g><g fill="#ff5757" fill-opacity="1"><g transform="translate(751.212967, 468.248347)"><g><path d="M 81.625 0.3125 C 72.519531 0.3125 67.601562 -1.148438 66.875 -4.078125 L 61.6875 -24.328125 L 36.734375 -24.328125 L 32.1875 -4.859375 C 31.550781 -1.617188 26.523438 0 17.109375 0 C 12.085938 0 8.375 -0.285156 5.96875 -0.859375 C 3.5625 -1.441406 2.359375 -1.890625 2.359375 -2.203125 L 30.140625 -108.46875 C 30.140625 -109.3125 37.304688 -109.734375 51.640625 -109.734375 C 65.984375 -109.734375 73.15625 -109.3125 73.15625 -108.46875 L 100.3125 -2.046875 C 100.3125 -1.304688 97.90625 -0.726562 93.09375 -0.3125 C 88.28125 0.101562 84.457031 0.3125 81.625 0.3125 Z M 40.65625 -44.265625 L 57.140625 -44.265625 L 50.078125 -76.765625 L 49.140625 -76.765625 Z M 40.65625 -44.265625 "/></g></g></g><g fill="#ff5757" fill-opacity="1"><g transform="translate(854.037418, 468.248347)"><g><path d="M 43.171875 -0.9375 C 43.171875 0.3125 38.773438 0.9375 29.984375 0.9375 C 19.515625 0.519531 14.28125 -0.15625 14.28125 -1.09375 L 14.28125 -56.671875 L 6.28125 -56.671875 C 4.1875 -56.671875 3.140625 -60.28125 3.140625 -67.5 C 3.140625 -69.382812 3.320312 -71.6875 3.6875 -74.40625 C 4.050781 -77.125 4.8125 -78.484375 5.96875 -78.484375 L 14.28125 -78.484375 L 14.28125 -92.3125 C 14.28125 -94.40625 18.703125 -95.453125 27.546875 -95.453125 C 36.390625 -95.453125 40.8125 -94.613281 40.8125 -92.9375 L 40.8125 -82.890625 L 40.96875 -78.484375 L 54.3125 -78.484375 C 56.09375 -78.484375 56.984375 -74.820312 56.984375 -67.5 C 56.984375 -60.175781 56.09375 -56.515625 54.3125 -56.515625 L 43.171875 -56.515625 Z M 43.171875 -0.9375 "/></g></g></g><g fill="#ff5757" fill-opacity="1"><g transform="translate(911.807501, 468.248347)"><g><path d="M 43.171875 -0.9375 C 43.171875 0.3125 38.773438 0.9375 29.984375 0.9375 C 19.515625 0.519531 14.28125 -0.15625 14.28125 -1.09375 L 14.28125 -56.671875 L 6.28125 -56.671875 C 4.1875 -56.671875 3.140625 -60.28125 3.140625 -67.5 C 3.140625 -69.382812 3.320312 -71.6875 3.6875 -74.40625 C 4.050781 -77.125 4.8125 -78.484375 5.96875 -78.484375 L 14.28125 -78.484375 L 14.28125 -92.3125 C 14.28125 -94.40625 18.703125 -95.453125 27.546875 -95.453125 C 36.390625 -95.453125 40.8125 -94.613281 40.8125 -92.9375 L 40.8125 -82.890625 L 40.96875 -78.484375 L 54.3125 -78.484375 C 56.09375 -78.484375 56.984375 -74.820312 56.984375 -67.5 C 56.984375 -60.175781 56.09375 -56.515625 54.3125 -56.515625 L 43.171875 -56.515625 Z M 43.171875 -0.9375 "/></g></g></g><g fill="#ff5757" fill-opacity="1"><g transform="translate(969.577585, 468.248347)"><g><path d="M 16.953125 -56.984375 C 14.023438 -62.210938 12.5625 -66.472656 12.5625 -69.765625 C 12.5625 -73.066406 13.453125 -75.191406 15.234375 -76.140625 C 21.191406 -78.753906 29.378906 -80.0625 39.796875 -80.0625 C 50.210938 -80.0625 57.5625 -77.628906 61.84375 -72.765625 C 66.132812 -67.898438 68.28125 -60.703125 68.28125 -51.171875 L 68.28125 -26.375 L 73.625 -26.375 C 75.40625 -26.375 76.789062 -25.328125 77.78125 -23.234375 C 78.78125 -21.140625 79.28125 -18.257812 79.28125 -14.59375 C 79.28125 -10.9375 78.363281 -7.328125 76.53125 -3.765625 C 74.695312 -0.210938 72.210938 1.5625 69.078125 1.5625 C 63.421875 1.5625 58.867188 0.046875 55.421875 -2.984375 C 53.847656 -4.234375 52.644531 -5.75 51.8125 -7.53125 C 46.988281 -1.46875 39.503906 1.5625 29.359375 1.5625 C 21.710938 1.5625 15.273438 -1.15625 10.046875 -6.59375 C 4.816406 -12.03125 2.203125 -18.46875 2.203125 -25.90625 C 2.203125 -42.957031 12.40625 -51.484375 32.8125 -51.484375 L 41.4375 -51.484375 L 41.4375 -53.0625 C 41.4375 -55.78125 40.992188 -57.53125 40.109375 -58.3125 C 39.222656 -59.101562 37.15625 -59.5 33.90625 -59.5 C 29.925781 -59.5 24.273438 -58.660156 16.953125 -56.984375 Z M 29.515625 -28.09375 C 29.515625 -25.789062 30.140625 -24.035156 31.390625 -22.828125 C 32.648438 -21.628906 34.25 -21.03125 36.1875 -21.03125 C 38.125 -21.03125 39.875 -21.816406 41.4375 -23.390625 L 41.4375 -35.484375 L 37.046875 -35.484375 C 32.023438 -35.484375 29.515625 -33.019531 29.515625 -28.09375 Z M 29.515625 -28.09375 "/></g></g></g><g fill="#ff5757" fill-opacity="1"><g transform="translate(1050.738262, 468.248347)"><g><path d="M 32.8125 -38.9375 C 32.8125 -28.675781 36.679688 -23.546875 44.421875 -23.546875 C 49.453125 -23.546875 53.640625 -24.539062 56.984375 -26.53125 C 58.554688 -26.53125 59.835938 -23.832031 60.828125 -18.4375 C 61.828125 -13.050781 62.328125 -9.390625 62.328125 -7.453125 C 62.328125 -5.515625 62.0625 -4.234375 61.53125 -3.609375 C 55.988281 -0.160156 48.398438 1.5625 38.765625 1.5625 C 29.140625 1.5625 20.953125 -2.019531 14.203125 -9.1875 C 7.453125 -16.351562 4.078125 -26.132812 4.078125 -38.53125 C 4.078125 -50.9375 7.398438 -60.957031 14.046875 -68.59375 C 20.691406 -76.238281 29.535156 -80.0625 40.578125 -80.0625 C 51.617188 -80.0625 59.285156 -77.394531 63.578125 -72.0625 C 64.515625 -70.90625 64.984375 -69.203125 64.984375 -66.953125 C 64.984375 -64.703125 64.566406 -61.957031 63.734375 -58.71875 C 61.847656 -52.019531 59.390625 -48.144531 56.359375 -47.09375 C 55.941406 -46.988281 55.335938 -46.9375 54.546875 -46.9375 C 53.765625 -46.9375 52.796875 -47.566406 51.640625 -48.828125 C 47.566406 -52.898438 44.296875 -54.9375 41.828125 -54.9375 C 39.367188 -54.9375 37.25 -53.679688 35.46875 -51.171875 C 33.695312 -48.660156 32.8125 -44.582031 32.8125 -38.9375 Z M 32.8125 -38.9375 "/></g></g></g><g fill="#ff5757" fill-opacity="1"><g transform="translate(1117.299409, 468.248347)"><g><path d="M 7.0625 -108.640625 C 7.0625 -110.304688 11.820312 -111.140625 21.34375 -111.140625 C 30.238281 -110.828125 34.6875 -110.148438 34.6875 -109.109375 L 34.6875 -48.828125 L 50.234375 -77.546875 C 50.960938 -79.117188 55.410156 -79.90625 63.578125 -79.90625 C 71.742188 -79.90625 76.976562 -79.378906 79.28125 -78.328125 L 58.875 -45.046875 L 82.421875 -0.9375 C 82.628906 -0.519531 80.664062 -0.179688 76.53125 0.078125 C 72.394531 0.335938 68.96875 0.46875 66.25 0.46875 C 56.195312 0.46875 50.804688 0 50.078125 -0.9375 L 34.53125 -35.796875 L 34.53125 -1.09375 C 34.53125 0.257812 29.953125 0.9375 20.796875 0.9375 C 11.640625 0.9375 7.0625 0.3125 7.0625 -0.9375 Z M 7.0625 -108.640625 "/></g></g></g></svg>