<svg xmlns="http://www.w3.org/2000/svg" xmlns:xlink="http://www.w3.org/1999/xlink" width="1920" zoomAndPan="magnify" viewBox="0 0 1440 809.999993" height="1080" preserveAspectRatio="xMidYMid meet" version="1.0"><defs><g/><clipPath id="8efcf58111"><path d="M 270.15625 296.410156 L 1169.835938 296.410156 L 1169.835938 512.960938 L 270.15625 512.960938 Z M 270.15625 296.410156 " clip-rule="nonzero"/></clipPath><clipPath id="210fe35fbf"><path d="M 271 296.410156 L 1169.835938 296.410156 L 1169.835938 512.960938 L 271 512.960938 Z M 271 296.410156 " clip-rule="nonzero"/></clipPath></defs><g clip-path="url(#8efcf58111)"><path fill="#000000" d="M 281.847656 501.890625 C 271.84375 491.886719 270.15625 474.117188 270.15625 438.074219 L 270.15625 384.679688 C 270.15625 348.636719 271.84375 330.867188 281.847656 320.863281 C 284.078125 318.636719 286.691406 316.820312 289.804688 315.34375 L 289.835938 315.328125 L 316.804688 302.582031 L 316.832031 302.566406 C 327.703125 297.429688 344.671875 296.410156 372.660156 296.410156 L 1094.332031 296.410156 C 1130.375 296.410156 1148.140625 298.097656 1158.144531 308.101562 C 1159.675781 309.632812 1161.011719 311.34375 1162.175781 313.277344 C 1168.625 323.96875 1169.835938 341.386719 1169.835938 371.910156 L 1169.835938 425.296875 C 1169.835938 461.339844 1168.148438 479.105469 1158.144531 489.105469 C 1155.921875 491.328125 1153.320312 493.136719 1150.21875 494.613281 C 1150.207031 494.617188 1150.199219 494.621094 1150.1875 494.625 L 1123.335938 507.382812 L 1123.308594 507.394531 L 1123.277344 507.410156 C 1112.410156 512.558594 1095.433594 513.582031 1067.417969 513.582031 L 345.667969 513.582031 C 309.621094 513.582031 291.851562 511.894531 281.847656 501.890625 Z M 281.847656 501.890625 " fill-opacity="1" fill-rule="nonzero"/></g><path fill="#f5fdff" d="M 372.660156 297.8125 C 303.9375 297.8125 298.558594 303.191406 298.558594 371.910156 L 298.558594 425.296875 C 298.558594 494.015625 303.9375 499.394531 372.660156 499.394531 L 1094.332031 499.394531 C 1163.054688 499.394531 1168.433594 494.015625 1168.433594 425.296875 L 1168.433594 371.910156 C 1168.433594 303.191406 1163.054688 297.8125 1094.332031 297.8125 Z M 372.660156 297.8125 " fill-opacity="1" fill-rule="nonzero"/><g clip-path="url(#210fe35fbf)"><path stroke-linecap="butt" transform="matrix(-0.193729, 0, 0, 0.193729, 1169.834827, 296.410582)" fill="none" stroke-linejoin="miter" d="M 4114.896005 7.236491 C 4469.632042 7.236491 4497.397149 35.001598 4497.397149 389.717471 L 4497.397149 665.291701 C 4497.397149 1020.007574 4469.632042 1047.772681 4114.896005 1047.772681 L 389.734101 1047.772681 C 34.998064 1047.772681 7.232958 1020.007574 7.232958 665.291701 L 7.232958 389.717471 C 7.232958 35.001598 34.998064 7.236491 389.734101 7.236491 Z M 4114.896005 7.236491 " stroke="#000000" stroke-width="10" stroke-opacity="1" stroke-miterlimit="10"/></g><g fill="#000000" fill-opacity="1"><g transform="translate(346.931972, 428.281745)"><g><path d="M 41.796875 -40.09375 C 41.796875 -34.738281 39.476562 -30.671875 34.84375 -27.890625 C 37.363281 -26.960938 39.472656 -25.363281 41.171875 -23.09375 C 42.867188 -20.832031 43.71875 -17.628906 43.71875 -13.484375 C 43.71875 -9.335938 42.1875 -6.050781 39.125 -3.625 C 36.0625 -1.207031 31.671875 0 25.953125 0 L 7.71875 0 C 6.84375 0 6.125 -0.296875 5.5625 -0.890625 C 5 -1.484375 4.71875 -2.269531 4.71875 -3.25 L 4.71875 -52.6875 C 4.71875 -53.25 4.804688 -53.617188 4.984375 -53.796875 C 5.160156 -53.984375 5.535156 -54.078125 6.109375 -54.078125 L 23.71875 -54.078125 C 35.769531 -54.078125 41.796875 -49.414062 41.796875 -40.09375 Z M 19.546875 -41.5625 L 19.546875 -31.4375 L 19.9375 -31.4375 C 24.875 -31.4375 27.34375 -33.085938 27.34375 -36.390625 C 27.34375 -38.191406 26.863281 -39.503906 25.90625 -40.328125 C 24.957031 -41.148438 23.378906 -41.5625 21.171875 -41.5625 Z M 19.546875 -22.328125 L 19.546875 -12.28125 L 20.9375 -12.28125 C 23.144531 -12.28125 24.765625 -12.691406 25.796875 -13.515625 C 26.828125 -14.335938 27.34375 -15.648438 27.34375 -17.453125 C 27.34375 -19.253906 26.863281 -20.515625 25.90625 -21.234375 C 24.957031 -21.960938 23.378906 -22.328125 21.171875 -22.328125 Z M 19.546875 -22.328125 "/></g></g></g><g fill="#000000" fill-opacity="1"><g transform="translate(392.819145, 428.281745)"><g><path d="M 16.140625 0.234375 C 16.140625 0.585938 13.707031 0.765625 8.84375 0.765625 C 3.976562 0.765625 1.546875 0.613281 1.546875 0.3125 L 1.546875 -13.59375 C 1.546875 -14.0625 3.976562 -14.296875 8.84375 -14.296875 C 13.707031 -14.296875 16.140625 -14.164062 16.140625 -13.90625 Z M 16.140625 0.234375 "/></g></g></g><g fill="#000000" fill-opacity="1"><g transform="translate(410.50965, 428.281745)"><g/></g></g><g fill="#000000" fill-opacity="1"><g transform="translate(425.032866, 428.281745)"><g><path d="M 20.078125 14.0625 C 20.078125 14.414062 17.875 14.59375 13.46875 14.59375 C 9.070312 14.59375 6.875 14.414062 6.875 14.0625 L 6.875 -25.71875 L 4.25 -25.71875 C 3.007812 -25.71875 2.160156 -26.851562 1.703125 -29.125 C 1.546875 -29.84375 1.46875 -30.769531 1.46875 -31.90625 C 1.46875 -33.039062 1.828125 -34.378906 2.546875 -35.921875 C 3.578125 -38.179688 5.226562 -39.3125 7.5 -39.3125 C 8.988281 -39.3125 10.363281 -38.960938 11.625 -38.265625 C 12.882812 -37.578125 13.757812 -36.9375 14.25 -36.34375 C 14.738281 -35.75 14.984375 -35.398438 14.984375 -35.296875 C 18.429688 -37.972656 22.164062 -39.3125 26.1875 -39.3125 C 30.207031 -39.3125 33.65625 -37.753906 36.53125 -34.640625 C 39.414062 -31.523438 40.859375 -26.707031 40.859375 -20.1875 C 40.859375 -13.675781 39.414062 -8.628906 36.53125 -5.046875 C 33.65625 -1.472656 30 0.3125 25.5625 0.3125 C 23.5625 0.3125 21.734375 0.207031 20.078125 0 Z M 23.25 -25.796875 C 22.375 -25.796875 21.523438 -25.515625 20.703125 -24.953125 L 20.703125 -11.28125 C 21.578125 -11.175781 22.285156 -11.125 22.828125 -11.125 C 23.367188 -11.125 23.796875 -11.125 24.109375 -11.125 C 26.210938 -11.332031 27.265625 -14.035156 27.265625 -19.234375 C 27.265625 -23.609375 25.925781 -25.796875 23.25 -25.796875 Z M 23.25 -25.796875 "/></g></g></g><g fill="#000000" fill-opacity="1"><g transform="translate(467.907238, 428.281745)"><g><path d="M 20.390625 -0.078125 C 20.390625 0.285156 18.046875 0.46875 13.359375 0.46875 C 8.671875 0.363281 6.328125 0.15625 6.328125 -0.15625 L 6.328125 -25.796875 L 4.25 -25.796875 C 3.425781 -25.796875 2.769531 -26.296875 2.28125 -27.296875 C 1.789062 -28.304688 1.546875 -29.554688 1.546875 -31.046875 C 1.546875 -36.609375 3.191406 -39.390625 6.484375 -39.390625 C 8.804688 -39.390625 10.738281 -38.679688 12.28125 -37.265625 C 13.820312 -35.859375 14.59375 -34.25 14.59375 -32.4375 C 15.675781 -34.550781 17.128906 -36.238281 18.953125 -37.5 C 20.785156 -38.757812 22.65625 -39.390625 24.5625 -39.390625 C 27.550781 -39.390625 29.351562 -38.617188 29.96875 -37.078125 C 30.125 -36.671875 30.203125 -36.066406 30.203125 -35.265625 C 30.203125 -34.460938 29.957031 -33.03125 29.46875 -30.96875 C 28.976562 -28.914062 28.472656 -27.425781 27.953125 -26.5 C 27.441406 -25.570312 27.132812 -25.109375 27.03125 -25.109375 C 26.9375 -25.109375 26.460938 -25.300781 25.609375 -25.6875 C 24.753906 -26.070312 23.992188 -26.265625 23.328125 -26.265625 C 21.367188 -26.265625 20.390625 -24.71875 20.390625 -21.625 Z M 20.390625 -0.078125 "/></g></g></g><g fill="#000000" fill-opacity="1"><g transform="translate(498.498687, 428.281745)"><g><path d="M 17.609375 -0.46875 C 17.609375 -0.0507812 15.25 0.15625 10.53125 0.15625 C 5.820312 0.15625 3.46875 -0.0234375 3.46875 -0.390625 L 3.46875 -38.3125 C 3.46875 -38.675781 5.820312 -38.859375 10.53125 -38.859375 C 15.25 -38.859375 17.609375 -38.703125 17.609375 -38.390625 Z M 17.609375 -42.953125 C 17.609375 -42.585938 15.25 -42.40625 10.53125 -42.40625 C 5.820312 -42.40625 3.46875 -42.5625 3.46875 -42.875 L 3.46875 -54 C 3.46875 -54.507812 5.820312 -54.765625 10.53125 -54.765625 C 15.25 -54.765625 17.609375 -54.613281 17.609375 -54.3125 Z M 17.609375 -42.953125 "/></g></g></g><g fill="#000000" fill-opacity="1"><g transform="translate(519.588246, 428.281745)"><g><path d="M 19.625 -0.46875 C 19.625 -0.101562 17.769531 0.078125 14.0625 0.078125 C 8.90625 -0.078125 6.328125 -0.359375 6.328125 -0.765625 L 6.328125 -25.796875 L 4.328125 -25.796875 C 2.984375 -25.796875 2.109375 -26.929688 1.703125 -29.203125 C 1.597656 -29.867188 1.546875 -30.535156 1.546875 -31.203125 C 1.546875 -32.804688 1.851562 -34.40625 2.46875 -36 C 3.394531 -38.257812 4.835938 -39.390625 6.796875 -39.390625 C 8.753906 -39.390625 10.503906 -38.925781 12.046875 -38 C 13.597656 -37.070312 14.628906 -36.144531 15.140625 -35.21875 C 18.378906 -38 22.238281 -39.390625 26.71875 -39.390625 C 31.207031 -39.390625 34.453125 -38.179688 36.453125 -35.765625 C 38.460938 -33.347656 39.46875 -29.382812 39.46875 -23.875 L 39.46875 -0.6875 C 39.46875 -0.0703125 37.265625 0.234375 32.859375 0.234375 C 28.460938 0.234375 26.265625 -0.0703125 26.265625 -0.6875 L 26.265625 -23.015625 C 26.265625 -25.597656 25.363281 -26.890625 23.5625 -26.890625 C 23.039062 -26.890625 22.316406 -26.664062 21.390625 -26.21875 C 20.460938 -25.78125 19.875 -25.460938 19.625 -25.265625 Z M 19.625 -0.46875 "/></g></g></g><g fill="#000000" fill-opacity="1"><g transform="translate(562.153619, 428.281745)"><g><path d="M 21.25 -0.46875 C 21.25 0.15625 19.082031 0.46875 14.75 0.46875 C 9.601562 0.257812 7.03125 -0.078125 7.03125 -0.546875 L 7.03125 -27.890625 L 3.09375 -27.890625 C 2.0625 -27.890625 1.546875 -29.664062 1.546875 -33.21875 C 1.546875 -34.144531 1.632812 -35.273438 1.8125 -36.609375 C 1.988281 -37.953125 2.363281 -38.625 2.9375 -38.625 L 7.03125 -38.625 L 7.03125 -45.421875 C 7.03125 -46.453125 9.203125 -46.96875 13.546875 -46.96875 C 17.898438 -46.96875 20.078125 -46.554688 20.078125 -45.734375 L 20.078125 -40.78125 L 20.15625 -38.625 L 26.734375 -38.625 C 27.609375 -38.625 28.046875 -36.820312 28.046875 -33.21875 C 28.046875 -29.613281 27.609375 -27.8125 26.734375 -27.8125 L 21.25 -27.8125 Z M 21.25 -0.46875 "/></g></g></g><g fill="#000000" fill-opacity="1"><g transform="translate(590.582031, 428.281745)"><g><path d="M 14.671875 -52.21875 C 15.242188 -53.25 16.117188 -53.765625 17.296875 -53.765625 C 19.097656 -53.765625 20.59375 -53.53125 21.78125 -53.0625 C 22.96875 -52.601562 23.859375 -52.257812 24.453125 -52.03125 C 25.046875 -51.800781 25.675781 -51.476562 26.34375 -51.0625 C 23.875 -45.601562 22.03125 -40.890625 20.8125 -36.921875 C 19.601562 -32.960938 19 -28.664062 19 -24.03125 C 19.050781 -15.113281 21.578125 -6.382812 26.578125 2.15625 C 26.054688 2.675781 25.0625 3.269531 23.59375 3.9375 C 22.125 4.601562 20.988281 5.050781 20.1875 5.28125 C 19.394531 5.519531 18.742188 5.640625 18.234375 5.640625 C 16.378906 5.640625 15.09375 4.894531 14.375 3.40625 C 9.6875 -6.070312 7.34375 -15.472656 7.34375 -24.796875 C 7.34375 -34.117188 9.785156 -43.257812 14.671875 -52.21875 Z M 14.671875 -52.21875 "/></g></g></g><g fill="#000000" fill-opacity="1"><g transform="translate(623.800002, 428.281745)"><g><path d="M 6.875 -36.234375 L 6.875 -52.53125 C 6.875 -53.507812 7.546875 -54.175781 8.890625 -54.53125 C 9.554688 -54.6875 10.234375 -54.765625 10.921875 -54.765625 C 11.617188 -54.765625 12.507812 -54.625 13.59375 -54.34375 C 14.675781 -54.0625 15.347656 -53.457031 15.609375 -52.53125 L 20.234375 -36.234375 C 20.234375 -35.304688 19.128906 -34.632812 16.921875 -34.21875 C 15.835938 -34.007812 14.726562 -33.90625 13.59375 -33.90625 C 12.457031 -33.90625 11.328125 -34.007812 10.203125 -34.21875 C 7.984375 -34.632812 6.875 -35.304688 6.875 -36.234375 Z M 24.640625 -36.234375 L 24.640625 -52.53125 C 24.640625 -53.507812 25.3125 -54.175781 26.65625 -54.53125 C 27.320312 -54.6875 28 -54.765625 28.6875 -54.765625 C 29.382812 -54.765625 30.273438 -54.625 31.359375 -54.34375 C 32.441406 -54.0625 33.113281 -53.457031 33.375 -52.53125 L 38 -36.234375 C 38 -35.304688 36.894531 -34.632812 34.6875 -34.21875 C 33.601562 -34.007812 32.492188 -33.90625 31.359375 -33.90625 C 30.222656 -33.90625 29.09375 -34.007812 27.96875 -34.21875 C 25.75 -34.632812 24.640625 -35.304688 24.640625 -36.234375 Z M 24.640625 -36.234375 "/></g></g></g><g fill="#000000" fill-opacity="1"><g transform="translate(667.369627, 428.281745)"><g><path d="M 21.25 -0.46875 C 21.25 0.15625 19.082031 0.46875 14.75 0.46875 C 9.601562 0.257812 7.03125 -0.078125 7.03125 -0.546875 L 7.03125 -27.890625 L 3.09375 -27.890625 C 2.0625 -27.890625 1.546875 -29.664062 1.546875 -33.21875 C 1.546875 -34.144531 1.632812 -35.273438 1.8125 -36.609375 C 1.988281 -37.953125 2.363281 -38.625 2.9375 -38.625 L 7.03125 -38.625 L 7.03125 -45.421875 C 7.03125 -46.453125 9.203125 -46.96875 13.546875 -46.96875 C 17.898438 -46.96875 20.078125 -46.554688 20.078125 -45.734375 L 20.078125 -40.78125 L 20.15625 -38.625 L 26.734375 -38.625 C 27.609375 -38.625 28.046875 -36.820312 28.046875 -33.21875 C 28.046875 -29.613281 27.609375 -27.8125 26.734375 -27.8125 L 21.25 -27.8125 Z M 21.25 -0.46875 "/></g></g></g><g fill="#000000" fill-opacity="1"><g transform="translate(695.798038, 428.281745)"><g><path d="M 32.671875 -2.078125 C 29.429688 -0.179688 25.257812 0.765625 20.15625 0.765625 C 15.0625 0.765625 10.765625 -0.96875 7.265625 -4.4375 C 3.765625 -7.914062 2.015625 -12.734375 2.015625 -18.890625 C 2.015625 -25.046875 3.695312 -30 7.0625 -33.75 C 10.4375 -37.507812 14.695312 -39.390625 19.84375 -39.390625 C 25 -39.390625 28.976562 -38.078125 31.78125 -35.453125 C 34.59375 -32.828125 36 -29.632812 36 -25.875 C 36 -17.53125 31.207031 -13.359375 21.625 -13.359375 L 16.296875 -13.359375 C 16.296875 -11.816406 16.71875 -10.75 17.5625 -10.15625 C 18.414062 -9.5625 19.671875 -9.265625 21.328125 -9.265625 C 24.929688 -9.265625 28.351562 -10.085938 31.59375 -11.734375 C 31.644531 -11.785156 31.878906 -11.425781 32.296875 -10.65625 C 33.523438 -8.445312 34.140625 -6.582031 34.140625 -5.0625 C 34.140625 -3.539062 33.648438 -2.546875 32.671875 -2.078125 Z M 23.015625 -24.40625 C 23.015625 -26.570312 21.960938 -27.65625 19.859375 -27.65625 C 18.878906 -27.65625 18.039062 -27.359375 17.34375 -26.765625 C 16.644531 -26.171875 16.296875 -25.304688 16.296875 -24.171875 L 16.296875 -21.78125 L 20.46875 -21.78125 C 22.164062 -21.78125 23.015625 -22.65625 23.015625 -24.40625 Z M 23.015625 -24.40625 "/></g></g></g><g fill="#000000" fill-opacity="1"><g transform="translate(733.342085, 428.281745)"><g><path d="M 26.65625 -38.390625 C 26.851562 -38.804688 28.140625 -39.015625 30.515625 -39.015625 C 38.234375 -39.015625 41.992188 -38.726562 41.796875 -38.15625 L 32.375 -18.625 C 38.707031 -6.769531 41.875 -0.84375 41.875 -0.84375 C 41.875 -0.539062 40.328125 -0.285156 37.234375 -0.078125 C 34.140625 0.128906 31.953125 0.234375 30.671875 0.234375 C 27.421875 0.234375 25.695312 -0.0976562 25.5 -0.765625 L 21.328125 -13.671875 L 16.53125 -0.234375 C 16.425781 0.128906 14.957031 0.3125 12.125 0.3125 C 9.289062 0.3125 6.765625 0.207031 4.546875 0 C 2.335938 -0.207031 1.335938 -0.460938 1.546875 -0.765625 L 10.28125 -18.546875 C 4.195312 -31.265625 1.15625 -37.648438 1.15625 -37.703125 C 1.15625 -38.003906 1.941406 -38.285156 3.515625 -38.546875 C 5.085938 -38.804688 6.863281 -38.9375 8.84375 -38.9375 C 10.820312 -38.9375 12.710938 -38.84375 14.515625 -38.65625 C 16.328125 -38.476562 17.332031 -38.238281 17.53125 -37.9375 L 21.625 -25.421875 Z M 26.65625 -38.390625 "/></g></g></g><g fill="#000000" fill-opacity="1"><g transform="translate(776.370991, 428.281745)"><g><path d="M 21.25 -0.46875 C 21.25 0.15625 19.082031 0.46875 14.75 0.46875 C 9.601562 0.257812 7.03125 -0.078125 7.03125 -0.546875 L 7.03125 -27.890625 L 3.09375 -27.890625 C 2.0625 -27.890625 1.546875 -29.664062 1.546875 -33.21875 C 1.546875 -34.144531 1.632812 -35.273438 1.8125 -36.609375 C 1.988281 -37.953125 2.363281 -38.625 2.9375 -38.625 L 7.03125 -38.625 L 7.03125 -45.421875 C 7.03125 -46.453125 9.203125 -46.96875 13.546875 -46.96875 C 17.898438 -46.96875 20.078125 -46.554688 20.078125 -45.734375 L 20.078125 -40.78125 L 20.15625 -38.625 L 26.734375 -38.625 C 27.609375 -38.625 28.046875 -36.820312 28.046875 -33.21875 C 28.046875 -29.613281 27.609375 -27.8125 26.734375 -27.8125 L 21.25 -27.8125 Z M 21.25 -0.46875 "/></g></g></g><g fill="#000000" fill-opacity="1"><g transform="translate(804.799426, 428.281745)"><g><path d="M 14.140625 -36.234375 C 13.878906 -35.304688 13.207031 -34.695312 12.125 -34.40625 C 11.039062 -34.125 10.148438 -33.984375 9.453125 -33.984375 C 8.765625 -33.984375 8.085938 -34.0625 7.421875 -34.21875 C 6.078125 -34.582031 5.40625 -35.253906 5.40625 -36.234375 L 5.40625 -52.53125 C 5.40625 -53.457031 6.515625 -54.125 8.734375 -54.53125 C 9.804688 -54.738281 10.910156 -54.84375 12.046875 -54.84375 C 13.179688 -54.84375 14.316406 -54.738281 15.453125 -54.53125 C 17.660156 -54.125 18.765625 -53.457031 18.765625 -52.53125 Z M 31.59375 -36.234375 C 31.332031 -35.304688 30.660156 -34.695312 29.578125 -34.40625 C 28.503906 -34.125 27.617188 -33.984375 26.921875 -33.984375 C 26.222656 -33.984375 25.539062 -34.0625 24.875 -34.21875 C 23.53125 -34.582031 22.859375 -35.253906 22.859375 -36.234375 L 22.859375 -52.53125 C 22.859375 -53.457031 23.96875 -54.125 26.1875 -54.53125 C 27.269531 -54.738281 28.375 -54.84375 29.5 -54.84375 C 30.632812 -54.84375 31.769531 -54.738281 32.90625 -54.53125 C 35.125 -54.125 36.234375 -53.457031 36.234375 -52.53125 Z M 31.59375 -36.234375 "/></g></g></g><g fill="#000000" fill-opacity="1"><g transform="translate(845.742504, 428.281745)"><g><path d="M 19.234375 -52.21875 C 24.128906 -43.257812 26.578125 -34.117188 26.578125 -24.796875 C 26.578125 -15.472656 24.234375 -6.070312 19.546875 3.40625 C 18.773438 4.894531 17.488281 5.640625 15.6875 5.640625 C 14.601562 5.640625 13.265625 5.28125 11.671875 4.5625 C 9.296875 3.476562 7.851562 2.675781 7.34375 2.15625 C 12.332031 -6.382812 14.851562 -15.113281 14.90625 -24.03125 C 14.90625 -28.664062 14.300781 -32.960938 13.09375 -36.921875 C 11.882812 -40.890625 10.046875 -45.601562 7.578125 -51.0625 C 7.578125 -51.164062 8.425781 -51.578125 10.125 -52.296875 C 12.539062 -53.328125 14.46875 -53.84375 15.90625 -53.84375 C 17.351562 -53.84375 18.460938 -53.300781 19.234375 -52.21875 Z M 19.234375 -52.21875 "/></g></g></g></svg>