<svg xmlns="http://www.w3.org/2000/svg" xmlns:xlink="http://www.w3.org/1999/xlink" width="1920" zoomAndPan="magnify" viewBox="0 0 1440 809.999993" height="1080" preserveAspectRatio="xMidYMid meet" version="1.0"><defs><filter x="0%" y="0%" width="100%" height="100%" id="0e4101a7e3"><feColorMatrix values="0 0 0 0 1 0 0 0 0 1 0 0 0 0 1 0 0 0 1 0" color-interpolation-filters="sRGB"/></filter><g/><mask id="23b1625934"><g filter="url(#0e4101a7e3)"><rect x="-144" width="1728" fill="#000000" y="-80.999999" height="971.999992" fill-opacity="0.71"/></g></mask><clipPath id="f209706000"><path d="M 0.179688 0.894531 L 1383.820312 0.894531 L 1383.820312 241.105469 L 0.179688 241.105469 Z M 0.179688 0.894531 " clip-rule="nonzero"/></clipPath><clipPath id="e4d0d502a1"><rect x="0" width="1385" y="0" height="242"/></clipPath></defs><g mask="url(#23b1625934)"><g transform="matrix(1, 0, 0, 1, 28, 284)"><g clip-path="url(#e4d0d502a1)"><g clip-path="url(#f209706000)"><path fill="#adadad" d="M 0.179688 0.894531 L 1384.222656 0.894531 L 1384.222656 241.105469 L 0.179688 241.105469 Z M 0.179688 0.894531 " fill-opacity="1" fill-rule="nonzero"/></g></g></g></g><g fill="#ffffff" fill-opacity="1"><g transform="translate(120.484695, 430.818156)"><g><path d="M 8.296875 0 L 8.296875 -63.875 L 35.5625 -63.875 C 39.5 -63.875 42.828125 -63.253906 45.546875 -62.015625 C 48.273438 -60.785156 50.335938 -59.023438 51.734375 -56.734375 C 53.128906 -54.453125 53.828125 -51.75 53.828125 -48.625 C 53.828125 -45.800781 53.140625 -43.3125 51.765625 -41.15625 C 50.398438 -39 48.4375 -37.265625 45.875 -35.953125 L 45.875 -35.046875 C 49.894531 -33.992188 53 -32.082031 55.1875 -29.3125 C 57.375 -26.550781 58.46875 -23.160156 58.46875 -19.140625 C 58.46875 -13.023438 56.625 -8.304688 52.9375 -4.984375 C 49.25 -1.660156 43.78125 0 36.53125 0 Z M 32.9375 -38.40625 C 38.820312 -38.40625 41.765625 -41.054688 41.765625 -46.359375 C 41.765625 -49.066406 41.035156 -51.082031 39.578125 -52.40625 C 38.128906 -53.738281 35.914062 -54.40625 32.9375 -54.40625 L 20.921875 -54.40625 L 20.921875 -38.40625 Z M 35.265625 -10 C 42.222656 -10 45.703125 -13.160156 45.703125 -19.484375 C 45.703125 -25.835938 42.222656 -29.015625 35.265625 -29.015625 L 20.921875 -29.015625 L 20.921875 -10 Z M 35.265625 -10 "/></g></g></g><g fill="#ffffff" fill-opacity="1"><g transform="translate(182.960677, 430.818156)"><g><path d="M 47.625 -21.359375 L 16.640625 -21.359375 C 16.992188 -17.171875 18.1875 -14.117188 20.21875 -12.203125 C 22.257812 -10.296875 25.046875 -9.34375 28.578125 -9.34375 C 31.335938 -9.34375 33.578125 -9.859375 35.296875 -10.890625 C 37.015625 -11.929688 38.398438 -13.5 39.453125 -15.59375 L 40.375 -15.59375 L 48.40625 -10.4375 C 46.832031 -7.0625 44.457031 -4.320312 41.28125 -2.21875 C 38.113281 -0.125 33.878906 0.921875 28.578125 0.921875 C 23.597656 0.921875 19.289062 -0.0234375 15.65625 -1.921875 C 12.03125 -3.816406 9.234375 -6.632812 7.265625 -10.375 C 5.304688 -14.113281 4.328125 -18.679688 4.328125 -24.078125 C 4.328125 -29.554688 5.359375 -34.171875 7.421875 -37.921875 C 9.492188 -41.679688 12.289062 -44.484375 15.8125 -46.328125 C 19.34375 -48.179688 23.304688 -49.109375 27.703125 -49.109375 C 34.515625 -49.109375 39.734375 -47.300781 43.359375 -43.6875 C 46.992188 -40.082031 48.8125 -34.785156 48.8125 -27.796875 C 48.8125 -25.253906 48.722656 -23.285156 48.546875 -21.890625 Z M 37.234375 -29.1875 C 37.109375 -32.851562 36.253906 -35.523438 34.671875 -37.203125 C 33.085938 -38.878906 30.765625 -39.71875 27.703125 -39.71875 C 21.585938 -39.71875 17.988281 -36.207031 16.90625 -29.1875 Z M 37.234375 -29.1875 "/></g></g></g><g fill="#ffffff" fill-opacity="1"><g transform="translate(235.344425, 430.818156)"><g><path d="M 25 20.453125 C 17.039062 20.453125 11.164062 19.285156 7.375 16.953125 C 3.59375 14.617188 1.703125 11.367188 1.703125 7.203125 C 1.703125 4.671875 2.507812 2.597656 4.125 0.984375 C 5.738281 -0.628906 8.0625 -1.710938 11.09375 -2.265625 L 11.09375 -3.1875 C 9.46875 -4.175781 8.296875 -5.273438 7.578125 -6.484375 C 6.867188 -7.691406 6.515625 -9.097656 6.515625 -10.703125 C 6.515625 -14.578125 9.03125 -17.1875 14.0625 -18.53125 L 14.0625 -19.4375 C 11.476562 -20.925781 9.53125 -22.769531 8.21875 -24.96875 C 6.90625 -27.164062 6.25 -29.820312 6.25 -32.9375 C 6.25 -36.144531 6.984375 -38.960938 8.453125 -41.390625 C 9.921875 -43.828125 12.078125 -45.722656 14.921875 -47.078125 C 17.765625 -48.429688 21.164062 -49.109375 25.125 -49.109375 C 29.144531 -49.109375 32.347656 -48.410156 34.734375 -47.015625 C 36.222656 -49.171875 37.082031 -51.660156 37.3125 -54.484375 L 38.234375 -55.046875 L 46.921875 -52.90625 C 46.660156 -50.613281 45.988281 -48.6875 44.90625 -47.125 C 43.832031 -45.5625 42.160156 -44.171875 39.890625 -42.953125 L 39.890625 -41.984375 C 42.597656 -39.597656 43.953125 -36.265625 43.953125 -31.984375 C 43.953125 -29.015625 43.207031 -26.347656 41.71875 -23.984375 C 40.238281 -21.628906 38.078125 -19.765625 35.234375 -18.390625 C 32.398438 -17.023438 29.03125 -16.34375 25.125 -16.34375 L 23.28125 -16.390625 C 22.125 -16.441406 21.3125 -16.46875 20.84375 -16.46875 C 19.738281 -16.46875 18.867188 -16.171875 18.234375 -15.578125 C 17.609375 -14.984375 17.296875 -14.21875 17.296875 -13.28125 C 17.296875 -12.257812 17.703125 -11.460938 18.515625 -10.890625 C 19.335938 -10.328125 20.535156 -10.019531 22.109375 -9.96875 L 32.90625 -9.5625 C 43.5625 -9.25 48.890625 -4.664062 48.890625 4.1875 C 48.890625 7.3125 48.09375 10.085938 46.5 12.515625 C 44.914062 14.953125 42.347656 16.882812 38.796875 18.3125 C 35.242188 19.738281 30.644531 20.453125 25 20.453125 Z M 25.125 -24.8125 C 27.457031 -24.8125 29.273438 -25.492188 30.578125 -26.859375 C 31.890625 -28.234375 32.546875 -30.1875 32.546875 -32.71875 C 32.546875 -35.257812 31.890625 -37.207031 30.578125 -38.5625 C 29.273438 -39.914062 27.457031 -40.59375 25.125 -40.59375 C 22.757812 -40.59375 20.9375 -39.914062 19.65625 -38.5625 C 18.375 -37.207031 17.734375 -35.257812 17.734375 -32.71875 C 17.734375 -30.15625 18.375 -28.195312 19.65625 -26.84375 C 20.9375 -25.488281 22.757812 -24.8125 25.125 -24.8125 Z M 25 11.671875 C 29.132812 11.671875 32.140625 11.085938 34.015625 9.921875 C 35.890625 8.753906 36.828125 7.238281 36.828125 5.375 C 36.828125 3.863281 36.347656 2.75 35.390625 2.03125 C 34.429688 1.320312 32.898438 0.9375 30.796875 0.875 L 21.28125 0.4375 C 20.957031 0.4375 20.65625 0.421875 20.375 0.390625 C 20.101562 0.359375 19.835938 0.34375 19.578125 0.34375 C 17.535156 0.34375 15.984375 0.78125 14.921875 1.65625 C 13.859375 2.53125 13.328125 3.738281 13.328125 5.28125 C 13.328125 7.320312 14.300781 8.894531 16.25 10 C 18.207031 11.113281 21.125 11.671875 25 11.671875 Z M 25 11.671875 "/></g></g></g><g fill="#ffffff" fill-opacity="1"><g transform="translate(285.456318, 430.818156)"><g><path d="M 12.984375 -53.96875 C 10.796875 -53.96875 9.015625 -54.628906 7.640625 -55.953125 C 6.273438 -57.273438 5.59375 -58.984375 5.59375 -61.078125 C 5.59375 -63.148438 6.273438 -64.847656 7.640625 -66.171875 C 9.015625 -67.492188 10.796875 -68.15625 12.984375 -68.15625 C 14.429688 -68.15625 15.722656 -67.847656 16.859375 -67.234375 C 17.992188 -66.628906 18.875 -65.796875 19.5 -64.734375 C 20.132812 -63.671875 20.453125 -62.453125 20.453125 -61.078125 C 20.453125 -59.710938 20.132812 -58.488281 19.5 -57.40625 C 18.875 -56.332031 17.992188 -55.488281 16.859375 -54.875 C 15.722656 -54.269531 14.429688 -53.96875 12.984375 -53.96875 Z M 6.953125 0 L 6.953125 -48.1875 L 19.046875 -48.1875 L 19.046875 0 Z M 6.953125 0 "/></g></g></g><g fill="#ffffff" fill-opacity="1"><g transform="translate(311.40788, 430.818156)"><g><path d="M 6.953125 0 L 6.953125 -48.1875 L 18.5625 -48.1875 L 18.5625 -41.109375 L 19.484375 -40.890625 C 22.484375 -46.367188 27.347656 -49.109375 34.078125 -49.109375 C 39.640625 -49.109375 43.722656 -47.59375 46.328125 -44.5625 C 48.941406 -41.53125 50.25 -37.117188 50.25 -31.328125 L 50.25 0 L 38.140625 0 L 38.140625 -29.84375 C 38.140625 -33.050781 37.5 -35.359375 36.21875 -36.765625 C 34.9375 -38.179688 32.882812 -38.890625 30.0625 -38.890625 C 26.59375 -38.890625 23.890625 -37.765625 21.953125 -35.515625 C 20.015625 -33.273438 19.046875 -29.753906 19.046875 -24.953125 L 19.046875 0 Z M 6.953125 0 "/></g></g></g><g fill="#ffffff" fill-opacity="1"><g transform="translate(367.854712, 430.818156)"><g/></g></g><g fill="#ffffff" fill-opacity="1"><g transform="translate(388.956779, 430.818156)"><g><path d="M 33.25 -11.484375 L 36.390625 -2.53125 C 35.085938 -1.457031 33.441406 -0.613281 31.453125 0 C 29.472656 0.613281 27.234375 0.921875 24.734375 0.921875 C 19.515625 0.921875 15.550781 -0.5 12.84375 -3.34375 C 10.132812 -6.1875 8.78125 -10.316406 8.78125 -15.734375 L 8.78125 -38.625 L 1.4375 -38.625 L 1.4375 -48.234375 L 8.78125 -48.234375 L 8.78125 -57.625 L 20.890625 -59.59375 L 20.890625 -48.234375 L 34.5625 -48.234375 L 34.5625 -38.625 L 20.890625 -38.625 L 20.890625 -16.609375 C 20.890625 -14.210938 21.382812 -12.46875 22.375 -11.375 C 23.363281 -10.289062 24.804688 -9.75 26.703125 -9.75 C 28.859375 -9.75 30.734375 -10.328125 32.328125 -11.484375 Z M 33.25 -11.484375 "/></g></g></g><g fill="#ffffff" fill-opacity="1"><g transform="translate(426.398718, 430.818156)"><g><path d="M 28 0.921875 C 23.28125 0.921875 19.132812 -0.046875 15.5625 -1.984375 C 12 -3.921875 9.234375 -6.757812 7.265625 -10.5 C 5.304688 -14.25 4.328125 -18.773438 4.328125 -24.078125 C 4.328125 -29.378906 5.304688 -33.90625 7.265625 -37.65625 C 9.234375 -41.414062 12 -44.265625 15.5625 -46.203125 C 19.132812 -48.140625 23.28125 -49.109375 28 -49.109375 C 32.71875 -49.109375 36.863281 -48.140625 40.4375 -46.203125 C 44.007812 -44.265625 46.785156 -41.414062 48.765625 -37.65625 C 50.742188 -33.90625 51.734375 -29.378906 51.734375 -24.078125 C 51.734375 -18.773438 50.742188 -14.25 48.765625 -10.5 C 46.785156 -6.757812 44.007812 -3.921875 40.4375 -1.984375 C 36.863281 -0.046875 32.71875 0.921875 28 0.921875 Z M 28 -9.34375 C 35.488281 -9.34375 39.234375 -14.253906 39.234375 -24.078125 C 39.234375 -29.171875 38.269531 -32.90625 36.34375 -35.28125 C 34.425781 -37.65625 31.644531 -38.84375 28 -38.84375 C 20.519531 -38.84375 16.78125 -33.921875 16.78125 -24.078125 C 16.78125 -14.253906 20.519531 -9.34375 28 -9.34375 Z M 28 -9.34375 "/></g></g></g><g fill="#ffffff" fill-opacity="1"><g transform="translate(482.408655, 430.818156)"><g/></g></g><g fill="#ffffff" fill-opacity="1"><g transform="translate(503.510722, 430.818156)"><g><path d="M 48.8125 -63.875 L 48.8125 -53.3125 L 20.921875 -53.3125 L 20.921875 -36.390625 L 46.234375 -36.390625 L 46.234375 -25.953125 L 20.921875 -25.953125 L 20.921875 0 L 8.296875 0 L 8.296875 -63.875 Z M 48.8125 -63.875 "/></g></g></g><g fill="#ffffff" fill-opacity="1"><g transform="translate(555.151709, 430.818156)"><g><path d="M 28 0.921875 C 23.28125 0.921875 19.132812 -0.046875 15.5625 -1.984375 C 12 -3.921875 9.234375 -6.757812 7.265625 -10.5 C 5.304688 -14.25 4.328125 -18.773438 4.328125 -24.078125 C 4.328125 -29.378906 5.304688 -33.90625 7.265625 -37.65625 C 9.234375 -41.414062 12 -44.265625 15.5625 -46.203125 C 19.132812 -48.140625 23.28125 -49.109375 28 -49.109375 C 32.71875 -49.109375 36.863281 -48.140625 40.4375 -46.203125 C 44.007812 -44.265625 46.785156 -41.414062 48.765625 -37.65625 C 50.742188 -33.90625 51.734375 -29.378906 51.734375 -24.078125 C 51.734375 -18.773438 50.742188 -14.25 48.765625 -10.5 C 46.785156 -6.757812 44.007812 -3.921875 40.4375 -1.984375 C 36.863281 -0.046875 32.71875 0.921875 28 0.921875 Z M 28 -9.34375 C 35.488281 -9.34375 39.234375 -14.253906 39.234375 -24.078125 C 39.234375 -29.171875 38.269531 -32.90625 36.34375 -35.28125 C 34.425781 -37.65625 31.644531 -38.84375 28 -38.84375 C 20.519531 -38.84375 16.78125 -33.921875 16.78125 -24.078125 C 16.78125 -14.253906 20.519531 -9.34375 28 -9.34375 Z M 28 -9.34375 "/></g></g></g><g fill="#ffffff" fill-opacity="1"><g transform="translate(611.161645, 430.818156)"><g><path d="M 6.953125 0 L 6.953125 -48.1875 L 18.703125 -48.1875 L 18.703125 -41.03125 L 19.625 -40.859375 C 20.78125 -43.535156 22.304688 -45.5 24.203125 -46.75 C 26.097656 -48 28.398438 -48.625 31.109375 -48.625 C 33.847656 -48.625 35.929688 -48.160156 37.359375 -47.234375 L 35.296875 -36.796875 L 34.390625 -36.609375 C 33.597656 -36.929688 32.835938 -37.164062 32.109375 -37.3125 C 31.378906 -37.457031 30.492188 -37.53125 29.453125 -37.53125 C 26.066406 -37.53125 23.484375 -36.34375 21.703125 -33.96875 C 19.929688 -31.59375 19.046875 -27.785156 19.046875 -22.546875 L 19.046875 0 Z M 6.953125 0 "/></g></g></g><g fill="#ffffff" fill-opacity="1"><g transform="translate(648.953101, 430.818156)"><g><path d="M 25 20.453125 C 17.039062 20.453125 11.164062 19.285156 7.375 16.953125 C 3.59375 14.617188 1.703125 11.367188 1.703125 7.203125 C 1.703125 4.671875 2.507812 2.597656 4.125 0.984375 C 5.738281 -0.628906 8.0625 -1.710938 11.09375 -2.265625 L 11.09375 -3.1875 C 9.46875 -4.175781 8.296875 -5.273438 7.578125 -6.484375 C 6.867188 -7.691406 6.515625 -9.097656 6.515625 -10.703125 C 6.515625 -14.578125 9.03125 -17.1875 14.0625 -18.53125 L 14.0625 -19.4375 C 11.476562 -20.925781 9.53125 -22.769531 8.21875 -24.96875 C 6.90625 -27.164062 6.25 -29.820312 6.25 -32.9375 C 6.25 -36.144531 6.984375 -38.960938 8.453125 -41.390625 C 9.921875 -43.828125 12.078125 -45.722656 14.921875 -47.078125 C 17.765625 -48.429688 21.164062 -49.109375 25.125 -49.109375 C 29.144531 -49.109375 32.347656 -48.410156 34.734375 -47.015625 C 36.222656 -49.171875 37.082031 -51.660156 37.3125 -54.484375 L 38.234375 -55.046875 L 46.921875 -52.90625 C 46.660156 -50.613281 45.988281 -48.6875 44.90625 -47.125 C 43.832031 -45.5625 42.160156 -44.171875 39.890625 -42.953125 L 39.890625 -41.984375 C 42.597656 -39.597656 43.953125 -36.265625 43.953125 -31.984375 C 43.953125 -29.015625 43.207031 -26.347656 41.71875 -23.984375 C 40.238281 -21.628906 38.078125 -19.765625 35.234375 -18.390625 C 32.398438 -17.023438 29.03125 -16.34375 25.125 -16.34375 L 23.28125 -16.390625 C 22.125 -16.441406 21.3125 -16.46875 20.84375 -16.46875 C 19.738281 -16.46875 18.867188 -16.171875 18.234375 -15.578125 C 17.609375 -14.984375 17.296875 -14.21875 17.296875 -13.28125 C 17.296875 -12.257812 17.703125 -11.460938 18.515625 -10.890625 C 19.335938 -10.328125 20.535156 -10.019531 22.109375 -9.96875 L 32.90625 -9.5625 C 43.5625 -9.25 48.890625 -4.664062 48.890625 4.1875 C 48.890625 7.3125 48.09375 10.085938 46.5 12.515625 C 44.914062 14.953125 42.347656 16.882812 38.796875 18.3125 C 35.242188 19.738281 30.644531 20.453125 25 20.453125 Z M 25.125 -24.8125 C 27.457031 -24.8125 29.273438 -25.492188 30.578125 -26.859375 C 31.890625 -28.234375 32.546875 -30.1875 32.546875 -32.71875 C 32.546875 -35.257812 31.890625 -37.207031 30.578125 -38.5625 C 29.273438 -39.914062 27.457031 -40.59375 25.125 -40.59375 C 22.757812 -40.59375 20.9375 -39.914062 19.65625 -38.5625 C 18.375 -37.207031 17.734375 -35.257812 17.734375 -32.71875 C 17.734375 -30.15625 18.375 -28.195312 19.65625 -26.84375 C 20.9375 -25.488281 22.757812 -24.8125 25.125 -24.8125 Z M 25 11.671875 C 29.132812 11.671875 32.140625 11.085938 34.015625 9.921875 C 35.890625 8.753906 36.828125 7.238281 36.828125 5.375 C 36.828125 3.863281 36.347656 2.75 35.390625 2.03125 C 34.429688 1.320312 32.898438 0.9375 30.796875 0.875 L 21.28125 0.4375 C 20.957031 0.4375 20.65625 0.421875 20.375 0.390625 C 20.101562 0.359375 19.835938 0.34375 19.578125 0.34375 C 17.535156 0.34375 15.984375 0.78125 14.921875 1.65625 C 13.859375 2.53125 13.328125 3.738281 13.328125 5.28125 C 13.328125 7.320312 14.300781 8.894531 16.25 10 C 18.207031 11.113281 21.125 11.671875 25 11.671875 Z M 25 11.671875 "/></g></g></g><g fill="#ffffff" fill-opacity="1"><g transform="translate(699.064994, 430.818156)"><g><path d="M 47.625 -21.359375 L 16.640625 -21.359375 C 16.992188 -17.171875 18.1875 -14.117188 20.21875 -12.203125 C 22.257812 -10.296875 25.046875 -9.34375 28.578125 -9.34375 C 31.335938 -9.34375 33.578125 -9.859375 35.296875 -10.890625 C 37.015625 -11.929688 38.398438 -13.5 39.453125 -15.59375 L 40.375 -15.59375 L 48.40625 -10.4375 C 46.832031 -7.0625 44.457031 -4.320312 41.28125 -2.21875 C 38.113281 -0.125 33.878906 0.921875 28.578125 0.921875 C 23.597656 0.921875 19.289062 -0.0234375 15.65625 -1.921875 C 12.03125 -3.816406 9.234375 -6.632812 7.265625 -10.375 C 5.304688 -14.113281 4.328125 -18.679688 4.328125 -24.078125 C 4.328125 -29.554688 5.359375 -34.171875 7.421875 -37.921875 C 9.492188 -41.679688 12.289062 -44.484375 15.8125 -46.328125 C 19.34375 -48.179688 23.304688 -49.109375 27.703125 -49.109375 C 34.515625 -49.109375 39.734375 -47.300781 43.359375 -43.6875 C 46.992188 -40.082031 48.8125 -34.785156 48.8125 -27.796875 C 48.8125 -25.253906 48.722656 -23.285156 48.546875 -21.890625 Z M 37.234375 -29.1875 C 37.109375 -32.851562 36.253906 -35.523438 34.671875 -37.203125 C 33.085938 -38.878906 30.765625 -39.71875 27.703125 -39.71875 C 21.585938 -39.71875 17.988281 -36.207031 16.90625 -29.1875 Z M 37.234375 -29.1875 "/></g></g></g><g fill="#ffffff" fill-opacity="1"><g transform="translate(751.448742, 430.818156)"><g/></g></g><g fill="#ffffff" fill-opacity="1"><g transform="translate(772.550809, 430.818156)"><g><path d="M 10.65625 20.453125 C 8.59375 20.453125 6.722656 20.289062 5.046875 19.96875 C 3.367188 19.644531 2.007812 19.222656 0.96875 18.703125 L 2.890625 8.90625 L 3.671875 8.65625 C 4.398438 9.03125 5.300781 9.332031 6.375 9.5625 C 7.457031 9.800781 8.566406 9.921875 9.703125 9.921875 C 11.648438 9.921875 13.269531 9.664062 14.5625 9.15625 C 15.863281 8.644531 16.960938 7.796875 17.859375 6.609375 C 18.765625 5.429688 19.570312 3.796875 20.28125 1.703125 L 1.046875 -48.1875 L 13.71875 -48.1875 L 25.6875 -14.6875 L 26.734375 -14.6875 L 38.40625 -48.1875 L 50.734375 -48.1875 L 31.375 3.015625 C 29.832031 7.148438 28.132812 10.476562 26.28125 13 C 24.425781 15.519531 22.238281 17.390625 19.71875 18.609375 C 17.207031 19.835938 14.1875 20.453125 10.65625 20.453125 Z M 10.65625 20.453125 "/></g></g></g><g fill="#ffffff" fill-opacity="1"><g transform="translate(824.279175, 430.818156)"><g><path d="M 28 0.921875 C 23.28125 0.921875 19.132812 -0.046875 15.5625 -1.984375 C 12 -3.921875 9.234375 -6.757812 7.265625 -10.5 C 5.304688 -14.25 4.328125 -18.773438 4.328125 -24.078125 C 4.328125 -29.378906 5.304688 -33.90625 7.265625 -37.65625 C 9.234375 -41.414062 12 -44.265625 15.5625 -46.203125 C 19.132812 -48.140625 23.28125 -49.109375 28 -49.109375 C 32.71875 -49.109375 36.863281 -48.140625 40.4375 -46.203125 C 44.007812 -44.265625 46.785156 -41.414062 48.765625 -37.65625 C 50.742188 -33.90625 51.734375 -29.378906 51.734375 -24.078125 C 51.734375 -18.773438 50.742188 -14.25 48.765625 -10.5 C 46.785156 -6.757812 44.007812 -3.921875 40.4375 -1.984375 C 36.863281 -0.046875 32.71875 0.921875 28 0.921875 Z M 28 -9.34375 C 35.488281 -9.34375 39.234375 -14.253906 39.234375 -24.078125 C 39.234375 -29.171875 38.269531 -32.90625 36.34375 -35.28125 C 34.425781 -37.65625 31.644531 -38.84375 28 -38.84375 C 20.519531 -38.84375 16.78125 -33.921875 16.78125 -24.078125 C 16.78125 -14.253906 20.519531 -9.34375 28 -9.34375 Z M 28 -9.34375 "/></g></g></g><g fill="#ffffff" fill-opacity="1"><g transform="translate(880.289112, 430.818156)"><g><path d="M 22.0625 0.921875 C 16.644531 0.921875 12.644531 -0.554688 10.0625 -3.515625 C 7.488281 -6.472656 6.203125 -10.71875 6.203125 -16.25 L 6.203125 -48.1875 L 18.3125 -48.1875 L 18.3125 -17.78125 C 18.3125 -14.84375 18.941406 -12.695312 20.203125 -11.34375 C 21.472656 -9.988281 23.429688 -9.3125 26.078125 -9.3125 C 29.429688 -9.3125 32.039062 -10.410156 33.90625 -12.609375 C 35.769531 -14.804688 36.703125 -18.265625 36.703125 -22.984375 L 36.703125 -48.1875 L 48.8125 -48.1875 L 48.8125 0 L 37.1875 0 L 37.1875 -7.078125 L 36.265625 -7.296875 C 34.722656 -4.523438 32.835938 -2.460938 30.609375 -1.109375 C 28.378906 0.242188 25.53125 0.921875 22.0625 0.921875 Z M 22.0625 0.921875 "/></g></g></g><g fill="#ffffff" fill-opacity="1"><g transform="translate(936.036911, 430.818156)"><g><path d="M 6.953125 0 L 6.953125 -48.1875 L 18.703125 -48.1875 L 18.703125 -41.03125 L 19.625 -40.859375 C 20.78125 -43.535156 22.304688 -45.5 24.203125 -46.75 C 26.097656 -48 28.398438 -48.625 31.109375 -48.625 C 33.847656 -48.625 35.929688 -48.160156 37.359375 -47.234375 L 35.296875 -36.796875 L 34.390625 -36.609375 C 33.597656 -36.929688 32.835938 -37.164062 32.109375 -37.3125 C 31.378906 -37.457031 30.492188 -37.53125 29.453125 -37.53125 C 26.066406 -37.53125 23.484375 -36.34375 21.703125 -33.96875 C 19.929688 -31.59375 19.046875 -27.785156 19.046875 -22.546875 L 19.046875 0 Z M 6.953125 0 "/></g></g></g><g fill="#ffffff" fill-opacity="1"><g transform="translate(973.828367, 430.818156)"><g/></g></g><g fill="#ffffff" fill-opacity="1"><g transform="translate(994.930434, 430.818156)"><g><path d="M 48.8125 -63.875 L 48.8125 -53.3125 L 20.921875 -53.3125 L 20.921875 -36.390625 L 46.234375 -36.390625 L 46.234375 -25.953125 L 20.921875 -25.953125 L 20.921875 0 L 8.296875 0 L 8.296875 -63.875 Z M 48.8125 -63.875 "/></g></g></g><g fill="#ffffff" fill-opacity="1"><g transform="translate(1046.571421, 430.818156)"><g><path d="M 22.0625 0.921875 C 16.644531 0.921875 12.644531 -0.554688 10.0625 -3.515625 C 7.488281 -6.472656 6.203125 -10.71875 6.203125 -16.25 L 6.203125 -48.1875 L 18.3125 -48.1875 L 18.3125 -17.78125 C 18.3125 -14.84375 18.941406 -12.695312 20.203125 -11.34375 C 21.472656 -9.988281 23.429688 -9.3125 26.078125 -9.3125 C 29.429688 -9.3125 32.039062 -10.410156 33.90625 -12.609375 C 35.769531 -14.804688 36.703125 -18.265625 36.703125 -22.984375 L 36.703125 -48.1875 L 48.8125 -48.1875 L 48.8125 0 L 37.1875 0 L 37.1875 -7.078125 L 36.265625 -7.296875 C 34.722656 -4.523438 32.835938 -2.460938 30.609375 -1.109375 C 28.378906 0.242188 25.53125 0.921875 22.0625 0.921875 Z M 22.0625 0.921875 "/></g></g></g><g fill="#ffffff" fill-opacity="1"><g transform="translate(1102.31922, 430.818156)"><g><path d="M 33.25 -11.484375 L 36.390625 -2.53125 C 35.085938 -1.457031 33.441406 -0.613281 31.453125 0 C 29.472656 0.613281 27.234375 0.921875 24.734375 0.921875 C 19.515625 0.921875 15.550781 -0.5 12.84375 -3.34375 C 10.132812 -6.1875 8.78125 -10.316406 8.78125 -15.734375 L 8.78125 -38.625 L 1.4375 -38.625 L 1.4375 -48.234375 L 8.78125 -48.234375 L 8.78125 -57.625 L 20.890625 -59.59375 L 20.890625 -48.234375 L 34.5625 -48.234375 L 34.5625 -38.625 L 20.890625 -38.625 L 20.890625 -16.609375 C 20.890625 -14.210938 21.382812 -12.46875 22.375 -11.375 C 23.363281 -10.289062 24.804688 -9.75 26.703125 -9.75 C 28.859375 -9.75 30.734375 -10.328125 32.328125 -11.484375 Z M 33.25 -11.484375 "/></g></g></g><g fill="#ffffff" fill-opacity="1"><g transform="translate(1139.76116, 430.818156)"><g><path d="M 22.0625 0.921875 C 16.644531 0.921875 12.644531 -0.554688 10.0625 -3.515625 C 7.488281 -6.472656 6.203125 -10.71875 6.203125 -16.25 L 6.203125 -48.1875 L 18.3125 -48.1875 L 18.3125 -17.78125 C 18.3125 -14.84375 18.941406 -12.695312 20.203125 -11.34375 C 21.472656 -9.988281 23.429688 -9.3125 26.078125 -9.3125 C 29.429688 -9.3125 32.039062 -10.410156 33.90625 -12.609375 C 35.769531 -14.804688 36.703125 -18.265625 36.703125 -22.984375 L 36.703125 -48.1875 L 48.8125 -48.1875 L 48.8125 0 L 37.1875 0 L 37.1875 -7.078125 L 36.265625 -7.296875 C 34.722656 -4.523438 32.835938 -2.460938 30.609375 -1.109375 C 28.378906 0.242188 25.53125 0.921875 22.0625 0.921875 Z M 22.0625 0.921875 "/></g></g></g><g fill="#ffffff" fill-opacity="1"><g transform="translate(1195.508959, 430.818156)"><g><path d="M 6.953125 0 L 6.953125 -48.1875 L 18.703125 -48.1875 L 18.703125 -41.03125 L 19.625 -40.859375 C 20.78125 -43.535156 22.304688 -45.5 24.203125 -46.75 C 26.097656 -48 28.398438 -48.625 31.109375 -48.625 C 33.847656 -48.625 35.929688 -48.160156 37.359375 -47.234375 L 35.296875 -36.796875 L 34.390625 -36.609375 C 33.597656 -36.929688 32.835938 -37.164062 32.109375 -37.3125 C 31.378906 -37.457031 30.492188 -37.53125 29.453125 -37.53125 C 26.066406 -37.53125 23.484375 -36.34375 21.703125 -33.96875 C 19.929688 -31.59375 19.046875 -27.785156 19.046875 -22.546875 L 19.046875 0 Z M 6.953125 0 "/></g></g></g><g fill="#ffffff" fill-opacity="1"><g transform="translate(1233.300415, 430.818156)"><g><path d="M 47.625 -21.359375 L 16.640625 -21.359375 C 16.992188 -17.171875 18.1875 -14.117188 20.21875 -12.203125 C 22.257812 -10.296875 25.046875 -9.34375 28.578125 -9.34375 C 31.335938 -9.34375 33.578125 -9.859375 35.296875 -10.890625 C 37.015625 -11.929688 38.398438 -13.5 39.453125 -15.59375 L 40.375 -15.59375 L 48.40625 -10.4375 C 46.832031 -7.0625 44.457031 -4.320312 41.28125 -2.21875 C 38.113281 -0.125 33.878906 0.921875 28.578125 0.921875 C 23.597656 0.921875 19.289062 -0.0234375 15.65625 -1.921875 C 12.03125 -3.816406 9.234375 -6.632812 7.265625 -10.375 C 5.304688 -14.113281 4.328125 -18.679688 4.328125 -24.078125 C 4.328125 -29.554688 5.359375 -34.171875 7.421875 -37.921875 C 9.492188 -41.679688 12.289062 -44.484375 15.8125 -46.328125 C 19.34375 -48.179688 23.304688 -49.109375 27.703125 -49.109375 C 34.515625 -49.109375 39.734375 -47.300781 43.359375 -43.6875 C 46.992188 -40.082031 48.8125 -34.785156 48.8125 -27.796875 C 48.8125 -25.253906 48.722656 -23.285156 48.546875 -21.890625 Z M 37.234375 -29.1875 C 37.109375 -32.851562 36.253906 -35.523438 34.671875 -37.203125 C 33.085938 -38.878906 30.765625 -39.71875 27.703125 -39.71875 C 21.585938 -39.71875 17.988281 -36.207031 16.90625 -29.1875 Z M 37.234375 -29.1875 "/></g></g></g><g fill="#ffffff" fill-opacity="1"><g transform="translate(1285.684163, 430.818156)"><g><path d="M 19.484375 -21.1875 L 8.5625 -21.1875 L 7.6875 -63.875 L 20.359375 -63.875 Z M 14.03125 0.4375 C 12.507812 0.4375 11.171875 0.132812 10.015625 -0.46875 C 8.867188 -1.082031 7.984375 -1.925781 7.359375 -3 C 6.734375 -4.082031 6.421875 -5.296875 6.421875 -6.640625 C 6.421875 -8.003906 6.734375 -9.234375 7.359375 -10.328125 C 7.984375 -11.421875 8.867188 -12.273438 10.015625 -12.890625 C 11.171875 -13.503906 12.507812 -13.8125 14.03125 -13.8125 C 16.300781 -13.8125 18.125 -13.140625 19.5 -11.796875 C 20.882812 -10.453125 21.578125 -8.75 21.578125 -6.6875 C 21.578125 -4.613281 20.882812 -2.90625 19.5 -1.5625 C 18.125 -0.226562 16.300781 0.4375 14.03125 0.4375 Z M 14.03125 0.4375 "/></g></g></g></svg>