<svg xmlns="http://www.w3.org/2000/svg" xmlns:xlink="http://www.w3.org/1999/xlink" width="1920" zoomAndPan="magnify" viewBox="0 0 1440 809.999993" height="1080" preserveAspectRatio="xMidYMid meet" version="1.0"><path stroke-linecap="round" transform="matrix(0.36461, 0, 0, 0.364639, 181.367546, 290.946567)" fill-opacity="1" fill="#c60000" fill-rule="nonzero" stroke-linejoin="round" d="M 338.684794 60.748057 C 327.157071 72.210604 308.515587 72.146328 297.062858 60.619505 L 295.927228 59.483963 C 263.30463 26.638946 220.450642 10.152162 177.543087 10.002185 C 135.042645 9.884345 92.488636 25.803359 59.769616 57.823501 C -6.643351 122.817212 -6.343373 230.982945 59.158947 296.887233 L 79.985985 317.851909 L 279.899836 519.014248 C 300.030497 539.261177 332.770944 539.368303 353.019453 519.239214 L 554.165357 319.340969 L 574.992394 298.654822 C 640.655417 233.393294 641.973177 125.30255 576.44943 59.891045 C 510.957824 -5.488322 404.401384 -4.534896 338.695507 60.75877 Z M 338.684794 60.748057 " stroke="#620000" stroke-width="20" stroke-opacity="1" stroke-miterlimit="4"/><path fill="#ff0000" d="M 303.609375 325.515625 C 300.085938 329.019531 294.382812 329.003906 290.875 325.472656 L 290.527344 325.128906 C 280.546875 315.082031 267.4375 310.039062 254.316406 309.992188 C 241.3125 309.957031 228.300781 314.828125 218.292969 324.621094 C 197.980469 344.503906 198.070312 377.589844 218.105469 397.75 L 224.476562 404.160156 L 285.621094 465.691406 C 291.777344 471.886719 301.789062 471.921875 307.984375 465.761719 L 369.515625 404.613281 L 375.882812 398.28125 C 395.96875 378.316406 396.371094 345.257812 376.328125 325.246094 C 356.296875 305.242188 323.699219 305.539062 303.605469 325.511719 Z M 303.609375 325.515625 " fill-opacity="1" fill-rule="nonzero"/><path fill="#ffffff" d="M 344.359375 324.226562 C 344.773438 324.378906 345.183594 324.542969 345.597656 324.699219 C 346.65625 325.085938 343.671875 323.824219 345.128906 324.503906 C 345.925781 324.878906 346.726562 325.253906 347.503906 325.671875 C 349.066406 326.5 350.570312 327.421875 352.019531 328.433594 C 352.378906 328.6875 352.730469 328.957031 353.089844 329.210938 C 353.984375 329.839844 351.296875 327.71875 352.707031 328.921875 C 353.382812 329.496094 354.0625 330.058594 354.714844 330.65625 C 356.019531 331.847656 357.25 333.121094 358.40625 334.457031 C 358.949219 335.082031 360.441406 337.402344 358.976562 335.09375 C 359.445312 335.835938 360.015625 336.527344 360.5 337.261719 C 361.421875 338.664062 362.269531 340.117188 363.03125 341.613281 C 363.230469 342.007812 363.425781 342.40625 363.613281 342.800781 C 363.710938 343.007812 364.414062 344.652344 363.800781 343.164062 C 363.1875 341.671875 363.816406 343.222656 363.9375 343.546875 C 364.09375 343.957031 364.25 344.375 364.390625 344.789062 C 365 346.542969 365.480469 348.332031 365.859375 350.152344 C 366.835938 354.828125 372.589844 357.972656 377.070312 356.519531 C 382.011719 354.917969 384.484375 350.3125 383.4375 345.308594 C 379.695312 327.417969 366.148438 312.886719 349.203125 306.644531 C 344.71875 304.992188 339.019531 308.488281 337.988281 313.011719 C 336.816406 318.167969 339.558594 322.457031 344.355469 324.222656 Z M 344.359375 324.226562 " fill-opacity="1" fill-rule="nonzero"/><path fill="#ffffff" d="M 379.078125 381.433594 C 383.847656 381.433594 388.410156 377.238281 388.191406 372.316406 C 387.972656 367.394531 384.1875 363.199219 379.078125 363.199219 C 374.308594 363.199219 369.742188 367.394531 369.960938 372.316406 C 370.179688 377.238281 373.964844 381.433594 379.078125 381.433594 Z M 379.078125 381.433594 " fill-opacity="1" fill-rule="nonzero"/><path stroke-linecap="round" transform="matrix(0.36461, 0, 0, 0.364639, 181.367546, 290.946567)" fill-opacity="1" fill="#c60000" fill-rule="nonzero" stroke-linejoin="round" d="M 1075.891228 60.748057 C 1064.363505 72.210604 1045.72202 72.146328 1034.258579 60.619505 L 1033.133661 59.483963 C 1000.50035 26.638946 957.635649 10.152162 914.738807 10.002185 C 872.238365 9.884345 829.695069 25.803359 796.965336 57.823501 C 730.563083 122.817212 730.863061 230.982945 796.354667 296.887233 L 817.192418 317.851909 L 1017.095557 519.014248 C 1037.226217 539.261177 1069.966664 539.368303 1090.215173 519.239214 L 1291.37179 319.340969 L 1312.188115 298.654822 C 1377.861851 233.393294 1379.168897 125.30255 1313.64515 59.891045 C 1248.164257 -5.488322 1141.597104 -4.534896 1075.901941 60.75877 Z M 1075.891228 60.748057 " stroke="#620000" stroke-width="20" stroke-opacity="1" stroke-miterlimit="4"/><path fill="#ff0000" d="M 572.402344 325.515625 C 568.875 329.019531 563.171875 329.003906 559.664062 325.472656 L 559.320312 325.128906 C 549.335938 315.082031 536.226562 310.039062 523.105469 309.992188 C 510.105469 309.957031 497.089844 314.828125 487.082031 324.621094 C 466.769531 344.503906 466.859375 377.589844 486.894531 397.75 L 493.265625 404.160156 L 554.410156 465.691406 C 560.570312 471.886719 570.582031 471.921875 576.777344 465.761719 L 638.304688 404.613281 L 644.675781 398.28125 C 664.761719 378.316406 665.160156 345.257812 645.117188 325.246094 C 625.085938 305.242188 592.492188 305.539062 572.398438 325.511719 Z M 572.402344 325.515625 " fill-opacity="1" fill-rule="nonzero"/><path fill="#ffffff" d="M 613.148438 324.226562 C 613.566406 324.378906 613.972656 324.542969 614.390625 324.699219 C 615.445312 325.085938 612.464844 323.824219 613.917969 324.503906 C 614.71875 324.878906 615.515625 325.253906 616.296875 325.671875 C 617.855469 326.5 619.363281 327.421875 620.808594 328.433594 C 621.171875 328.6875 621.519531 328.957031 621.882812 329.210938 C 622.777344 329.839844 620.089844 327.71875 621.5 328.921875 C 622.175781 329.496094 622.851562 330.058594 623.503906 330.65625 C 624.808594 331.847656 626.042969 333.121094 627.199219 334.457031 C 627.738281 335.082031 629.234375 337.402344 627.765625 335.09375 C 628.238281 335.835938 628.804688 336.527344 629.292969 337.261719 C 630.214844 338.664062 631.058594 340.117188 631.820312 341.613281 C 632.023438 342.007812 632.214844 342.40625 632.40625 342.800781 C 632.5 343.007812 633.203125 344.652344 632.589844 343.164062 C 631.976562 341.671875 632.605469 343.222656 632.730469 343.546875 C 632.886719 343.957031 633.039062 344.375 633.179688 344.789062 C 633.789062 346.542969 634.273438 348.332031 634.652344 350.152344 C 635.628906 354.828125 641.382812 357.972656 645.863281 356.519531 C 650.804688 354.917969 653.273438 350.3125 652.230469 345.308594 C 648.488281 327.417969 634.9375 312.886719 617.992188 306.644531 C 613.511719 304.992188 607.808594 308.488281 606.78125 313.011719 C 605.605469 318.167969 608.347656 322.457031 613.144531 324.222656 Z M 613.148438 324.226562 " fill-opacity="1" fill-rule="nonzero"/><path fill="#ffffff" d="M 647.867188 381.433594 C 652.636719 381.433594 657.203125 377.238281 656.984375 372.316406 C 656.761719 367.375 652.980469 363.199219 647.867188 363.199219 C 643.097656 363.199219 638.535156 367.394531 638.753906 372.316406 C 638.976562 377.257812 642.757812 381.433594 647.867188 381.433594 Z M 647.867188 381.433594 " fill-opacity="1" fill-rule="nonzero"/><path stroke-linecap="round" transform="matrix(0.36461, 0, 0, 0.364639, 181.367546, 290.946567)" fill-opacity="1" fill="#c60000" fill-rule="nonzero" stroke-linejoin="round" d="M 1826.725229 60.748057 C 1815.197507 72.210604 1796.556022 72.146328 1785.103294 60.619505 L 1783.967663 59.483963 C 1751.345065 26.638946 1708.480364 10.152162 1665.583523 10.002185 C 1623.083081 9.884345 1580.529071 25.803359 1547.810051 57.823501 C 1481.397084 122.817212 1481.697062 230.982945 1547.199382 296.887233 L 1568.02642 317.851909 L 1767.940272 519.014248 C 1788.070932 539.261177 1820.811379 539.368303 1841.059888 519.239214 L 2042.205792 319.340969 L 2063.03283 298.654822 C 2128.695852 233.393294 2130.013612 125.30255 2064.489865 59.891045 C 1998.998259 -5.488322 1892.441819 -4.534896 1826.735943 60.75877 Z M 1826.725229 60.748057 " stroke="#620000" stroke-width="20" stroke-opacity="1" stroke-miterlimit="4"/><path fill="#ff0000" d="M 846.164062 325.515625 C 842.640625 329.019531 836.9375 329.003906 833.429688 325.472656 L 833.082031 325.128906 C 823.101562 315.082031 809.992188 310.039062 796.871094 309.992188 C 783.867188 309.957031 770.855469 314.828125 760.847656 324.621094 C 740.535156 344.503906 740.625 377.589844 760.660156 397.75 L 767.03125 404.160156 L 828.175781 465.691406 C 834.332031 471.886719 844.34375 471.921875 850.539062 465.761719 L 912.066406 404.613281 L 918.4375 398.28125 C 938.523438 378.316406 938.925781 345.257812 918.882812 325.246094 C 898.851562 305.242188 866.253906 305.539062 846.160156 325.511719 Z M 846.164062 325.515625 " fill-opacity="1" fill-rule="nonzero"/><path fill="#ffffff" d="M 886.914062 324.226562 C 887.328125 324.378906 887.738281 324.542969 888.152344 324.699219 C 889.210938 325.085938 886.226562 323.824219 887.683594 324.503906 C 888.480469 324.878906 889.28125 325.253906 890.058594 325.671875 C 891.621094 326.5 893.125 327.421875 894.574219 328.433594 C 894.933594 328.6875 895.285156 328.957031 895.644531 329.210938 C 896.539062 329.839844 893.851562 327.71875 895.261719 328.921875 C 895.9375 329.496094 896.617188 330.058594 897.269531 330.65625 C 898.574219 331.847656 899.804688 333.121094 900.960938 334.457031 C 901.5 335.082031 902.996094 337.402344 901.53125 335.09375 C 902 335.835938 902.570312 336.527344 903.054688 337.261719 C 903.976562 338.664062 904.824219 340.117188 905.585938 341.613281 C 905.785156 342.007812 905.980469 342.40625 906.167969 342.800781 C 906.261719 343.007812 906.96875 344.652344 906.355469 343.164062 C 905.742188 341.671875 906.371094 343.222656 906.492188 343.546875 C 906.648438 343.957031 906.804688 344.375 906.945312 344.789062 C 907.554688 346.542969 908.035156 348.332031 908.414062 350.152344 C 909.390625 354.828125 915.144531 357.972656 919.625 356.519531 C 924.566406 354.917969 927.039062 350.3125 925.992188 345.308594 C 922.25 327.417969 908.703125 312.886719 891.753906 306.644531 C 887.273438 304.992188 881.570312 308.488281 880.542969 313.011719 C 879.371094 318.167969 882.113281 322.457031 886.910156 324.222656 Z M 886.914062 324.226562 " fill-opacity="1" fill-rule="nonzero"/><path fill="#ffffff" d="M 921.632812 381.433594 C 926.402344 381.433594 930.964844 377.238281 930.746094 372.316406 C 930.523438 367.375 926.742188 363.199219 921.632812 363.199219 C 916.863281 363.199219 912.296875 367.394531 912.515625 372.316406 C 912.738281 377.257812 916.519531 381.433594 921.632812 381.433594 Z M 921.632812 381.433594 " fill-opacity="1" fill-rule="nonzero"/><path stroke-linecap="round" transform="matrix(0.36461, 0, 0, 0.364639, 181.367546, 290.946567)" fill-opacity="1" fill="#c60000" fill-rule="nonzero" stroke-linejoin="round" d="M 2623.434425 60.748057 C 2611.895988 72.210604 2593.265217 72.146328 2581.801776 60.619505 L 2580.666145 59.483963 C 2548.043547 26.638946 2505.178846 10.152162 2462.282004 10.002185 C 2419.781562 9.884345 2377.227553 25.803359 2344.508533 57.823501 C 2278.095566 122.817212 2278.395544 230.982945 2343.897864 296.887233 L 2364.724902 317.851909 L 2564.638754 519.014248 C 2584.769414 539.261177 2617.509861 539.368303 2637.75837 519.239214 L 2838.914987 319.340969 L 2859.731312 298.654822 C 2925.405048 233.393294 2926.712094 125.30255 2861.188347 59.891045 C 2795.696741 -5.488322 2689.140301 -4.534896 2623.445138 60.75877 Z M 2623.434425 60.748057 " stroke="#620000" stroke-width="20" stroke-opacity="1" stroke-miterlimit="4"/><path fill="#ff0000" d="M 1136.648438 325.515625 C 1133.125 329.019531 1127.421875 329.003906 1123.914062 325.472656 L 1123.566406 325.128906 C 1113.585938 315.082031 1100.476562 310.039062 1087.355469 309.992188 C 1074.351562 309.957031 1061.339844 314.828125 1051.332031 324.621094 C 1031.019531 344.503906 1031.109375 377.589844 1051.144531 397.75 L 1057.515625 404.160156 L 1118.660156 465.691406 C 1124.816406 471.886719 1134.832031 471.921875 1141.023438 465.761719 L 1202.554688 404.613281 L 1208.921875 398.28125 C 1229.007812 378.316406 1229.410156 345.257812 1209.367188 325.246094 C 1189.335938 305.242188 1156.738281 305.539062 1136.644531 325.511719 Z M 1136.648438 325.515625 " fill-opacity="1" fill-rule="nonzero"/><path fill="#ffffff" d="M 1177.394531 324.226562 C 1177.8125 324.378906 1178.21875 324.542969 1178.632812 324.699219 C 1179.691406 325.085938 1176.710938 323.824219 1178.164062 324.503906 C 1178.960938 324.878906 1179.761719 325.253906 1180.542969 325.671875 C 1182.101562 326.5 1183.609375 327.421875 1185.054688 328.433594 C 1185.417969 328.6875 1185.765625 328.957031 1186.128906 329.210938 C 1187.019531 329.839844 1184.332031 327.71875 1185.746094 328.921875 C 1186.417969 329.496094 1187.097656 330.058594 1187.75 330.65625 C 1189.054688 331.847656 1190.289062 333.121094 1191.441406 334.457031 C 1191.984375 335.082031 1193.476562 337.402344 1192.011719 335.09375 C 1192.484375 335.835938 1193.050781 336.527344 1193.535156 337.261719 C 1194.457031 338.664062 1195.304688 340.117188 1196.066406 341.613281 C 1196.265625 342.007812 1196.460938 342.40625 1196.648438 342.800781 C 1196.746094 343.007812 1197.449219 344.652344 1196.835938 343.164062 C 1196.246094 341.71875 1196.851562 343.222656 1196.972656 343.546875 C 1197.132812 343.957031 1197.285156 344.375 1197.425781 344.789062 C 1198.035156 346.542969 1198.515625 348.332031 1198.894531 350.152344 C 1199.871094 354.828125 1205.625 357.972656 1210.109375 356.519531 C 1215.046875 354.917969 1217.519531 350.3125 1216.472656 345.308594 C 1212.734375 327.417969 1199.183594 312.886719 1182.238281 306.644531 C 1177.753906 304.992188 1172.054688 308.488281 1171.023438 313.011719 C 1169.851562 318.167969 1172.59375 322.457031 1177.390625 324.222656 Z M 1177.394531 324.226562 " fill-opacity="1" fill-rule="nonzero"/><path fill="#ffffff" d="M 1212.117188 381.433594 C 1216.886719 381.433594 1221.449219 377.238281 1221.230469 372.316406 C 1221.007812 367.375 1217.230469 363.199219 1212.117188 363.199219 C 1207.347656 363.199219 1202.78125 367.394531 1203 372.316406 C 1203.222656 377.257812 1207.003906 381.433594 1212.117188 381.433594 Z M 1212.117188 381.433594 " fill-opacity="1" fill-rule="nonzero"/></svg>