<svg xmlns="http://www.w3.org/2000/svg" xmlns:xlink="http://www.w3.org/1999/xlink" width="1920" zoomAndPan="magnify" viewBox="0 0 1440 809.999993" height="1080" preserveAspectRatio="xMidYMid meet" version="1.0"><path stroke-linecap="round" transform="matrix(0.36468, 0, 0, 0.36468, 53.090514, 288.093169)" fill-opacity="1" fill="#bbb5b8" fill-rule="nonzero" stroke-linejoin="round" d="M 338.69414 60.746214 C 327.157911 72.207463 308.519991 72.153906 297.058742 60.617677 L 295.93404 59.482263 C 263.296259 26.640965 220.450468 10.145335 177.540409 9.995375 C 135.037384 9.877549 92.491513 25.79476 59.768041 57.821989 C -6.642935 122.819054 -6.343015 230.983253 59.157488 296.890791 L 79.991254 317.853094 L 279.899003 519.014083 C 300.025813 539.258719 332.770709 539.365834 353.015345 519.239023 L 554.165623 319.341985 L 574.988677 298.647468 C 640.660563 233.393329 641.96736 125.30411 576.445434 59.889298 C 510.955642 -5.493379 404.39816 -4.529348 338.704851 60.756926 Z M 338.69414 60.746214 " stroke="#620000" stroke-width="20" stroke-opacity="1" stroke-miterlimit="4"/><path fill="#bababa" d="M 175.355469 322.664062 C 171.832031 326.167969 166.125 326.15625 162.617188 322.625 L 162.273438 322.277344 C 152.285156 312.230469 139.175781 307.1875 126.050781 307.140625 C 113.046875 307.105469 100.03125 311.976562 90.023438 321.769531 C 69.707031 341.65625 69.796875 374.746094 89.835938 394.90625 L 96.207031 401.320312 L 157.363281 462.859375 C 163.523438 469.054688 173.535156 469.085938 179.734375 462.929688 L 241.273438 401.769531 L 247.644531 395.441406 C 267.734375 375.472656 268.136719 342.410156 248.089844 322.394531 C 228.054688 302.390625 195.449219 302.6875 175.351562 322.660156 Z M 175.355469 322.664062 " fill-opacity="1" fill-rule="nonzero"/><path fill="#ffffff" d="M 216.113281 321.378906 C 216.527344 321.53125 216.9375 321.695312 217.351562 321.847656 C 218.410156 322.238281 215.429688 320.972656 216.882812 321.65625 C 217.679688 322.03125 218.480469 322.40625 219.261719 322.820312 C 220.820312 323.648438 222.328125 324.570312 223.773438 325.585938 C 224.136719 325.835938 224.488281 326.105469 224.847656 326.363281 C 225.742188 326.988281 223.054688 324.871094 224.464844 326.074219 C 225.140625 326.648438 225.816406 327.207031 226.46875 327.808594 C 227.777344 329 229.007812 330.273438 230.164062 331.609375 C 230.703125 332.234375 232.199219 334.554688 230.734375 332.246094 C 231.203125 332.988281 231.773438 333.679688 232.257812 334.414062 C 233.179688 335.816406 234.027344 337.269531 234.789062 338.765625 C 234.988281 339.160156 235.183594 339.558594 235.371094 339.953125 C 235.46875 340.160156 236.171875 341.808594 235.558594 340.316406 C 234.945312 338.824219 235.574219 340.375 235.695312 340.699219 C 235.851562 341.109375 236.007812 341.527344 236.148438 341.941406 C 236.757812 343.695312 237.238281 345.488281 237.617188 347.304688 C 238.597656 351.980469 244.351562 355.125 248.832031 353.671875 C 253.773438 352.074219 256.246094 347.464844 255.199219 342.460938 C 251.457031 324.570312 237.90625 310.035156 220.957031 303.792969 C 216.472656 302.140625 210.769531 305.636719 209.742188 310.160156 C 208.566406 315.316406 211.3125 319.609375 216.109375 321.375 Z M 216.113281 321.378906 " fill-opacity="1" fill-rule="nonzero"/><path fill="#ffffff" d="M 250.839844 378.589844 C 255.609375 378.589844 260.175781 374.394531 259.957031 369.472656 C 259.738281 364.546875 255.949219 360.355469 250.839844 360.355469 C 246.066406 360.355469 241.503906 364.546875 241.722656 369.472656 C 241.941406 374.394531 245.726562 378.589844 250.839844 378.589844 Z M 250.839844 378.589844 " fill-opacity="1" fill-rule="nonzero"/><path stroke-linecap="round" transform="matrix(0.36468, 0, 0, 0.36468, 53.090514, 288.093169)" fill-opacity="1" fill="#bbb5b8" fill-rule="nonzero" stroke-linejoin="round" d="M 1075.888108 60.746214 C 1064.36259 72.207463 1045.724671 72.153906 1034.263422 60.617677 L 1033.128008 59.482263 C 1000.500938 26.640965 957.644436 10.145335 914.745088 9.995375 C 872.242063 9.877549 829.685481 25.79476 796.97272 57.821989 C 730.561744 122.819054 730.861664 230.983253 796.362167 296.890791 L 817.185222 317.853094 L 1017.103682 519.014083 C 1037.230493 539.258719 1069.964677 539.365834 1090.220025 519.239023 L 1291.370302 319.341985 L 1312.193356 298.647468 C 1377.865242 233.393329 1379.172039 125.30411 1313.650113 59.889298 C 1248.160322 -5.493379 1141.60284 -4.529348 1075.898819 60.756926 Z M 1075.888108 60.746214 " stroke="#620000" stroke-width="20" stroke-opacity="1" stroke-miterlimit="4"/><path fill="#bababa" d="M 444.199219 322.664062 C 440.671875 326.167969 434.96875 326.15625 431.460938 322.625 L 431.113281 322.277344 C 421.128906 312.230469 408.019531 307.1875 394.894531 307.140625 C 381.890625 307.105469 368.875 311.976562 358.863281 321.769531 C 338.546875 341.65625 338.636719 374.746094 358.675781 394.90625 L 365.046875 401.320312 L 426.207031 462.859375 C 432.363281 469.054688 442.378906 469.085938 448.574219 462.929688 L 510.113281 401.769531 L 516.484375 395.441406 C 536.574219 375.472656 536.976562 342.410156 516.929688 322.394531 C 496.894531 302.390625 464.292969 302.6875 444.195312 322.660156 Z M 444.199219 322.664062 " fill-opacity="1" fill-rule="nonzero"/><path fill="#ffffff" d="M 484.957031 321.378906 C 485.371094 321.53125 485.78125 321.695312 486.195312 321.847656 C 487.253906 322.238281 484.269531 320.972656 485.726562 321.65625 C 486.523438 322.03125 487.320312 322.40625 488.101562 322.820312 C 489.664062 323.648438 491.167969 324.570312 492.617188 325.585938 C 492.976562 325.835938 493.328125 326.105469 493.691406 326.363281 C 494.582031 326.988281 491.894531 324.871094 493.304688 326.074219 C 493.980469 326.648438 494.660156 327.207031 495.3125 327.808594 C 496.617188 329 497.851562 330.273438 499.007812 331.609375 C 499.546875 332.234375 501.042969 334.554688 499.574219 332.246094 C 500.046875 332.988281 500.613281 333.679688 501.101562 334.414062 C 502.023438 335.816406 502.867188 337.269531 503.628906 338.765625 C 503.832031 339.160156 504.023438 339.558594 504.214844 339.953125 C 504.308594 340.160156 505.011719 341.808594 504.398438 340.316406 C 503.789062 338.824219 504.414062 340.375 504.539062 340.699219 C 504.695312 341.109375 504.847656 341.527344 504.992188 341.941406 C 505.601562 343.695312 506.082031 345.488281 506.460938 347.304688 C 507.4375 351.980469 513.191406 355.125 517.675781 353.671875 C 522.617188 352.074219 525.089844 347.464844 524.042969 342.460938 C 520.300781 324.570312 506.75 310.035156 489.796875 303.792969 C 485.316406 302.140625 479.613281 305.636719 478.585938 310.160156 C 477.410156 315.316406 480.152344 319.609375 484.953125 321.375 Z M 484.957031 321.378906 " fill-opacity="1" fill-rule="nonzero"/><path fill="#ffffff" d="M 519.679688 378.589844 C 524.449219 378.589844 529.015625 374.394531 528.796875 369.472656 C 528.574219 364.53125 524.792969 360.355469 519.679688 360.355469 C 514.910156 360.355469 510.34375 364.546875 510.5625 369.472656 C 510.785156 374.414062 514.566406 378.589844 519.679688 378.589844 Z M 519.679688 378.589844 " fill-opacity="1" fill-rule="nonzero"/><path stroke-linecap="round" transform="matrix(0.36468, 0, 0, 0.36468, 53.090514, 288.093169)" fill-opacity="1" fill="#bbb5b8" fill-rule="nonzero" stroke-linejoin="round" d="M 1826.72846 60.746214 C 1815.202942 72.207463 1796.565023 72.153906 1785.103774 60.617677 L 1783.968361 59.482263 C 1751.341291 26.640965 1708.484788 10.145335 1665.574729 9.995375 C 1623.082415 9.877549 1580.525834 25.79476 1547.813072 57.821989 C 1481.402096 122.819054 1481.702017 230.983253 1547.20252 296.890791 L 1568.025574 317.853094 L 1767.944035 519.014083 C 1788.070845 539.258719 1820.805029 539.365834 1841.060377 519.239023 L 2042.210654 319.341985 L 2063.033709 298.647468 C 2128.694883 233.393329 2130.012391 125.30411 2064.490465 59.889298 C 1999.000674 -5.493379 1892.443192 -4.529348 1826.739171 60.756926 Z M 1826.72846 60.746214 " stroke="#620000" stroke-width="20" stroke-opacity="1" stroke-miterlimit="4"/><path fill="#bababa" d="M 718.015625 322.664062 C 714.488281 326.167969 708.785156 326.15625 705.277344 322.625 L 704.929688 322.277344 C 694.945312 312.230469 681.835938 307.1875 668.710938 307.140625 C 655.707031 307.105469 642.691406 311.976562 632.679688 321.769531 C 612.363281 341.65625 612.453125 374.746094 632.492188 394.90625 L 638.863281 401.320312 L 700.023438 462.859375 C 706.179688 469.054688 716.195312 469.085938 722.390625 462.929688 L 783.929688 401.769531 L 790.300781 395.441406 C 810.390625 375.472656 810.792969 342.410156 790.746094 322.394531 C 770.710938 302.390625 738.109375 302.6875 718.011719 322.660156 Z M 718.015625 322.664062 " fill-opacity="1" fill-rule="nonzero"/><path fill="#ffffff" d="M 758.773438 321.378906 C 759.1875 321.53125 759.597656 321.695312 760.011719 321.847656 C 761.070312 322.238281 758.085938 320.972656 759.542969 321.65625 C 760.339844 322.03125 761.136719 322.40625 761.917969 322.820312 C 763.480469 323.648438 764.984375 324.570312 766.433594 325.585938 C 766.792969 325.835938 767.144531 326.105469 767.503906 326.363281 C 768.398438 326.988281 765.710938 324.871094 767.121094 326.074219 C 767.796875 326.648438 768.476562 327.207031 769.128906 327.808594 C 770.433594 329 771.667969 330.273438 772.824219 331.609375 C 773.363281 332.234375 774.859375 334.554688 773.390625 332.246094 C 773.863281 332.988281 774.429688 333.679688 774.917969 334.414062 C 775.839844 335.816406 776.683594 337.269531 777.445312 338.765625 C 777.648438 339.160156 777.839844 339.558594 778.03125 339.953125 C 778.125 340.160156 778.828125 341.808594 778.214844 340.316406 C 777.605469 338.824219 778.230469 340.375 778.355469 340.699219 C 778.511719 341.109375 778.664062 341.527344 778.808594 341.941406 C 779.417969 343.695312 779.898438 345.488281 780.277344 347.304688 C 781.253906 351.980469 787.007812 355.125 791.492188 353.671875 C 796.433594 352.074219 798.90625 347.464844 797.859375 342.460938 C 794.117188 324.570312 780.566406 310.035156 763.613281 303.792969 C 759.132812 302.140625 753.429688 305.636719 752.402344 310.160156 C 751.226562 315.316406 753.96875 319.609375 758.769531 321.375 Z M 758.773438 321.378906 " fill-opacity="1" fill-rule="nonzero"/><path fill="#ffffff" d="M 793.496094 378.589844 C 798.265625 378.589844 802.832031 374.394531 802.613281 369.472656 C 802.390625 364.53125 798.609375 360.355469 793.496094 360.355469 C 788.726562 360.355469 784.160156 364.546875 784.378906 369.472656 C 784.601562 374.414062 788.382812 378.589844 793.496094 378.589844 Z M 793.496094 378.589844 " fill-opacity="1" fill-rule="nonzero"/><path stroke-linecap="round" transform="matrix(0.36468, 0, 0, 0.36468, 53.090514, 288.093169)" fill-opacity="1" fill="#bbb5b8" fill-rule="nonzero" stroke-linejoin="round" d="M 2623.435231 60.746214 C 2611.899002 72.207463 2593.261083 72.153906 2581.799834 60.617677 L 2580.675132 59.482263 C 2548.037351 26.640965 2505.180848 10.145335 2462.2815 9.995375 C 2419.778476 9.877549 2377.232605 25.79476 2344.509132 57.821989 C 2278.098156 122.819054 2278.398077 230.983253 2343.89858 296.890791 L 2364.732346 317.853094 L 2564.640095 519.014083 C 2584.766905 539.258719 2617.511801 539.365834 2637.756437 519.239023 L 2838.906714 319.341985 L 2859.729769 298.647468 C 2925.401655 233.393329 2926.708451 125.30411 2861.186525 59.889298 C 2795.696734 -5.493379 2689.139252 -4.529348 2623.435231 60.756926 Z M 2623.435231 60.746214 " stroke="#620000" stroke-width="20" stroke-opacity="1" stroke-miterlimit="4"/><path fill="#bababa" d="M 1008.554688 322.664062 C 1005.027344 326.167969 999.324219 326.15625 995.816406 322.625 L 995.472656 322.277344 C 985.484375 312.230469 972.375 307.1875 959.25 307.140625 C 946.246094 307.105469 933.230469 311.976562 923.21875 321.769531 C 902.902344 341.65625 902.996094 374.746094 923.035156 394.90625 L 929.40625 401.320312 L 990.5625 462.859375 C 996.722656 469.054688 1006.734375 469.085938 1012.933594 462.929688 L 1074.472656 401.769531 L 1080.84375 395.441406 C 1100.933594 375.472656 1101.332031 342.410156 1081.289062 322.394531 C 1061.25 302.390625 1028.648438 302.6875 1008.550781 322.660156 Z M 1008.554688 322.664062 " fill-opacity="1" fill-rule="nonzero"/><path fill="#ffffff" d="M 1049.308594 321.378906 C 1049.722656 321.53125 1050.132812 321.695312 1050.546875 321.847656 C 1051.605469 322.238281 1048.621094 320.972656 1050.078125 321.65625 C 1050.875 322.03125 1051.675781 322.40625 1052.457031 322.820312 C 1054.015625 323.648438 1055.523438 324.570312 1056.96875 325.585938 C 1057.332031 325.835938 1057.679688 326.105469 1058.042969 326.363281 C 1058.9375 326.988281 1056.25 324.871094 1057.660156 326.074219 C 1058.335938 326.648438 1059.011719 327.207031 1059.664062 327.808594 C 1060.972656 329 1062.203125 330.273438 1063.359375 331.609375 C 1063.898438 332.234375 1065.394531 334.554688 1063.929688 332.246094 C 1064.398438 332.988281 1064.96875 333.679688 1065.453125 334.414062 C 1066.375 335.816406 1067.222656 337.269531 1067.984375 338.765625 C 1068.183594 339.160156 1068.378906 339.558594 1068.566406 339.953125 C 1068.660156 340.160156 1069.367188 341.808594 1068.753906 340.316406 C 1068.164062 338.871094 1068.769531 340.375 1068.890625 340.699219 C 1069.046875 341.109375 1069.203125 341.527344 1069.34375 341.941406 C 1069.953125 343.695312 1070.433594 345.488281 1070.8125 347.304688 C 1071.789062 351.980469 1077.546875 355.125 1082.027344 353.671875 C 1086.96875 352.074219 1089.441406 347.464844 1088.394531 342.460938 C 1084.652344 324.570312 1071.101562 310.035156 1054.152344 303.792969 C 1049.667969 302.140625 1043.964844 305.636719 1042.9375 310.160156 C 1041.761719 315.316406 1044.503906 319.609375 1049.304688 321.375 Z M 1049.308594 321.378906 " fill-opacity="1" fill-rule="nonzero"/><path fill="#ffffff" d="M 1084.035156 378.589844 C 1088.808594 378.589844 1093.371094 374.394531 1093.152344 369.472656 C 1092.929688 364.53125 1089.148438 360.355469 1084.035156 360.355469 C 1079.265625 360.355469 1074.703125 364.546875 1074.921875 369.472656 C 1075.140625 374.414062 1078.925781 378.589844 1084.035156 378.589844 Z M 1084.035156 378.589844 " fill-opacity="1" fill-rule="nonzero"/><path stroke-linecap="round" transform="matrix(0.36468, 0, 0, 0.36468, 53.090514, 288.093169)" fill-opacity="1" fill="#bbb5b8" fill-rule="nonzero" stroke-linejoin="round" d="M 3360.629199 60.746214 C 3349.103682 72.207463 3330.455051 72.153906 3319.004513 60.617677 L 3317.8691 59.482263 C 3285.24203 26.640965 3242.374816 10.145335 3199.475468 9.995375 C 3156.983155 9.877549 3114.426573 25.79476 3081.713812 57.821989 C 3015.302836 122.819054 3015.602756 230.983253 3081.103259 296.890791 L 3101.926313 317.853094 L 3301.844774 519.014083 C 3321.971584 539.258719 3354.705769 539.365834 3374.961116 519.239023 L 3576.111393 319.341985 L 3596.934448 298.647468 C 3662.595623 233.393329 3663.913131 125.30411 3598.391205 59.889298 C 3532.901413 -5.493379 3426.343931 -4.529348 3360.639911 60.756926 Z M 3360.629199 60.746214 " stroke="#620000" stroke-width="20" stroke-opacity="1" stroke-miterlimit="4"/><path fill="#bababa" d="M 1277.398438 322.664062 C 1273.871094 326.167969 1268.167969 326.15625 1264.660156 322.625 L 1264.3125 322.277344 C 1254.328125 312.230469 1241.21875 307.1875 1228.09375 307.140625 C 1215.089844 307.105469 1202.074219 311.976562 1192.0625 321.769531 C 1171.746094 341.65625 1171.835938 374.746094 1191.875 394.90625 L 1198.246094 401.320312 L 1259.402344 462.859375 C 1265.5625 469.054688 1275.578125 469.085938 1281.773438 462.929688 L 1343.3125 401.769531 L 1349.683594 395.441406 C 1369.773438 375.472656 1370.175781 342.410156 1350.128906 322.394531 C 1330.09375 302.390625 1297.492188 302.6875 1277.394531 322.660156 Z M 1277.398438 322.664062 " fill-opacity="1" fill-rule="nonzero"/><path fill="#ffffff" d="M 1318.152344 321.378906 C 1318.566406 321.53125 1318.976562 321.695312 1319.390625 321.847656 C 1320.449219 322.238281 1317.464844 320.972656 1318.921875 321.65625 C 1319.71875 322.03125 1320.515625 322.40625 1321.296875 322.820312 C 1322.859375 323.648438 1324.363281 324.570312 1325.8125 325.585938 C 1326.171875 325.835938 1326.523438 326.105469 1326.882812 326.363281 C 1327.777344 326.988281 1325.089844 324.871094 1326.5 326.074219 C 1327.175781 326.648438 1327.855469 327.207031 1328.507812 327.808594 C 1329.8125 329 1331.046875 330.273438 1332.203125 331.609375 C 1332.742188 332.234375 1334.238281 334.554688 1332.769531 332.246094 C 1333.242188 332.988281 1333.808594 333.679688 1334.292969 334.414062 C 1335.21875 335.816406 1336.0625 337.269531 1336.824219 338.765625 C 1337.027344 339.160156 1337.21875 339.558594 1337.410156 339.953125 C 1337.503906 340.160156 1338.207031 341.808594 1337.59375 340.316406 C 1336.984375 338.824219 1337.609375 340.375 1337.734375 340.699219 C 1337.890625 341.109375 1338.042969 341.527344 1338.1875 341.941406 C 1338.792969 343.695312 1339.277344 345.488281 1339.65625 347.304688 C 1340.632812 351.980469 1346.386719 355.125 1350.871094 353.671875 C 1355.8125 352.074219 1358.285156 347.464844 1357.238281 342.460938 C 1353.496094 324.570312 1339.945312 310.035156 1322.992188 303.792969 C 1318.511719 302.140625 1312.808594 305.636719 1311.78125 310.160156 C 1310.605469 315.316406 1313.347656 319.609375 1318.148438 321.375 Z M 1318.152344 321.378906 " fill-opacity="1" fill-rule="nonzero"/><path fill="#ffffff" d="M 1352.875 378.589844 C 1357.644531 378.589844 1362.210938 374.394531 1361.992188 369.472656 C 1361.769531 364.53125 1357.988281 360.355469 1352.875 360.355469 C 1348.105469 360.355469 1343.539062 364.546875 1343.757812 369.472656 C 1343.980469 374.414062 1347.761719 378.589844 1352.875 378.589844 Z M 1352.875 378.589844 " fill-opacity="1" fill-rule="nonzero"/></svg>