<svg xmlns="http://www.w3.org/2000/svg" xmlns:xlink="http://www.w3.org/1999/xlink" width="1920" zoomAndPan="magnify" viewBox="0 0 1440 809.999993" height="1080" preserveAspectRatio="xMidYMid meet" version="1.0"><path stroke-linecap="round" transform="matrix(0.36461, 0, 0, 0.364639, 53.0893, 288.092466)" fill-opacity="1" fill="#c60000" fill-rule="nonzero" stroke-linejoin="round" d="M 338.687323 60.75502 C 327.159598 72.206854 308.518111 72.153291 297.054667 60.615756 L 295.92975 59.480214 C 263.296433 26.635197 220.453153 10.148412 177.534877 9.998435 C 135.045142 9.880596 92.491126 25.799609 59.772101 57.819751 C -6.640877 122.824175 -6.340899 230.979196 59.161432 296.894196 L 79.988473 317.84816 L 279.902356 519.010499 C 300.03302 539.257427 332.773472 539.375266 353.021984 519.235465 L 554.16792 319.33722 L 574.994961 298.651072 C 640.657994 233.389544 641.96504 125.2988 576.451997 59.887295 C 510.96038 -5.492072 404.403923 -4.527933 338.698036 60.75502 Z M 338.687323 60.75502 " stroke="#620000" stroke-width="20" stroke-opacity="1" stroke-miterlimit="4"/><path fill="#ff0000" d="M 175.332031 322.660156 C 171.804688 326.164062 166.105469 326.148438 162.597656 322.621094 L 162.25 322.273438 C 152.265625 312.226562 139.160156 307.183594 126.035156 307.136719 C 113.035156 307.101562 100.023438 311.972656 90.011719 321.765625 C 69.699219 341.652344 69.792969 374.734375 89.828125 394.894531 L 96.195312 401.304688 L 157.34375 462.839844 C 163.5 469.035156 173.511719 469.066406 179.707031 462.90625 L 241.234375 401.757812 L 247.605469 395.425781 C 267.691406 375.464844 268.09375 342.402344 248.050781 322.390625 C 228.019531 302.390625 195.421875 302.683594 175.328125 322.65625 Z M 175.332031 322.660156 " fill-opacity="1" fill-rule="nonzero"/><path fill="#ffffff" d="M 216.082031 321.371094 C 216.496094 321.527344 216.90625 321.691406 217.320312 321.84375 C 218.378906 322.234375 215.394531 320.96875 216.851562 321.648438 C 217.648438 322.027344 218.449219 322.402344 219.226562 322.816406 C 220.789062 323.644531 222.292969 324.566406 223.742188 325.582031 C 224.101562 325.832031 224.453125 326.101562 224.8125 326.359375 C 225.707031 326.984375 223.019531 324.867188 224.429688 326.070312 C 225.105469 326.640625 225.785156 327.203125 226.4375 327.800781 C 227.742188 328.992188 228.972656 330.265625 230.128906 331.605469 C 230.667969 332.226562 232.164062 334.546875 230.699219 332.238281 C 231.167969 332.984375 231.738281 333.671875 232.222656 334.410156 C 233.144531 335.808594 233.992188 337.265625 234.753906 338.757812 C 234.953125 339.152344 235.144531 339.550781 235.335938 339.949219 C 235.429688 340.152344 236.132812 341.800781 235.523438 340.308594 C 234.910156 338.816406 235.535156 340.367188 235.660156 340.691406 C 235.816406 341.105469 235.96875 341.519531 236.113281 341.933594 C 236.722656 343.6875 237.203125 345.480469 237.582031 347.300781 C 238.558594 351.972656 244.3125 355.117188 248.792969 353.664062 C 253.734375 352.066406 256.207031 347.460938 255.160156 342.453125 C 251.417969 324.5625 237.871094 310.03125 220.921875 303.789062 C 216.441406 302.136719 210.738281 305.636719 209.710938 310.15625 C 208.539062 315.3125 211.277344 319.605469 216.078125 321.371094 Z M 216.082031 321.371094 " fill-opacity="1" fill-rule="nonzero"/><path fill="#ffffff" d="M 250.800781 378.578125 C 255.566406 378.578125 260.132812 374.382812 259.914062 369.460938 C 259.695312 364.539062 255.910156 360.34375 250.800781 360.34375 C 246.03125 360.34375 241.464844 364.539062 241.683594 369.460938 C 241.902344 374.382812 245.6875 378.578125 250.800781 378.578125 Z M 250.800781 378.578125 " fill-opacity="1" fill-rule="nonzero"/><path stroke-linecap="round" transform="matrix(0.36461, 0, 0, 0.364639, 53.0893, 288.092466)" fill-opacity="1" fill="#c60000" fill-rule="nonzero" stroke-linejoin="round" d="M 1075.893873 60.75502 C 1064.355435 72.206854 1045.724661 72.153291 1034.261218 60.615756 L 1033.125587 59.480214 C 1000.502984 26.635197 957.638276 10.148412 914.741427 9.998435 C 872.240979 9.880596 829.686962 25.799609 796.967938 57.819751 C 730.55496 122.824175 730.854938 230.979196 796.357268 296.894196 L 817.195023 317.84816 L 1017.098193 519.010499 C 1037.228857 539.257427 1069.969308 539.375266 1090.217821 519.235465 L 1291.37447 319.33722 L 1312.190797 298.651072 C 1377.864544 233.389544 1379.171591 125.2988 1313.647833 59.887295 C 1248.156217 -5.492072 1141.59976 -4.527933 1075.904586 60.75502 Z M 1075.893873 60.75502 " stroke="#620000" stroke-width="20" stroke-opacity="1" stroke-miterlimit="4"/><path fill="#ff0000" d="M 444.121094 322.660156 C 440.597656 326.164062 434.894531 326.148438 431.386719 322.621094 L 431.039062 322.273438 C 421.058594 312.226562 407.949219 307.183594 394.828125 307.136719 C 381.824219 307.101562 368.8125 311.972656 358.804688 321.765625 C 338.492188 341.652344 338.582031 374.734375 358.617188 394.894531 L 364.988281 401.304688 L 426.132812 462.839844 C 432.292969 469.035156 442.304688 469.066406 448.496094 462.90625 L 510.027344 401.757812 L 516.394531 395.425781 C 536.480469 375.464844 536.882812 342.402344 516.839844 322.390625 C 496.808594 302.390625 464.210938 302.683594 444.117188 322.65625 Z M 444.121094 322.660156 " fill-opacity="1" fill-rule="nonzero"/><path fill="#ffffff" d="M 484.871094 321.371094 C 485.289062 321.527344 485.695312 321.691406 486.109375 321.84375 C 487.167969 322.234375 484.1875 320.96875 485.640625 321.648438 C 486.4375 322.027344 487.238281 322.402344 488.019531 322.816406 C 489.578125 323.644531 491.085938 324.566406 492.53125 325.582031 C 492.894531 325.832031 493.242188 326.101562 493.605469 326.359375 C 494.496094 326.984375 491.808594 324.867188 493.222656 326.070312 C 493.894531 326.640625 494.574219 327.203125 495.226562 327.800781 C 496.53125 328.992188 497.765625 330.265625 498.921875 331.605469 C 499.460938 332.226562 500.953125 334.546875 499.488281 332.238281 C 499.960938 332.984375 500.527344 333.671875 501.011719 334.410156 C 501.933594 335.808594 502.78125 337.265625 503.542969 338.757812 C 503.742188 339.152344 503.9375 339.550781 504.125 339.949219 C 504.222656 340.152344 504.925781 341.800781 504.3125 340.308594 C 503.699219 338.816406 504.328125 340.367188 504.449219 340.691406 C 504.609375 341.105469 504.761719 341.519531 504.902344 341.933594 C 505.511719 343.6875 505.992188 345.480469 506.371094 347.300781 C 507.351562 351.972656 513.101562 355.117188 517.585938 353.664062 C 522.523438 352.066406 524.996094 347.460938 523.949219 342.453125 C 520.210938 324.5625 506.660156 310.03125 489.714844 303.789062 C 485.234375 302.136719 479.53125 305.636719 478.5 310.15625 C 477.328125 315.3125 480.070312 319.605469 484.867188 321.371094 Z M 484.871094 321.371094 " fill-opacity="1" fill-rule="nonzero"/><path fill="#ffffff" d="M 519.589844 378.578125 C 524.359375 378.578125 528.921875 374.382812 528.703125 369.460938 C 528.484375 364.519531 524.703125 360.34375 519.589844 360.34375 C 514.820312 360.34375 510.253906 364.539062 510.472656 369.460938 C 510.695312 374.402344 514.476562 378.578125 519.589844 378.578125 Z M 519.589844 378.578125 " fill-opacity="1" fill-rule="nonzero"/><path stroke-linecap="round" transform="matrix(0.36461, 0, 0, 0.364639, 53.0893, 288.092466)" fill-opacity="1" fill="#c60000" fill-rule="nonzero" stroke-linejoin="round" d="M 1826.727993 60.75502 C 1815.200269 72.206854 1796.558781 72.153291 1785.095338 60.615756 L 1783.970421 59.480214 C 1751.337104 26.635197 1708.48311 10.148412 1665.575548 9.998435 C 1623.075099 9.880596 1580.531796 25.799609 1547.812772 57.819751 C 1481.399794 122.824175 1481.699772 230.979196 1547.202102 296.894196 L 1568.029143 317.84816 L 1767.943027 519.010499 C 1788.07369 539.257427 1820.814142 539.375266 1841.062654 519.235465 L 2042.20859 319.33722 L 2063.024918 298.651072 C 2128.698664 233.389544 2130.005711 125.2988 2064.492667 59.887295 C 1999.00105 -5.492072 1892.444594 -4.527933 1826.738707 60.75502 Z M 1826.727993 60.75502 " stroke="#620000" stroke-width="20" stroke-opacity="1" stroke-miterlimit="4"/><path fill="#ff0000" d="M 717.886719 322.660156 C 714.359375 326.164062 708.660156 326.148438 705.152344 322.621094 L 704.804688 322.273438 C 694.820312 312.226562 681.714844 307.183594 668.589844 307.136719 C 655.589844 307.101562 642.578125 311.972656 632.566406 321.765625 C 612.253906 341.652344 612.347656 374.734375 632.382812 394.894531 L 638.75 401.304688 L 699.898438 462.839844 C 706.054688 469.035156 716.066406 469.066406 722.261719 462.90625 L 783.789062 401.757812 L 790.160156 395.425781 C 810.246094 375.464844 810.648438 342.402344 790.605469 322.390625 C 770.574219 302.390625 737.976562 302.683594 717.882812 322.65625 Z M 717.886719 322.660156 " fill-opacity="1" fill-rule="nonzero"/><path fill="#ffffff" d="M 758.636719 321.371094 C 759.050781 321.527344 759.460938 321.691406 759.875 321.84375 C 760.933594 322.234375 757.949219 320.96875 759.40625 321.648438 C 760.203125 322.027344 761 322.402344 761.78125 322.816406 C 763.34375 323.644531 764.847656 324.566406 766.296875 325.582031 C 766.65625 325.832031 767.007812 326.101562 767.367188 326.359375 C 768.261719 326.984375 765.574219 324.867188 766.984375 326.070312 C 767.660156 326.640625 768.335938 327.203125 768.992188 327.800781 C 770.296875 328.992188 771.527344 330.265625 772.683594 331.605469 C 773.222656 332.226562 774.71875 334.546875 773.253906 332.238281 C 773.722656 332.984375 774.292969 333.671875 774.777344 334.410156 C 775.699219 335.808594 776.546875 337.265625 777.308594 338.757812 C 777.507812 339.152344 777.699219 339.550781 777.890625 339.949219 C 777.984375 340.152344 778.6875 341.800781 778.078125 340.308594 C 777.464844 338.816406 778.089844 340.367188 778.214844 340.691406 C 778.371094 341.105469 778.523438 341.519531 778.667969 341.933594 C 779.277344 343.6875 779.757812 345.480469 780.136719 347.300781 C 781.113281 351.972656 786.867188 355.117188 791.347656 353.664062 C 796.289062 352.066406 798.761719 347.460938 797.714844 342.453125 C 793.972656 324.5625 780.425781 310.03125 763.476562 303.789062 C 758.996094 302.136719 753.292969 305.636719 752.265625 310.15625 C 751.089844 315.3125 753.832031 319.605469 758.632812 321.371094 Z M 758.636719 321.371094 " fill-opacity="1" fill-rule="nonzero"/><path fill="#ffffff" d="M 793.355469 378.578125 C 798.121094 378.578125 802.6875 374.382812 802.46875 369.460938 C 802.246094 364.519531 798.464844 360.34375 793.355469 360.34375 C 788.585938 360.34375 784.019531 364.539062 784.238281 369.460938 C 784.460938 374.402344 788.242188 378.578125 793.355469 378.578125 Z M 793.355469 378.578125 " fill-opacity="1" fill-rule="nonzero"/><path stroke-linecap="round" transform="matrix(0.36461, 0, 0, 0.364639, 53.0893, 288.092466)" fill-opacity="1" fill="#c60000" fill-rule="nonzero" stroke-linejoin="round" d="M 2623.426601 60.75502 C 2611.898877 72.206854 2593.257389 72.153291 2581.804659 60.615756 L 2580.669028 59.480214 C 2548.035712 26.635197 2505.181717 10.148412 2462.284869 9.998435 C 2419.78442 9.880596 2377.230404 25.799609 2344.511379 57.819751 C 2278.098402 122.824175 2278.39838 230.979196 2343.90071 296.894196 L 2364.727751 317.84816 L 2564.641634 519.010499 C 2584.772298 539.257427 2617.51275 539.375266 2637.761262 519.235465 L 2838.907198 319.33722 L 2859.734239 298.651072 C 2925.397272 233.389544 2926.715032 125.2988 2861.191275 59.887295 C 2795.699658 -5.492072 2689.143201 -4.527933 2623.437314 60.75502 Z M 2623.426601 60.75502 " stroke="#620000" stroke-width="20" stroke-opacity="1" stroke-miterlimit="4"/><path fill="#ff0000" d="M 1008.371094 322.660156 C 1004.847656 326.164062 999.144531 326.148438 995.636719 322.621094 L 995.289062 322.273438 C 985.304688 312.226562 972.199219 307.183594 959.078125 307.136719 C 946.074219 307.101562 933.0625 311.972656 923.050781 321.765625 C 902.742188 341.652344 902.832031 374.734375 922.867188 394.894531 L 929.238281 401.304688 L 990.382812 462.839844 C 996.539062 469.035156 1006.550781 469.066406 1012.746094 462.90625 L 1074.273438 401.757812 L 1080.644531 395.425781 C 1100.730469 375.464844 1101.132812 342.402344 1081.089844 322.390625 C 1061.058594 302.390625 1028.460938 302.683594 1008.367188 322.65625 Z M 1008.371094 322.660156 " fill-opacity="1" fill-rule="nonzero"/><path fill="#ffffff" d="M 1049.117188 321.371094 C 1049.53125 321.527344 1049.941406 321.691406 1050.355469 321.84375 C 1051.414062 322.234375 1048.429688 320.96875 1049.886719 321.648438 C 1050.683594 322.027344 1051.484375 322.402344 1052.261719 322.816406 C 1053.824219 323.644531 1055.328125 324.566406 1056.777344 325.582031 C 1057.136719 325.832031 1057.488281 326.101562 1057.847656 326.359375 C 1058.742188 326.984375 1056.054688 324.867188 1057.464844 326.070312 C 1058.140625 326.640625 1058.820312 327.203125 1059.472656 327.800781 C 1060.777344 328.992188 1062.007812 330.265625 1063.164062 331.605469 C 1063.703125 332.226562 1065.199219 334.546875 1063.734375 332.238281 C 1064.203125 332.984375 1064.773438 333.671875 1065.257812 334.410156 C 1066.179688 335.808594 1067.027344 337.265625 1067.789062 338.757812 C 1067.988281 339.152344 1068.183594 339.550781 1068.371094 339.949219 C 1068.464844 340.152344 1069.171875 341.800781 1068.558594 340.308594 C 1067.96875 338.863281 1068.570312 340.367188 1068.695312 340.691406 C 1068.851562 341.105469 1069.007812 341.519531 1069.148438 341.933594 C 1069.757812 343.6875 1070.238281 345.480469 1070.617188 347.300781 C 1071.59375 351.972656 1077.347656 355.117188 1081.828125 353.664062 C 1086.769531 352.066406 1089.242188 347.460938 1088.195312 342.453125 C 1084.453125 324.5625 1070.90625 310.03125 1053.957031 303.789062 C 1049.476562 302.136719 1043.773438 305.636719 1042.746094 310.15625 C 1041.574219 315.3125 1044.316406 319.605469 1049.113281 321.371094 Z M 1049.117188 321.371094 " fill-opacity="1" fill-rule="nonzero"/><path fill="#ffffff" d="M 1083.839844 378.578125 C 1088.609375 378.578125 1093.171875 374.382812 1092.953125 369.460938 C 1092.730469 364.519531 1088.949219 360.34375 1083.839844 360.34375 C 1079.070312 360.34375 1074.503906 364.539062 1074.722656 369.460938 C 1074.945312 374.402344 1078.726562 378.578125 1083.839844 378.578125 Z M 1083.839844 378.578125 " fill-opacity="1" fill-rule="nonzero"/><path stroke-linecap="round" transform="matrix(0.36461, 0, 0, 0.364639, 53.0893, 288.092466)" fill-opacity="1" fill="#c60000" fill-rule="nonzero" stroke-linejoin="round" d="M 3360.633151 60.75502 C 3349.094713 72.206854 3330.463939 72.153291 3319.000496 60.615756 L 3317.864865 59.480214 C 3285.242262 26.635197 3242.377554 10.148412 3199.480706 9.998435 C 3156.980257 9.880596 3114.42624 25.799609 3081.707216 57.819751 C 3015.304952 122.824175 3015.60493 230.979196 3081.096546 296.894196 L 3101.934301 317.84816 L 3301.837471 519.010499 C 3321.968135 539.257427 3354.708586 539.375266 3374.957099 519.235465 L 3576.113748 319.33722 L 3596.930076 298.651072 C 3662.603822 233.389544 3663.910869 125.2988 3598.387111 59.887295 C 3532.895495 -5.492072 3426.339038 -4.527933 3360.643865 60.75502 Z M 3360.633151 60.75502 " stroke="#620000" stroke-width="20" stroke-opacity="1" stroke-miterlimit="4"/><path fill="#ff0000" d="M 1277.160156 322.660156 C 1273.636719 326.164062 1267.933594 326.148438 1264.425781 322.621094 L 1264.078125 322.273438 C 1254.097656 312.226562 1240.988281 307.183594 1227.867188 307.136719 C 1214.863281 307.101562 1201.851562 311.972656 1191.84375 321.765625 C 1171.53125 341.652344 1171.621094 374.734375 1191.65625 394.894531 L 1198.027344 401.304688 L 1259.171875 462.839844 C 1265.332031 469.035156 1275.34375 469.066406 1281.539062 462.90625 L 1343.066406 401.757812 L 1349.433594 395.425781 C 1369.519531 375.464844 1369.921875 342.402344 1349.878906 322.390625 C 1329.847656 302.390625 1297.253906 302.683594 1277.160156 322.65625 Z M 1277.160156 322.660156 " fill-opacity="1" fill-rule="nonzero"/><path fill="#ffffff" d="M 1317.90625 321.371094 C 1318.324219 321.527344 1318.730469 321.691406 1319.148438 321.84375 C 1320.203125 322.234375 1317.222656 320.96875 1318.675781 321.648438 C 1319.476562 322.027344 1320.273438 322.402344 1321.054688 322.816406 C 1322.613281 323.644531 1324.121094 324.566406 1325.566406 325.582031 C 1325.929688 325.832031 1326.277344 326.101562 1326.640625 326.359375 C 1327.53125 326.984375 1324.84375 324.867188 1326.257812 326.070312 C 1326.929688 326.640625 1327.609375 327.203125 1328.261719 327.800781 C 1329.566406 328.992188 1330.800781 330.265625 1331.957031 331.605469 C 1332.496094 332.226562 1333.988281 334.546875 1332.523438 332.238281 C 1332.996094 332.984375 1333.5625 333.671875 1334.046875 334.410156 C 1334.972656 335.808594 1335.816406 337.265625 1336.578125 338.757812 C 1336.777344 339.152344 1336.972656 339.550781 1337.160156 339.949219 C 1337.257812 340.152344 1337.960938 341.800781 1337.347656 340.308594 C 1336.734375 338.816406 1337.363281 340.367188 1337.488281 340.691406 C 1337.644531 341.105469 1337.796875 341.519531 1337.9375 341.933594 C 1338.546875 343.6875 1339.027344 345.480469 1339.40625 347.300781 C 1340.386719 351.972656 1346.140625 355.117188 1350.621094 353.664062 C 1355.558594 352.066406 1358.03125 347.460938 1356.984375 342.453125 C 1353.246094 324.5625 1339.695312 310.03125 1322.75 303.789062 C 1318.269531 302.136719 1312.566406 305.636719 1311.539062 310.15625 C 1310.363281 315.3125 1313.105469 319.605469 1317.902344 321.371094 Z M 1317.90625 321.371094 " fill-opacity="1" fill-rule="nonzero"/><path fill="#ffffff" d="M 1352.625 378.578125 C 1357.394531 378.578125 1361.960938 374.382812 1361.742188 369.460938 C 1361.519531 364.519531 1357.738281 360.34375 1352.625 360.34375 C 1347.855469 360.34375 1343.292969 364.539062 1343.511719 369.460938 C 1343.734375 374.402344 1347.511719 378.578125 1352.625 378.578125 Z M 1352.625 378.578125 " fill-opacity="1" fill-rule="nonzero"/></svg>