<svg xmlns="http://www.w3.org/2000/svg" xmlns:xlink="http://www.w3.org/1999/xlink" width="1920" zoomAndPan="magnify" viewBox="0 0 1440 809.999993" height="1080" preserveAspectRatio="xMidYMid meet" version="1.0"><defs><clipPath id="92ccb03458"><path d="M 0 630.683594 L 708.324219 630.683594 L 708.324219 810 L 0 810 Z M 0 630.683594 " clip-rule="nonzero"/></clipPath><clipPath id="8096b47cdc"><path d="M 571.789062 695.773438 L 708.324219 695.773438 L 708.324219 810 L 571.789062 810 Z M 571.789062 695.773438 " clip-rule="nonzero"/></clipPath><clipPath id="9e42ff2f62"><path d="M 662 705.070312 L 708.324219 705.070312 L 708.324219 810 L 662 810 Z M 662 705.070312 " clip-rule="nonzero"/></clipPath><clipPath id="723a0169f5"><path d="M 0 585.15625 L 708 585.15625 L 708 772 L 0 772 Z M 0 585.15625 " clip-rule="nonzero"/></clipPath><clipPath id="698b6556a7"><path d="M 663.910156 640.402344 L 1440 640.402344 L 1440 810 L 663.910156 810 Z M 663.910156 640.402344 " clip-rule="nonzero"/></clipPath><clipPath id="16bf16b17b"><path d="M 663.910156 719.382812 L 829.585938 719.382812 L 829.585938 810 L 663.910156 810 Z M 663.910156 719.382812 " clip-rule="nonzero"/></clipPath><clipPath id="e3646b5806"><path d="M 663.910156 730.667969 L 720.324219 730.667969 L 720.324219 810 L 663.910156 810 Z M 663.910156 730.667969 " clip-rule="nonzero"/></clipPath><clipPath id="7ee7fe0ef5"><path d="M 664 585.15625 L 1440 585.15625 L 1440 810 L 664 810 Z M 664 585.15625 " clip-rule="nonzero"/></clipPath><clipPath id="fb0057220e"><path d="M 282.742188 559 L 1157.242188 559 L 1157.242188 796.398438 L 282.742188 796.398438 Z M 282.742188 559 " clip-rule="nonzero"/></clipPath><clipPath id="982c3df78b"><path d="M 282.742188 489 L 1157.242188 489 L 1157.242188 706 L 282.742188 706 Z M 282.742188 489 " clip-rule="nonzero"/></clipPath><clipPath id="64e0780ff6"><path d="M 1080 585 L 1157.242188 585 L 1157.242188 685 L 1080 685 Z M 1080 585 " clip-rule="nonzero"/></clipPath><clipPath id="e5261d6d18"><path d="M 282.742188 605 L 337 605 L 337 724 L 282.742188 724 Z M 282.742188 605 " clip-rule="nonzero"/></clipPath><clipPath id="ad95890b0a"><path d="M 282.742188 605 L 316 605 L 316 704 L 282.742188 704 Z M 282.742188 605 " clip-rule="nonzero"/></clipPath></defs><g clip-path="url(#92ccb03458)"><path fill="#a6e6f2" d="M 24.792969 841.65625 L -4.476562 792.851562 L -23.988281 755.761719 L -39.625 671.816406 L 32.566406 630.820312 C 32.566406 630.820312 379.859375 642.535156 391.566406 642.535156 C 403.269531 642.535156 469.609375 671.816406 469.609375 671.816406 C 469.609375 671.816406 516.433594 675.722656 528.140625 671.816406 C 539.847656 667.914062 615.941406 687.433594 621.796875 687.433594 C 627.644531 687.433594 701.789062 708.910156 707.644531 708.910156 C 709.613281 708.910156 706.667969 752.34375 706.667969 752.34375 L 686.179688 771.378906 L 662.035156 841.65625 L 24.792969 841.65625 " fill-opacity="1" fill-rule="nonzero"/></g><path fill="#5ab6c4" d="M 117.898438 684.4375 L 129.175781 841.65625 L 136.980469 841.65625 L 137.695312 690.886719 L 205.265625 651.320312 L 144.785156 641.558594 L 117.898438 684.4375 " fill-opacity="1" fill-rule="nonzero"/><g clip-path="url(#8096b47cdc)"><path fill="#79d0df" d="M 686.179688 771.378906 L 706.667969 752.34375 C 706.667969 752.34375 709.613281 708.910156 707.644531 708.910156 C 704.289062 708.910156 678.585938 701.878906 656.105469 695.863281 L 571.972656 734.472656 L 578.015625 759.679688 L 591.71875 801.015625 L 594.9375 841.65625 L 662.035156 841.65625 L 686.179688 771.378906 " fill-opacity="1" fill-rule="nonzero"/></g><g clip-path="url(#9e42ff2f62)"><path fill="#5ab6c4" d="M 707.644531 708.910156 C 706.101562 708.910156 699.785156 707.40625 691.25 705.210938 L 677.429688 723.550781 L 672.238281 751.789062 C 672.238281 751.789062 661.464844 815.796875 662.035156 841.65625 L 686.179688 771.378906 L 706.667969 752.34375 C 706.667969 752.34375 709.613281 708.910156 707.644531 708.910156 " fill-opacity="1" fill-rule="nonzero"/></g><path fill="#79d0df" d="M 13.054688 685.480469 L 65.761719 814.324219 L 89.175781 660.0625 Z M 13.054688 685.480469 " fill-opacity="1" fill-rule="nonzero"/><path fill="#79d0df" d="M 428.667969 705.003906 C 428.667969 705.003906 354.46875 662.058594 334.011719 660.105469 C 313.554688 658.152344 214.046875 728.429688 214.046875 728.429688 L 221.121094 841.65625 L 417.285156 841.65625 L 428.667969 705.003906 " fill-opacity="1" fill-rule="nonzero"/><path fill="#5ab6c4" d="M 279.882812 732.335938 L 289.164062 841.65625 L 302.820312 841.65625 L 302.476562 733.964844 C 302.476562 733.964844 411.507812 736.652344 375.414062 699.5625 C 339.316406 662.46875 384.765625 680.335938 353.550781 678.515625 C 322.332031 676.699219 279.882812 732.335938 279.882812 732.335938 " fill-opacity="1" fill-rule="nonzero"/><path fill="#79d0df" d="M -9.109375 726.722656 C -12.035156 719.402344 -20.082031 668.890625 -20.082031 668.890625 C -20.082031 668.890625 -26.195312 668.53125 -33.96875 668.605469 L -39.625 671.816406 L -23.988281 755.761719 L -4.476562 792.851562 L 24.789062 841.65625 L 16.5 755.273438 C 16.5 755.273438 -6.183594 734.042969 -9.109375 726.722656 " fill-opacity="1" fill-rule="nonzero"/><path fill="#5ab6c4" d="M -7.417969 755.125 C -7.417969 755.125 -18.621094 728.1875 -21.546875 720.867188 C -24.476562 713.546875 -28.917969 668.707031 -28.917969 668.707031 C -28.917969 668.707031 -26.195312 668.53125 -33.96875 668.605469 L -39.625 671.816406 L -23.988281 755.761719 L 10.585938 817.96875 L -7.417969 755.125 " fill-opacity="1" fill-rule="nonzero"/><g clip-path="url(#723a0169f5)"><path fill="#f5fdff" d="M -39.625 671.816406 C -39.625 671.816406 -10.359375 613.25 1.347656 605.445312 C 13.054688 597.636719 193.421875 585.15625 193.421875 585.15625 C 193.421875 585.15625 597.859375 668.628906 655.96875 679.140625 C 665.972656 680.945312 707.644531 708.910156 707.644531 708.910156 C 707.644531 708.910156 694.21875 722.875 683.929688 724.484375 C 668.386719 726.914062 599.289062 732.617188 571.972656 734.472656 L 485.21875 755.761719 L 424.898438 771.878906 L 334.011719 736.238281 L 302.476562 733.964844 L 354.523438 705.492188 L 279.882812 732.335938 C 279.882812 732.335938 221.851562 728.429688 214.046875 728.429688 C 198.4375 728.429688 180.847656 705.003906 174.996094 703.050781 C 172.890625 702.351562 137.695312 690.886719 137.695312 690.886719 L 158.441406 671.816406 L 117.898438 684.4375 L 91.097656 675.722656 L 13.054688 685.480469 L -39.625 671.816406 " fill-opacity="1" fill-rule="nonzero"/></g><path fill="#5ab6c4" d="M 32.699219 599.425781 L 79.421875 614.71875 L 126.246094 614.71875 L 173.074219 630.820312 L 130.148438 610.324219 L 85.273438 611.300781 L 54.089844 596.953125 L 32.699219 599.425781 " fill-opacity="1" fill-rule="nonzero"/><path fill="#5ab6c4" d="M 345.742188 648.390625 L 396.476562 653.273438 L 479.394531 653.273438 L 513.8125 650.832031 L 525.839844 653.273438 L 479.394531 660.066406 L 404.277344 660.066406 L 345.742188 648.390625 " fill-opacity="1" fill-rule="nonzero"/><path fill="#79d0df" d="M 571.976562 734.472656 L 566.933594 717.933594 L 557.304688 702.5625 L 587.929688 705.210938 L 608.414062 715.007812 L 683.929688 724.484375 L 672.242188 751.789062 L 571.976562 734.472656 " fill-opacity="1" fill-rule="nonzero"/><path fill="#5ab6c4" d="M 557.300781 702.5625 C 557.300781 702.5625 570.496094 730.140625 571.976562 734.472656 C 571.976562 734.472656 574.023438 764.183594 574.617188 765.535156 C 579.875 777.558594 591.71875 801.015625 591.71875 801.015625 L 602.203125 736.238281 L 608.414062 715.007812 L 587.925781 705.210938 L 557.300781 702.5625 " fill-opacity="1" fill-rule="nonzero"/><g clip-path="url(#698b6556a7)"><path fill="#a6e6f2" d="M 1493.328125 896.40625 L 1528.839844 837.1875 L 1552.515625 792.175781 L 1571.492188 690.316406 L 1483.894531 640.570312 C 1483.894531 640.570312 1062.480469 654.78125 1048.277344 654.78125 C 1034.070312 654.78125 953.574219 690.316406 953.574219 690.316406 C 953.574219 690.316406 896.753906 695.054688 882.550781 690.316406 C 868.347656 685.578125 776.011719 709.265625 768.90625 709.265625 C 761.808594 709.265625 671.839844 735.324219 664.734375 735.324219 C 662.34375 735.324219 665.921875 788.03125 665.921875 788.03125 L 690.78125 811.128906 L 720.082031 896.40625 L 1493.328125 896.40625 " fill-opacity="1" fill-rule="nonzero"/></g><path fill="#5ab6c4" d="M 1380.351562 705.632812 L 1366.664062 896.40625 L 1357.195312 896.40625 L 1356.328125 713.453125 L 1274.332031 665.441406 L 1347.726562 653.597656 L 1380.351562 705.632812 " fill-opacity="1" fill-rule="nonzero"/><g clip-path="url(#16bf16b17b)"><path fill="#79d0df" d="M 690.78125 811.128906 L 665.921875 788.03125 C 665.921875 788.03125 662.34375 735.324219 664.734375 735.324219 C 668.804688 735.324219 699.996094 726.792969 727.273438 719.492188 L 829.363281 766.347656 L 822.03125 796.933594 L 805.40625 847.089844 L 801.496094 896.40625 L 720.082031 896.40625 L 690.78125 811.128906 " fill-opacity="1" fill-rule="nonzero"/></g><g clip-path="url(#e3646b5806)"><path fill="#5ab6c4" d="M 664.734375 735.324219 C 666.609375 735.324219 674.273438 733.503906 684.628906 730.835938 L 701.398438 753.089844 L 707.695312 787.359375 C 707.695312 787.359375 720.773438 865.027344 720.082031 896.40625 L 690.78125 811.128906 L 665.921875 788.03125 C 665.921875 788.03125 662.34375 735.324219 664.734375 735.324219 " fill-opacity="1" fill-rule="nonzero"/></g><path fill="#79d0df" d="M 1507.570312 706.898438 L 1443.609375 863.242188 L 1415.199219 676.054688 Z M 1507.570312 706.898438 " fill-opacity="1" fill-rule="nonzero"/><path fill="#79d0df" d="M 1003.253906 730.585938 C 1003.253906 730.585938 1093.289062 678.472656 1118.113281 676.101562 C 1142.9375 673.730469 1263.679688 759.011719 1263.679688 759.011719 L 1255.097656 896.40625 L 1017.066406 896.40625 L 1003.253906 730.585938 " fill-opacity="1" fill-rule="nonzero"/><path fill="#5ab6c4" d="M 1183.792969 763.75 L 1172.53125 896.40625 L 1155.960938 896.40625 L 1156.378906 765.726562 C 1156.378906 765.726562 1024.078125 768.988281 1067.871094 723.980469 C 1111.675781 678.972656 1056.523438 700.652344 1094.402344 698.445312 C 1132.28125 696.238281 1183.792969 763.75 1183.792969 763.75 " fill-opacity="1" fill-rule="nonzero"/><g clip-path="url(#7ee7fe0ef5)"><path fill="#f5fdff" d="M 1571.492188 690.316406 C 1571.492188 690.316406 1535.976562 619.25 1521.773438 609.773438 C 1507.570312 600.296875 1288.707031 585.15625 1288.707031 585.15625 C 1288.707031 585.15625 797.949219 686.445312 727.441406 699.199219 C 715.300781 701.394531 664.734375 735.324219 664.734375 735.324219 C 664.734375 735.324219 681.03125 752.269531 693.511719 754.222656 C 712.371094 757.175781 796.214844 764.089844 829.363281 766.347656 L 934.632812 792.175781 L 1007.828125 811.734375 L 1118.113281 768.488281 L 1156.378906 765.730469 L 1093.21875 731.179688 L 1183.792969 763.75 C 1183.792969 763.75 1254.210938 759.011719 1263.679688 759.011719 C 1282.617188 759.011719 1303.960938 730.585938 1311.066406 728.214844 C 1313.621094 727.363281 1356.328125 713.453125 1356.328125 713.453125 L 1331.152344 690.316406 L 1380.351562 705.632812 L 1412.867188 695.054688 L 1507.570312 706.898438 L 1571.492188 690.316406 " fill-opacity="1" fill-rule="nonzero"/></g><path fill="#5ab6c4" d="M 1483.730469 602.472656 L 1427.039062 621.027344 L 1370.21875 621.027344 L 1313.398438 640.570312 L 1365.484375 615.695312 L 1419.933594 616.878906 L 1457.777344 599.472656 L 1483.730469 602.472656 " fill-opacity="1" fill-rule="nonzero"/><path fill="#5ab6c4" d="M 1103.875 661.890625 L 1042.316406 667.8125 L 941.703125 667.8125 L 899.933594 664.851562 L 885.34375 667.8125 L 941.703125 676.054688 L 1032.847656 676.054688 L 1103.875 661.890625 " fill-opacity="1" fill-rule="nonzero"/><path fill="#79d0df" d="M 829.359375 766.34375 L 835.480469 746.277344 L 847.164062 727.625 L 810 730.835938 L 785.144531 742.726562 L 693.511719 754.222656 L 707.691406 787.355469 L 829.359375 766.34375 " fill-opacity="1" fill-rule="nonzero"/><path fill="#5ab6c4" d="M 847.164062 727.625 C 847.164062 727.625 831.15625 761.089844 829.359375 766.347656 C 829.359375 766.347656 826.875 802.394531 826.15625 804.039062 C 819.773438 818.628906 805.402344 847.089844 805.402344 847.089844 L 792.679688 768.488281 L 785.144531 742.726562 L 810.003906 730.835938 L 847.164062 727.625 " fill-opacity="1" fill-rule="nonzero"/><g clip-path="url(#fb0057220e)"><path fill="#bae9fb" d="M 1129.753906 671.449219 L 1157.242188 585.789062 L 339.503906 559.730469 L 344.140625 608.257812 L 282.726562 605.101562 L 296.855469 690.714844 L 326.324219 723.460938 L 435.773438 738.054688 L 660.074219 796.238281 L 888.308594 769.113281 L 889.585938 747.164062 L 918.144531 743.246094 L 926.191406 726.648438 L 1129.753906 671.449219 " fill-opacity="1" fill-rule="nonzero"/></g><g clip-path="url(#982c3df78b)"><path fill="#d1f0fc" d="M 448.027344 515.230469 L 621.3125 490.542969 L 816.792969 489.066406 L 824.996094 509.964844 L 1084.855469 534.972656 L 1157.242188 585.789062 L 933.054688 635.703125 L 920.59375 647.640625 L 870.546875 658.050781 L 883.566406 677.121094 L 651.234375 705.09375 L 560.664062 683.699219 L 336.90625 645.09375 L 282.726562 605.101562 L 366.332031 584.222656 L 339.503906 559.730469 L 376.632812 528.4375 L 448.027344 515.230469 " fill-opacity="1" fill-rule="nonzero"/></g><path fill="#e0f5fd" d="M 883.5625 677.121094 L 888.3125 769.113281 L 787.425781 781.101562 L 763.089844 697.800781 L 790.375 694.417969 L 803.515625 758.652344 L 796.441406 691.886719 L 883.5625 677.121094 " fill-opacity="1" fill-rule="nonzero"/><g clip-path="url(#64e0780ff6)"><path fill="#e0f5fd" d="M 1157.242188 585.789062 L 1129.753906 671.449219 L 1080.941406 684.683594 L 1092.582031 653.003906 L 1106.730469 647.085938 L 1114.816406 620.042969 L 1098.644531 612.4375 L 1098.121094 598.953125 L 1157.242188 585.789062 " fill-opacity="1" fill-rule="nonzero"/></g><path fill="#e0f5fd" d="M 1103.699219 620.886719 L 1080.941406 635.234375 L 1044.066406 635.234375 L 1052.15625 658.074219 L 1048.710938 693.421875 L 1073.886719 684.683594 L 1080.941406 650.46875 L 1098.644531 642.015625 L 1103.699219 620.886719 " fill-opacity="1" fill-rule="nonzero"/><path fill="#e0f5fd" d="M 1031.367188 613.8125 L 1039.015625 657.15625 L 1031.367188 698.128906 L 1011.019531 703.644531 L 1025.015625 652.160156 L 1017.847656 616.824219 L 1031.367188 613.8125 " fill-opacity="1" fill-rule="nonzero"/><path fill="#e0f5fd" d="M 662.019531 705.09375 L 670.390625 795.007812 L 740.019531 786.734375 L 727.714844 750.050781 L 732.769531 738.367188 L 719.984375 743.4375 L 688.296875 735.832031 L 723.082031 729.109375 L 711.539062 703.644531 L 662.019531 705.09375 " fill-opacity="1" fill-rule="nonzero"/><path fill="#e0f5fd" d="M 920.59375 647.640625 L 918.148438 743.246094 L 926.195312 726.648438 L 933.054688 635.703125 L 920.59375 647.640625 " fill-opacity="1" fill-rule="nonzero"/><path fill="#e0f5fd" d="M 961.585938 629.351562 L 956.285156 684.683594 L 963.964844 657.015625 L 956.285156 718.488281 L 984.960938 710.710938 L 984.960938 652.195312 L 988.921875 638.820312 L 983.800781 643.632812 L 972.605469 638.285156 L 984.445312 635.238281 L 986.363281 623.835938 L 961.585938 629.351562 " fill-opacity="1" fill-rule="nonzero"/><path fill="#91dcf8" d="M 339.503906 559.734375 L 366.332031 584.226562 L 342.414062 590.195312 Z M 339.503906 559.734375 " fill-opacity="1" fill-rule="nonzero"/><path fill="#91dcf8" d="M 888.316406 654.355469 L 897.355469 746.097656 L 918.148438 743.246094 L 920.59375 647.640625 L 888.316406 654.355469 " fill-opacity="1" fill-rule="nonzero"/><path fill="#91dcf8" d="M 972.605469 638.285156 L 983.800781 643.632812 L 988.921875 638.820312 L 984.445312 635.238281 L 972.605469 638.285156 " fill-opacity="1" fill-rule="nonzero"/><path fill="#91dcf8" d="M 1044.066406 635.234375 L 1103.699219 620.886719 L 1080.941406 635.234375 L 1044.066406 635.234375 " fill-opacity="1" fill-rule="nonzero"/><path fill="#91dcf8" d="M 1048.714844 693.421875 L 1052.15625 658.074219 L 1044.070312 635.238281 L 1039.011719 620.886719 L 1045.582031 658.730469 L 1031.371094 698.128906 L 1048.714844 693.421875 " fill-opacity="1" fill-rule="nonzero"/><path fill="#91dcf8" d="M 719.984375 743.4375 L 748.9375 729.109375 L 740.019531 725.515625 L 688.296875 735.832031 L 719.984375 743.4375 " fill-opacity="1" fill-rule="nonzero"/><path fill="#91dcf8" d="M 763.089844 697.800781 L 787.425781 781.101562 L 772.621094 781.101562 L 748.9375 713.203125 L 734.859375 709.992188 L 726.539062 698.128906 L 763.089844 697.800781 " fill-opacity="1" fill-rule="nonzero"/><path fill="#89cee9" d="M 719.984375 743.4375 L 720.53125 746.097656 L 729.101562 787.585938 L 708.742188 790.449219 L 688.296875 735.832031 L 719.984375 743.4375 " fill-opacity="1" fill-rule="nonzero"/><path fill="#89cee9" d="M 1080.933594 635.238281 L 1048.707031 693.425781 L 1052.152344 658.078125 L 1044.066406 635.238281 L 1080.933594 635.238281 " fill-opacity="1" fill-rule="nonzero"/><path fill="#89cee9" d="M 621.746094 698.128906 L 627.347656 734.476562 L 585.109375 735.832031 L 581.910156 743.4375 L 630.546875 756.015625 L 637.777344 790.449219 L 601.726562 781.101562 L 575.511719 744.292969 L 588.308594 729.109375 L 613.265625 729.109375 L 601.835938 693.425781 L 621.746094 698.128906 " fill-opacity="1" fill-rule="nonzero"/><path fill="#91dcf8" d="M 633.746094 735.832031 L 645.265625 753.875 L 630.546875 756.015625 L 581.910156 743.4375 L 585.109375 735.832031 L 627.347656 734.476562 L 633.746094 735.832031 " fill-opacity="1" fill-rule="nonzero"/><path fill="#e0f5fd" d="M 645.265625 753.875 L 655.34375 795.007812 L 637.777344 790.449219 L 630.546875 756.015625 L 645.265625 753.875 " fill-opacity="1" fill-rule="nonzero"/><path fill="#e0f5fd" d="M 435.773438 738.054688 L 415.953125 658.730469 L 385.523438 653.480469 L 392.484375 689.476562 L 380.324219 653.480469 L 369.671875 650.746094 L 369.671875 729.242188 L 435.773438 738.054688 " fill-opacity="1" fill-rule="nonzero"/><g clip-path="url(#e5261d6d18)"><path fill="#89cee9" d="M 336.90625 645.09375 L 336.90625 667.71875 L 307.371094 677.121094 L 331.050781 694.398438 L 326.324219 723.460938 L 296.855469 690.714844 L 282.726562 605.101562 L 336.90625 645.09375 " fill-opacity="1" fill-rule="nonzero"/></g><path fill="#e0f5fd" d="M 307.371094 677.121094 L 331.050781 694.398438 L 366.332031 684.683594 L 336.851562 680.558594 L 336.90625 667.71875 L 307.371094 677.121094 " fill-opacity="1" fill-rule="nonzero"/><g clip-path="url(#ad95890b0a)"><path fill="#80c0da" d="M 307.371094 677.121094 L 309.816406 703.644531 L 296.855469 690.714844 L 282.726562 605.101562 L 315.777344 629.496094 L 307.371094 677.121094 " fill-opacity="1" fill-rule="nonzero"/></g><path fill="#80c0da" d="M 442.75 664.332031 L 456.519531 743.4375 L 486.640625 751.25 L 470.859375 703.644531 L 482.515625 681.058594 L 482.296875 670.179688 L 442.75 664.332031 " fill-opacity="1" fill-rule="nonzero"/><path fill="#80c0da" d="M 566.800781 772.039062 L 554.507812 729.109375 L 564.105469 718.488281 L 551.703125 682.152344 L 585.109375 735.832031 L 575.511719 744.292969 L 601.726562 781.101562 L 566.800781 772.039062 " fill-opacity="1" fill-rule="nonzero"/><path fill="#91dcf8" d="M 566.800781 772.039062 L 528.285156 762.050781 L 506.511719 713.4375 L 554.507812 729.109375 L 566.800781 772.039062 " fill-opacity="1" fill-rule="nonzero"/><path fill="#d1f0fc" d="M 564.105469 718.488281 L 551.703125 684.683594 L 531.195312 705.09375 L 506.511719 713.4375 L 554.507812 729.109375 L 564.105469 718.488281 " fill-opacity="1" fill-rule="nonzero"/><path fill="#ade5fa" d="M 782.273438 578.011719 L 748.9375 577.578125 L 729.101562 585.515625 L 708.695312 585.515625 L 688.296875 590.195312 L 701.015625 594.617188 L 688.296875 605.101562 L 787.425781 606.089844 L 782.273438 578.011719 " fill-opacity="1" fill-rule="nonzero"/><path fill="#ade5fa" d="M 1084.019531 561.472656 L 1059.964844 561.160156 L 1045.648438 566.890625 L 1030.929688 566.890625 L 1016.214844 570.265625 L 1025.390625 573.453125 L 1016.214844 581.015625 L 1087.734375 581.730469 L 1084.019531 561.472656 " fill-opacity="1" fill-rule="nonzero"/><path fill="#73bbd7" d="M 815.878906 573.480469 L 797.496094 570.914062 L 782.273438 578.011719 L 778 584.824219 L 763.90625 593.078125 L 758.972656 602.734375 L 793.976562 606.859375 L 815.878906 605.511719 L 815.878906 573.480469 " fill-opacity="1" fill-rule="nonzero"/><path fill="#54a7c9" d="M 806.65625 573.480469 L 793.976562 578.011719 L 789.511719 587.214844 L 778 584.824219 L 782.273438 578.011719 L 797.496094 570.914062 L 806.65625 573.480469 " fill-opacity="1" fill-rule="nonzero"/><path fill="#54a7c9" d="M 763.90625 593.078125 L 785.984375 594.617188 L 803.839844 591.351562 L 790.214844 588.109375 L 776.8125 585.515625 L 763.90625 593.078125 " fill-opacity="1" fill-rule="nonzero"/><path fill="#54a7c9" d="M 785.753906 595.859375 L 793.976562 606.859375 L 758.972656 602.734375 L 763.90625 593.078125 L 785.753906 595.859375 " fill-opacity="1" fill-rule="nonzero"/><path fill="#ade5fa" d="M 796.113281 606.726562 L 793.976562 596.808594 L 807.832031 591.351562 L 802.546875 587.214844 L 800.90625 580.539062 L 815.878906 573.480469 L 815.878906 605.511719 L 796.113281 606.726562 " fill-opacity="1" fill-rule="nonzero"/><path fill="#ade5fa" d="M 815.878906 573.480469 L 829.464844 579.066406 L 836.042969 590.195312 L 844.136719 594.617188 L 849.699219 599.96875 L 815.878906 605.511719 L 811.257812 589.5 L 815.878906 573.480469 " fill-opacity="1" fill-rule="nonzero"/><path fill="#73bbd7" d="M 1099.875 561.308594 L 1088.585938 559.730469 L 1079.230469 564.089844 L 1076.609375 568.277344 L 1067.953125 573.34375 L 1064.917969 579.277344 L 1086.414062 581.8125 L 1099.875 580.984375 L 1099.875 561.308594 " fill-opacity="1" fill-rule="nonzero"/><path fill="#54a7c9" d="M 1094.210938 561.308594 L 1086.417969 564.085938 L 1083.679688 569.742188 L 1076.609375 568.273438 L 1079.238281 564.085938 L 1088.589844 559.730469 L 1094.210938 561.308594 " fill-opacity="1" fill-rule="nonzero"/><path fill="#54a7c9" d="M 1067.953125 573.34375 L 1081.515625 574.289062 L 1092.480469 572.285156 L 1084.113281 570.292969 L 1075.882812 568.699219 L 1067.953125 573.34375 " fill-opacity="1" fill-rule="nonzero"/><path fill="#54a7c9" d="M 1081.371094 575.050781 L 1086.421875 581.808594 L 1064.925781 579.277344 L 1067.953125 573.34375 L 1081.371094 575.050781 " fill-opacity="1" fill-rule="nonzero"/><path fill="#ade5fa" d="M 1087.730469 581.730469 L 1086.414062 575.636719 L 1094.933594 572.285156 L 1091.6875 569.746094 L 1090.671875 565.644531 L 1099.875 561.308594 L 1099.875 580.984375 L 1087.730469 581.730469 " fill-opacity="1" fill-rule="nonzero"/><path fill="#ade5fa" d="M 1099.878906 561.308594 L 1108.222656 564.738281 L 1112.265625 571.574219 L 1117.234375 574.289062 L 1120.652344 577.578125 L 1099.878906 580.980469 L 1097.035156 571.144531 L 1099.878906 561.308594 " fill-opacity="1" fill-rule="nonzero"/><path fill="#ade5fa" d="M 417.570312 547.449219 L 359.019531 543.285156 L 376.632812 528.4375 L 439.113281 516.878906 L 417.570312 547.449219 " fill-opacity="1" fill-rule="nonzero"/><path fill="#ade5fa" d="M 415.394531 521.257812 C 419.410156 519.785156 423.976562 519.703125 428.066406 518.390625 C 433.953125 516.503906 438.253906 512.300781 443.289062 509.128906 C 456.222656 500.96875 475.066406 500.03125 489.066406 506.84375 C 495.34375 509.902344 500.660156 514.332031 507.363281 516.664062 C 509.445312 517.390625 511.640625 517.90625 513.601562 518.828125 C 519.535156 521.640625 522.464844 527.789062 528.570312 530.328125 C 524.761719 532.308594 520.289062 533.148438 515.910156 533.957031 C 490.664062 538.617188 474.507812 543.351562 471.0625 543.285156 C 463.664062 543.128906 407.203125 544.292969 402.132812 539 C 396.234375 532.847656 408.964844 523.621094 415.394531 521.257812 " fill-opacity="1" fill-rule="nonzero"/><path fill="#73bbd7" d="M 477.640625 503.304688 L 453.347656 517.765625 L 449.949219 524.957031 L 485.234375 522.792969 C 485.234375 522.792969 457.847656 528.320312 443.890625 530.898438 L 471.0625 543.285156 L 417.570312 547.449219 L 392.988281 543.285156 L 407.5 518.699219 L 433.414062 512.820312 L 452.675781 500.371094 L 477.640625 503.304688 " fill-opacity="1" fill-rule="nonzero"/><path fill="#edf9fe" d="M 489.066406 506.84375 L 471.0625 512.820312 L 480.085938 517.765625 L 495.113281 520.234375 L 483.085938 535.167969 L 471.0625 543.285156 L 528.570312 530.328125 L 519.75 513.378906 L 499.816406 512.820312 L 489.066406 506.84375 " fill-opacity="1" fill-rule="nonzero"/></svg>